<svg xmlns="http://www.w3.org/2000/svg" xmlns:xlink="http://www.w3.org/1999/xlink" width="120" height="120" viewBox="0 0 120 120">
  <defs>
    <clipPath id="clip-path">
      <rect id="사각형_487" data-name="사각형 487" width="120" height="120" transform="translate(446 1387)" fill="#fff"/>
    </clipPath>
  </defs>
  <g id="_1" data-name="1" transform="translate(-446 -1387)" clip-path="url(#clip-path)">
    <g id="Smart_phone_data_Two_Color" data-name="Smart phone data_Two Color" transform="translate(446 1403.488)">
      <ellipse id="타원_42" data-name="타원 42" cx="60" cy="5.545" rx="60" ry="5.545" transform="translate(0 75.935)" fill="#e6e6e6" opacity="0.45"/>
      <path id="패스_2099" data-name="패스 2099" d="M99.33,82.609s-3.64-1-4.434-4.381c0,0,5.639-1.139,5.8,4.681Z" transform="translate(-5.31 -6.72)" fill="#4e4e4e" opacity="0.58"/>
      <path id="패스_2100" data-name="패스 2100" d="M99.166,82.876s-2.542-4.019-.3-7.778a6.476,6.476,0,0,1,2.382,7.791Z" transform="translate(-4.701 -7.328)" fill="#4e4e4e" opacity="0.73"/>
      <path id="패스_2101" data-name="패스 2101" d="M99.506,82.421s1.345-4.245,5.409-5.051c0,0,.761,2.76-2.632,5.063Z" transform="translate(-4.387 -6.873)" fill="#4e4e4e"/>
      <path id="패스_2102" data-name="패스 2102" d="M97.309,81.487l.736,5.047,4.648.021.683-5.043Z" transform="translate(-4.827 -6.05)" fill="#24285b"/>
      <rect id="사각형_495" data-name="사각형 495" width="45.131" height="80.941" transform="translate(35.234 0)" fill="#c9c9c9"/>
      <rect id="사각형_496" data-name="사각형 496" width="37.357" height="56.964" transform="translate(38.965 9.226)" fill="#fff"/>
      <circle id="타원_43" data-name="타원 43" cx="4.418" cy="4.418" r="4.418" transform="translate(53.518 69.07)" fill="#fff" opacity="0.56"/>
      <rect id="사각형_497" data-name="사각형 497" width="12.652" height="1.847" transform="translate(53.978 3.163)" opacity="0.12"/>
      <circle id="타원_44" data-name="타원 44" cx="2.061" cy="2.061" r="2.061" transform="translate(47.335 2.229)" fill="#fff"/>
      <path id="패스_2103" data-name="패스 2103" d="M38.089,85.12a1.654,1.654,0,0,0-.271,1.608c.391.786-.239,1.444-.823.872s-.777-2.879-.777-2.879l1.127-.6Z" transform="translate(-17.045 -5.524)" fill="#4e4e4e"/>
      <path id="패스_2104" data-name="패스 2104" d="M43.467,52.276a7.289,7.289,0,0,1,6.528,4.368c1.847,4.422,2.024,11.488,2.024,11.488L60.5,62.609l-9.58,9.3-3.817-4.878Z" transform="translate(-15.595 -11.892)" fill="#4e4e4e"/>
      <path id="패스_2105" data-name="패스 2105" d="M43.467,52.276a7.289,7.289,0,0,1,6.528,4.368c1.847,4.422,2.024,11.488,2.024,11.488L60.5,62.609l-9.58,9.3-3.817-4.878Z" transform="translate(-15.595 -11.892)" fill="#fff" opacity="0.3"/>
      <path id="패스_2106" data-name="패스 2106" d="M54.067,80.044a1.654,1.654,0,0,0,1.3.991c.884.029,1.164.88.378,1.148s-2.879-.65-2.879-.65V80.254Z" transform="translate(-13.716 -6.339)" fill="#4e4e4e"/>
      <path id="패스_2107" data-name="패스 2107" d="M38.654,46.252a12.031,12.031,0,0,1,1.436,2.879.971.971,0,0,1-.691,1.193,2.139,2.139,0,0,1-2.25-.584l-1.333-1.185a1.74,1.74,0,0,1-.243-1.991A1.849,1.849,0,0,1,38.654,46.252Z" transform="translate(-17.216 -13.235)" fill="#f4a28c"/>
      <path id="패스_2108" data-name="패스 2108" d="M36.241,48.009l.884,5.257,3.566.165-2.077-4.109Z" transform="translate(-17.041 -12.746)" fill="#f4a28c"/>
      <path id="패스_2109" data-name="패스 2109" d="M38.634,47l.823.383a.308.308,0,0,1,.07.518l-.576.485Z" transform="translate(-16.562 -12.946)" fill="#f4a28c"/>
      <path id="패스_2110" data-name="패스 2110" d="M38.685,49.663a2.394,2.394,0,0,1-1.234-.263,1.686,1.686,0,0,0,1.83,1.44Z" transform="translate(-16.799 -12.467)" fill="#ce8172" opacity="0.31"/>
      <path id="패스_2111" data-name="패스 2111" d="M31.3,56.595c4.113-5.347,13.607-5.915,18.1-2.846,4.405,3.027,2.287,20.928,2.287,20.928L41.073,77.605S25.274,65.661,31.3,56.595Z" transform="translate(-18.302 -11.97)" fill="#4e4e4e"/>
      <path id="패스_2112" data-name="패스 2112" d="M39.743,73.67l1.329,3.208a6.758,6.758,0,0,1-1.3,5.376l-3.291,4.27,1.83,1.312L43.1,83.995a8.4,8.4,0,0,0,3.171-6.536V75.813l1.777-4.253Z" transform="translate(-16.993 -8.035)" fill="#24285b"/>
      <path id="패스_2113" data-name="패스 2113" d="M35.506,54.538s5.1,2.057,4.636,7.3,1.094,8.49,9.3,8.177l-1.312,4.915-7.716,2.143h0a44.275,44.275,0,0,1-6.783-8.494l-.5-.823,2.414-6.951Z" transform="translate(-17.662 -11.44)" opacity="0.08"/>
      <path id="패스_2114" data-name="패스 2114" d="M39.2,73.832l4.936,3.6L50.692,75.4a2.468,2.468,0,0,1,3.11,1.76l1.209,5,2.225-.189-.72-6.746a5,5,0,0,0-4.9-4.471h0a23.935,23.935,0,0,0-9.683,1.917Z" transform="translate(-16.449 -8.197)" fill="#24285b"/>
      <rect id="사각형_498" data-name="사각형 498" width="4.669" height="16.354" transform="matrix(0.712, 0.702, -0.702, 0.712, 46.584, 42.368)" fill="#24285b"/>
      <rect id="사각형_499" data-name="사각형 499" width="4.669" height="16.354" transform="matrix(0.712, 0.702, -0.702, 0.712, 46.584, 42.368)" fill="#fff" opacity="0.29"/>
      <path id="패스_2115" data-name="패스 2115" d="M37.2,49.943l-.531-.206a3.607,3.607,0,0,0-2.225-.086.942.942,0,0,1-1.267-.609,1.008,1.008,0,0,1,.925-1.46,1.468,1.468,0,0,1-.383-1.645c.383-1.016,1.785-.21,1.785-.21s-.526-1.189.28-1.608,1.575.769,1.575.769,0-1.329,1-.979,1.394.732,1.127,1.678-2.468,1.962-2.468,1.962S39.235,48.54,37.2,49.943Z" transform="translate(-17.674 -13.577)" fill="#24285b"/>
      <rect id="사각형_500" data-name="사각형 500" width="7.684" height="18.308" rx="1.484" transform="matrix(0.712, 0.702, -0.702, 0.712, 38.884, 48.254)" fill="#24285b"/>
      <path id="패스_2116" data-name="패스 2116" d="M82.811,38.291a16.741,16.741,0,1,0,.177,23.676A16.741,16.741,0,0,0,82.811,38.291ZM62.286,59.117a12.5,12.5,0,1,1,17.687-.128A12.5,12.5,0,0,1,62.286,59.117Z" transform="translate(-13.424 -15.652)" fill="#ffd200"/>
      <path id="패스_2117" data-name="패스 2117" d="M37.168,54.988a3.648,3.648,0,0,0-4.8.477c-2.846,2.974-6.343,11.476-2.11,17.07,5.3,6.993,12.554,4.562,22.014,1.67l-.444-2.25s-17.642,2.373-15.713-5.24C37.649,60.71,39.739,56.921,37.168,54.988Z" transform="translate(-18.63 -11.486)" fill="#4e4e4e"/>
      <path id="패스_2118" data-name="패스 2118" d="M37.168,54.988a3.648,3.648,0,0,0-4.8.477c-2.846,2.974-6.343,11.476-2.11,17.07,5.3,6.993,12.554,4.562,22.014,1.67l-.444-2.25s-17.642,2.373-15.713-5.24C37.649,60.71,39.739,56.921,37.168,54.988Z" transform="translate(-18.63 -11.486)" fill="#fff" opacity="0.3"/>
      <path id="패스_2119" data-name="패스 2119" d="M48.043,69.81s2.949-1.452,3.027,0-2.744,1.423-2.744,1.423Z" transform="translate(-14.68 -8.514)" fill="#f4a28c"/>
      <path id="패스_2120" data-name="패스 2120" d="M54.989,66s2.571-.823,1.95-1.978S54.853,63.481,54.989,66Z" transform="translate(-13.293 -9.655)" fill="#f4a28c"/>
      <path id="패스_2121" data-name="패스 2121" d="M37.444,47.688s-.683-.572-1.094,0,.6,1.415,1.3.8Z" transform="translate(-17.038 -12.861)" fill="#f4a28c"/>
      <path id="패스_2122" data-name="패스 2122" d="M72.424,43.261a3.217,3.217,0,0,0-2.007.7,4.6,4.6,0,0,0-1.176,1.411,4.582,4.582,0,0,0-1.172-1.411,3.229,3.229,0,0,0-2.011-.7,3.686,3.686,0,0,0-3.607,3.912c0,2.41,1.937,4.06,4.866,6.557.5.411,1.061.9,1.645,1.419a.411.411,0,0,0,.559,0c.588-.514,1.152-1,1.645-1.419,2.929-2.5,4.862-4.146,4.862-6.557A3.68,3.68,0,0,0,72.424,43.261Z" transform="translate(-11.799 -13.695)" fill="#4e4e4e"/>
      <rect id="사각형_501" data-name="사각형 501" width="21.212" height="7.729" transform="translate(47.08 54.365)" fill="#24285b"/>
      <rect id="사각형_502" data-name="사각형 502" width="12.603" height="2.382" transform="translate(49.12 57.195)" fill="#4e4e4e"/>
      <rect id="사각형_503" data-name="사각형 503" width="3.747" height="2.382" transform="translate(57.976 57.195)" fill="#fff"/>
      <rect id="사각형_504" data-name="사각형 504" width="2.785" height="3.517" transform="translate(63.262 56.652)" fill="#ffd200"/>
      <rect id="사각형_505" data-name="사각형 505" width="3.336" height="0.683" transform="translate(62.986 56.22)" fill="#ffd200"/>
      <rect id="사각형_506" data-name="사각형 506" width="0.707" height="0.584" transform="translate(64.294 55.767)" fill="#ffd200"/>
      <rect id="사각형_507" data-name="사각형 507" width="2.785" height="0.428" transform="translate(63.262 56.903)" opacity="0.08"/>
    </g>
  </g>
</svg>
