<svg xmlns="http://www.w3.org/2000/svg" xmlns:xlink="http://www.w3.org/1999/xlink" width="120" height="120" viewBox="0 0 120 120">
  <defs>
    <clipPath id="clip-path">
      <rect id="사각형_491" data-name="사각형 491" width="120" height="120" transform="translate(446 1707)" fill="#fff" stroke="#707070" stroke-width="1"/>
    </clipPath>
  </defs>
  <g id="_2" data-name="2" transform="translate(-446 -1707)" clip-path="url(#clip-path)">
    <g id="Online_protection_Two_Color" data-name="Online protection_Two Color" transform="translate(448.66 1707)">
      <ellipse id="타원_63" data-name="타원 63" cx="57.34" cy="7.793" rx="57.34" ry="7.793" transform="translate(0 104.414)" fill="#e6e6e6" opacity="0.45"/>
      <rect id="사각형_532" data-name="사각형 532" width="31.047" height="8.175" transform="translate(71.983 102.061)" fill="#e6e6e6"/>
      <rect id="사각형_533" data-name="사각형 533" width="31.047" height="8.175" transform="translate(65.197 94.063)" fill="#e6e6e6" opacity="0.43"/>
      <rect id="사각형_534" data-name="사각형 534" width="61.465" height="110.236" transform="translate(19.253 0)" fill="#c9c9c9"/>
      <rect id="사각형_535" data-name="사각형 535" width="50.877" height="77.578" transform="translate(24.343 12.564)" fill="#fff"/>
      <circle id="타원_64" data-name="타원 64" cx="6.016" cy="6.016" r="6.016" transform="translate(44.156 94.063)" fill="#fff" opacity="0.56"/>
      <rect id="사각형_536" data-name="사각형 536" width="17.234" height="2.515" transform="translate(44.786 4.308)" opacity="0.12"/>
      <circle id="타원_65" data-name="타원 65" cx="2.806" cy="2.806" r="2.806" transform="translate(35.738 3.032)" fill="#fff"/>
      <rect id="사각형_537" data-name="사각형 537" width="46.278" height="77.578" transform="translate(19.253 20.519)" opacity="0.08"/>
      <rect id="사각형_538" data-name="사각형 538" width="50.877" height="77.578" transform="translate(11.148 17.347)" fill="#4e4e4e"/>
      <rect id="사각형_539" data-name="사각형 539" width="40.962" height="10.55" rx="4.398" transform="translate(16.103 70.916)" opacity="0.08"/>
      <path id="패스_2181" data-name="패스 2181" d="M61.468,78.539h1.648l-.135,1.126a6,6,0,0,1-.183.932q.28-.14.372-.194l.479-.248,1.034-.49.512,1.573-1.147.237a6.156,6.156,0,0,1-.932.086,5.138,5.138,0,0,1,.662.592l.776.846-1.341,1.007L62.674,83c-.081-.145-.21-.425-.388-.846A9.237,9.237,0,0,1,61.9,83l-.539,1.007L59.981,83l.835-.846a5.924,5.924,0,0,1,.684-.592,5.524,5.524,0,0,1-.9-.135l-1.158-.188.539-1.573,1.034.469c.113.054.382.2.813.463-.092-.415-.151-.727-.178-.932Z" transform="translate(-38.482 -5.075)" fill="#fff"/>
      <path id="패스_2182" data-name="패스 2182" d="M68.549,78.539H70.2l-.135,1.126a5.487,5.487,0,0,1-.188.932,4.092,4.092,0,0,0,.377-.194c.2-.113.366-.194.474-.248l1.039-.49.539,1.573-1.147.237a6.238,6.238,0,0,1-.932.086,5.137,5.137,0,0,1,.662.592l.776.846-1.341,1.007L69.783,83c-.081-.145-.21-.425-.388-.846a9.232,9.232,0,0,1-.388.846l-.539,1.007L67.09,83l.835-.846a5.924,5.924,0,0,1,.684-.592,5.522,5.522,0,0,1-.9-.135l-1.158-.188.539-1.573,1.034.469c.108.054.382.2.813.463a8.384,8.384,0,0,1-.178-.932Z" transform="translate(-37.06 -5.075)" fill="#fff"/>
      <path id="패스_2183" data-name="패스 2183" d="M75.654,78.539H77.3l-.135,1.126a6.074,6.074,0,0,1-.188.932q.285-.14.372-.194l.479-.248,1.034-.49.539,1.573-1.147.237a6.31,6.31,0,0,1-.932.086,5.984,5.984,0,0,1,.662.592l.776.846L77.42,84.005,76.882,83c-.081-.145-.21-.425-.388-.846a9.238,9.238,0,0,1-.388.846l-.539,1.007-1.427-1.012.835-.846a5.971,5.971,0,0,1,.689-.592,5.574,5.574,0,0,1-.9-.135L73.6,81.231l.539-1.573,1.039.469c.108.054.377.2.813.463-.1-.415-.156-.727-.183-.932Z" transform="translate(-35.65 -5.075)" fill="#fff"/>
      <path id="패스_2184" data-name="패스 2184" d="M82.731,78.539h1.648l-.135,1.126a6,6,0,0,1-.183.932q.28-.14.372-.194l.479-.248,1.034-.49.539,1.573-1.147.237a6.156,6.156,0,0,1-.932.086,5.138,5.138,0,0,1,.662.592l.776.846L84.5,84.005,83.965,83c-.081-.145-.21-.425-.388-.846a9.242,9.242,0,0,1-.388.846l-.539,1.007L81.272,83l.835-.846a5.922,5.922,0,0,1,.684-.592,5.522,5.522,0,0,1-.9-.135l-1.158-.188.539-1.573,1.034.469c.113.054.382.2.813.463-.092-.415-.151-.727-.178-.932Z" transform="translate(-34.224 -5.075)" fill="#fff"/>
      <rect id="사각형_540" data-name="사각형 540" width="30.003" height="19.986" transform="translate(20.928 46.278)" fill="#ffd200"/>
      <path id="패스_2185" data-name="패스 2185" d="M64.9,58.305V52.1a8.326,8.326,0,0,1,8.326-8.326h0A8.331,8.331,0,0,1,81.553,52.1v6.2" transform="translate(-37.392 -12.028)" fill="none" stroke="#fff" stroke-miterlimit="10" stroke-width="1.795"/>
      <circle id="타원_66" data-name="타원 66" cx="4.007" cy="4.007" r="4.007" transform="translate(31.925 49.8)" fill="#24285b"/>
      <rect id="사각형_541" data-name="사각형 541" width="3.124" height="7.206" transform="translate(34.37 55.654)" fill="#24285b"/>
      <path id="패스_2186" data-name="패스 2186" d="M115.87,92.181s-4.308-1.179-5.256-5.192c0,0,6.683-1.352,6.877,5.547Z" transform="translate(-28.248 -3.406)" fill="#4e4e4e" opacity="0.58"/>
      <path id="패스_2187" data-name="패스 2187" d="M115.676,92.48s-3.016-4.766-.361-9.22a7.677,7.677,0,0,1,2.822,9.231Z" transform="translate(-27.526 -4.131)" fill="#4e4e4e" opacity="0.73"/>
      <path id="패스_2188" data-name="패스 2188" d="M116.08,91.941s1.616-5.03,6.4-5.983c0,0,.9,3.269-3.113,6Z" transform="translate(-27.155 -3.591)" fill="#4e4e4e"/>
      <path id="패스_2189" data-name="패스 2189" d="M113.473,90.849l.872,5.983,5.509.022.813-5.973Z" transform="translate(-27.676 -2.613)" fill="#24285b"/>
      <rect id="사각형_542" data-name="사각형 542" width="13.028" height="25.635" transform="translate(67.691 31.177)" opacity="0.08"/>
      <rect id="사각형_543" data-name="사각형 543" width="26.06" height="25.635" transform="translate(69.338 29.48)" fill="#24285b"/>
      <path id="패스_2190" data-name="패스 2190" d="M111.805,45.678s-2.154,2.806-7.147,3.4v7.082c0,4.007,7.147,6.053,7.147,6.053s7.147-2.047,7.147-6.053V49.082C113.943,48.489,111.805,45.678,111.805,45.678Z" transform="translate(-29.439 -11.647)" fill="#ffd200"/>
      <path id="패스_2191" data-name="패스 2191" d="M107.71,52.987l2.251,2.52,5.224-5.041" transform="translate(-28.829 -10.689)" fill="none" stroke="#fff" stroke-miterlimit="10" stroke-width="1.795"/>
      <rect id="사각형_544" data-name="사각형 544" width="20.82" height="14.848" transform="translate(67.793 9.715)" fill="#e6e6e6"/>
      <path id="패스_2192" data-name="패스 2192" d="M108.051,27.794a7.954,7.954,0,0,1,3,.539,7.443,7.443,0,0,1,2.23,1.336c.258.226.5.463.738.706a.808.808,0,0,1-1.115,1.169c-.242-.215-.463-.458-.711-.668a6.107,6.107,0,0,0-7.54-.269,8.617,8.617,0,0,0-1.077.964A.986.986,0,0,1,103,31.9a.829.829,0,0,1-.8-.377.765.765,0,0,1,.059-.926,8.967,8.967,0,0,1,1.562-1.4,7.707,7.707,0,0,1,4.228-1.389Z" transform="translate(-29.956 -15.224)" fill="#fff"/>
      <path id="패스_2193" data-name="패스 2193" d="M108.079,30.24a4.777,4.777,0,0,1,1.853.469,5,5,0,0,1,1.686,1.325.862.862,0,0,1,0,1.126.829.829,0,0,1-1.045.21,3.231,3.231,0,0,1-.576-.474,2.838,2.838,0,0,0-2.752-.77,3.048,3.048,0,0,0-1.492.91,2.693,2.693,0,0,1-.539.474.856.856,0,0,1-1.077-.172.872.872,0,0,1-.07-1.109,6.291,6.291,0,0,1,.582-.619,5.138,5.138,0,0,1,.9-.695,4.561,4.561,0,0,1,1.718-.609C107.541,30.267,107.81,30.261,108.079,30.24Z" transform="translate(-29.591 -14.735)" fill="#fff"/>
      <path id="패스_2194" data-name="패스 2194" d="M108.82,34.443a1.406,1.406,0,1,1-.429-1A1.416,1.416,0,0,1,108.82,34.443Z" transform="translate(-29.173 -14.172)" fill="#fff"/>
    </g>
  </g>
</svg>
