<svg xmlns="http://www.w3.org/2000/svg" xmlns:xlink="http://www.w3.org/1999/xlink" width="120" height="120" viewBox="0 0 120 120">
  <defs>
    <clipPath id="clip-path">
      <rect id="사각형_488" data-name="사각형 488" width="120" height="120" transform="translate(783 1387)" fill="#fff" stroke="#707070" stroke-width="1"/>
    </clipPath>
  </defs>
  <g id="_3" data-name="3" transform="translate(-783 -1387)" clip-path="url(#clip-path)">
    <g id="Security_Two_Color" data-name="Security_Two Color" transform="translate(783 1404)">
      <ellipse id="타원_45" data-name="타원 45" cx="56.294" cy="7.831" rx="56.294" ry="7.831" transform="translate(7.412 70.338)" fill="#e6e6e6" stroke="#707070" stroke-width="0.323" opacity="0.45"/>
      <path id="패스_2123" data-name="패스 2123" d="M38.361,80.607s-.388,1.265-1.49,1.42-1.343,1.265-.322,1.494,3.543-1.2,3.543-1.2l-.163-1.61Z" transform="translate(-9.545 -2.07)" fill="#4e4e4e" stroke="#707070" stroke-width="0.323"/>
      <path id="패스_2124" data-name="패스 2124" d="M93,75.947s-3.566-.958-4.354-4.269c0,0,5.514-1.137,5.7,4.56Z" transform="translate(1.004 -3.875)" fill="#4e4e4e" stroke="#707070" stroke-width="0.323" opacity="0.58"/>
      <path id="패스_2125" data-name="패스 2125" d="M92.843,76.191s-2.507-3.923-.334-7.614a6.338,6.338,0,0,1,2.367,7.614Z" transform="translate(1.6 -4.476)" fill="#4e4e4e" stroke="#707070" stroke-width="0.323" opacity="0.73"/>
      <path id="패스_2126" data-name="패스 2126" d="M93.174,75.75s1.3-4.16,5.27-4.963c0,0,.776,2.693-2.553,4.963Z" transform="translate(1.91 -4.034)" fill="#4e4e4e" stroke="#707070" stroke-width="0.323"/>
      <path id="패스_2127" data-name="패스 2127" d="M91.02,74.854l.741,4.94h4.552l.648-4.94Z" transform="translate(1.479 -3.221)" fill="#24285b" stroke="#707070" stroke-width="0.323"/>
      <rect id="사각형_508" data-name="사각형 508" width="44.288" height="78.168" transform="translate(41.327 0)" fill="#c9c9c9" stroke="#707070" stroke-width="0.323"/>
      <rect id="사각형_509" data-name="사각형 509" width="36.659" height="55.898" transform="translate(44.99 9.057)" fill="#fff" stroke="#707070" stroke-width="0.323"/>
      <rect id="사각형_510" data-name="사각형 510" width="21.199" height="29.577" transform="translate(52.926 27.773)" fill="#e6e6e6" stroke="#707070" stroke-width="0.323"/>
      <path id="패스_2128" data-name="패스 2128" d="M72.106,43.653l.873-4.222,3.88,3.43,3.783,12.825,1.164-.582,1.059,2.518-1.688.877,3.151,6.449S75.4,78.325,58.136,72.532l-2.522,3.155,9.9,12.806H48.377l.279-18.459-.279-19.946V39.416s3.423-.776,4.847,1.4a5.84,5.84,0,0,1,.838,4.366l-1.455.206.617,7.311L59.106,60.8l4.463,7.59,6.954-.1,6.628-2.425,2.367-3.6-2.949-6.209Z" transform="translate(-7.05 -10.335)" stroke="#707070" stroke-width="0.323" opacity="0.08"/>
      <circle id="타원_46" data-name="타원 46" cx="4.334" cy="4.334" r="4.334" transform="translate(59.139 67.004)" fill="#fff" stroke="#707070" stroke-width="0.323" opacity="0.56"/>
      <rect id="사각형_511" data-name="사각형 511" width="12.418" height="1.812" transform="translate(59.724 3.104)" stroke="#707070" stroke-width="0.323" opacity="0.12"/>
      <circle id="타원_47" data-name="타원 47" cx="2.022" cy="2.022" r="2.022" transform="translate(53.205 2.189)" fill="#fff" stroke="#707070" stroke-width="0.323"/>
      <path id="패스_2129" data-name="패스 2129" d="M43.349,42.025a13.722,13.722,0,0,0-.365,3.659,1.114,1.114,0,0,0,1.222.993,2.464,2.464,0,0,0,2.173-1.552l.939-1.816a1.987,1.987,0,0,0-.555-2.227A2.12,2.12,0,0,0,43.349,42.025Z" transform="translate(-8.134 -10.081)" fill="#f4a28c" stroke="#707070" stroke-width="0.323"/>
      <path id="패스_2130" data-name="패스 2130" d="M46.975,43.578l1.2,5.988-3.675.912.6-5.809Z" transform="translate(-7.824 -9.476)" fill="#f4a28c" stroke="#707070" stroke-width="0.323"/>
      <path id="패스_2131" data-name="패스 2131" d="M44.988,43.75s.144-.842.776-.683.427,1.374-.45,1.362Z" transform="translate(-7.727 -9.582)" fill="#f4a28c" stroke="#707070" stroke-width="0.323"/>
      <path id="패스_2132" data-name="패스 2132" d="M43.209,42.925l-.733.753a.353.353,0,0,0,.136.582l.815.283Z" transform="translate(-8.25 -9.607)" fill="#f4a28c" stroke="#707070" stroke-width="0.323"/>
      <path id="패스_2133" data-name="패스 2133" d="M44.957,45.432a4.486,4.486,0,0,0,1.083-.958s.536,2.192-1.288,2.957Z" transform="translate(-7.775 -9.297)" fill="#ce8172" stroke="#707070" stroke-width="0.323" opacity="0.31"/>
      <path id="패스_2134" data-name="패스 2134" d="M43.3,39.523s-1.634,1.517.264,2.46,2.045.539,2.045.539-.978,2.561.838,2.988l1-.388s2.2-2.852,1.141-4.152C48.585,40.963,47.087,36.962,43.3,39.523Z" transform="translate(-8.197 -10.458)" fill="#24285b" stroke="#707070" stroke-width="0.323"/>
      <path id="패스_2135" data-name="패스 2135" d="M46.367,48.935S58.323,46.355,60.4,51.59,54.3,73.32,54.3,73.32l-11.385-.605S29.01,55.746,46.367,48.935Z" transform="translate(-9.196 -8.532)" fill="#4e4e4e" stroke="#707070" stroke-width="0.323"/>
      <path id="패스_2136" data-name="패스 2136" d="M47.612,54.886l4,2.08s-.066,8.7-6.185,14.606L42.175,71.4a10.171,10.171,0,0,1-.83-1.118C41.073,69.811,47.612,54.886,47.612,54.886Z" transform="translate(-8.458 -7.214)" stroke="#707070" stroke-width="0.323" opacity="0.08"/>
      <path id="패스_2137" data-name="패스 2137" d="M44.852,44.04s.819-1.587,1.552-.776S45.764,45.588,44.852,44.04Z" transform="translate(-7.754 -9.585)" fill="#f4a28c" stroke="#707070" stroke-width="0.323"/>
      <path id="패스_2138" data-name="패스 2138" d="M28.079,51.738l12.6-5.285,9.887,8.692S49.709,67,42.957,73.17a7.687,7.687,0,0,1-11.381-1.013C28.824,68.513,26.321,62.176,28.079,51.738Z" transform="translate(-11.226 -8.901)" fill="#ffd200" stroke="#707070" stroke-width="0.323"/>
      <path id="패스_2139" data-name="패스 2139" d="M30.9,53.965l8.347-3.492L45.8,56.235s-.57,7.866-5.045,11.96a5.1,5.1,0,0,1-7.555-.679C31.388,65.094,29.724,60.891,30.9,53.965Z" transform="translate(-10.624 -8.097)" fill="#fff" stroke="#707070" stroke-width="0.323" opacity="0.57"/>
      <path id="패스_2140" data-name="패스 2140" d="M51.458,49.638a4.416,4.416,0,0,1,5.289.167,17.333,17.333,0,0,1,5.568,8.378c2.627,7.761,8.219,8.25,14.82,2.441l1.723,2.224S64.369,77.112,53.27,60.857C48.567,53.981,49.631,50.965,51.458,49.638Z" transform="translate(-6.743 -8.424)" fill="#4e4e4e" stroke="#707070" stroke-width="0.323"/>
      <path id="패스_2141" data-name="패스 2141" d="M51.458,49.638a4.416,4.416,0,0,1,5.289.167,17.333,17.333,0,0,1,5.568,8.378c2.627,7.761,8.219,8.25,14.82,2.441l1.723,2.224S64.369,77.112,53.27,60.857C48.567,53.981,49.631,50.965,51.458,49.638Z" transform="translate(-6.743 -8.424)" fill="#fff" stroke="#707070" stroke-width="0.323" opacity="0.2"/>
      <path id="패스_2142" data-name="패스 2142" d="M43.286,68.646l-4.936,3.88a6.671,6.671,0,0,0-2.01,7.866l1.319,3.081h2.328l-.679-4.043a4.2,4.2,0,0,1,2.072-4.35h0A67.462,67.462,0,0,1,51.512,70.4l3.17-1.164Z" transform="translate(-9.564 -4.463)" fill="#24285b" stroke="#707070" stroke-width="0.323"/>
      <path id="패스_2143" data-name="패스 2143" d="M73.092,58.315,65.137,45.1l.338-4.858,4.288,2.712,5.673,14.47Z" transform="translate(-3.697 -10.143)" fill="#ffd200" stroke="#707070" stroke-width="0.323"/>
      <path id="패스_2144" data-name="패스 2144" d="M70.961,55.8l.768,1.475,1.18-.617,2.817,5.4,1.572-.819-2.817-5.4,1.18-.613-.768-1.475Z" transform="translate(-2.533 -7.441)" fill="#ffd200" stroke="#707070" stroke-width="0.323"/>
      <path id="패스_2145" data-name="패스 2145" d="M70.961,55.8l.768,1.475,1.18-.617,2.817,5.4,1.572-.819-2.817-5.4,1.18-.613-.768-1.475Z" transform="translate(-2.533 -7.441)" fill="#fff" stroke="#707070" stroke-width="0.323" opacity="0.57"/>
      <path id="패스_2146" data-name="패스 2146" d="M65.418,40.244,74.134,57.43l1.036-.539L69.706,42.956Z" transform="translate(-3.641 -10.143)" stroke="#707070" stroke-width="0.323" opacity="0.08"/>
      <path id="패스_2147" data-name="패스 2147" d="M52.866,69.147,63.033,82.705,60.46,84.013S52.245,73.237,44.829,70.979Z" transform="translate(-7.759 -4.362)" fill="#24285b" stroke="#707070" stroke-width="0.323"/>
      <path id="패스_2148" data-name="패스 2148" d="M72.947,59.516s1.075-2.2,1.991-2.429,2.906,2.67-1,3.714Z" transform="translate(-2.136 -6.777)" fill="#f4a28c" stroke="#707070" stroke-width="0.323"/>
      <path id="패스_2149" data-name="패스 2149" d="M59.651,80.843a2.052,2.052,0,0,0,1.9.776c1.094-.264,1.711.7.842,1.281s-3.741.151-3.741.151L58.223,81.5Z" transform="translate(-5.08 -2.023)" fill="#4e4e4e" stroke="#707070" stroke-width="0.323"/>
      <circle id="타원_48" data-name="타원 48" cx="11.901" cy="11.901" r="11.901" transform="translate(0 12.177)" fill="#e6e6e6" stroke="#707070" stroke-width="0.323" opacity="0.45"/>
      <path id="패스_2150" data-name="패스 2150" d="M30.32,34.07A5.638,5.638,0,1,0,22.4,40.244l.664,3.446,1.638-.314-.5-2.631a5.739,5.739,0,0,0,.819.023l.473,2.456,1.638-.314-.47-2.456a5.86,5.86,0,0,0,.842-.388l.512,2.662,1.638-.314-.675-3.52A5.627,5.627,0,0,0,30.32,34.07Zm-7.454,3.636a2,2,0,0,1-.749-3.9,2,2,0,0,1,.761,3.9Zm4.56-.877a2,2,0,0,1-.749-3.9,2,2,0,0,1,.761,3.9Z" transform="translate(-12.896 -12.293)" fill="#c9c9c9" stroke="#707070" stroke-width="0.323"/>
      <circle id="타원_49" data-name="타원 49" cx="11.901" cy="11.901" r="11.901" transform="translate(96.139 15.871)" fill="#e6e6e6" stroke="#707070" stroke-width="0.323" opacity="0.45"/>
      <path id="패스_2151" data-name="패스 2151" d="M110.792,39.913a5.638,5.638,0,1,0-9.864,1.863l-.97,3.372,1.6.47.757-2.573a5.784,5.784,0,0,0,.714.388l-.722,2.418,1.6.47.7-2.41a5.289,5.289,0,0,0,.924.05l-.776,2.6,1.6.47,1.009-3.438a5.623,5.623,0,0,0,3.419-3.683Zm-8.293-.179a2,2,0,1,1,2.224-1.416,1.873,1.873,0,0,1-2.224,1.416Zm4.443,1.308a2,2,0,1,1,2.227-1.416A1.873,1.873,0,0,1,106.943,41.042Z" transform="translate(3.224 -11.655)" fill="#c9c9c9" stroke="#707070" stroke-width="0.323"/>
      <rect id="사각형_512" data-name="사각형 512" width="21.56" height="7.361" transform="translate(52.926 14.901)" fill="#e6e6e6" stroke="#707070" stroke-width="0.323" opacity="0.45"/>
      <circle id="타원_50" data-name="타원 50" cx="0.99" cy="0.99" r="0.99" transform="translate(55.274 17.575)" fill="#c9c9c9" stroke="#707070" stroke-width="0.323"/>
      <circle id="타원_51" data-name="타원 51" cx="0.99" cy="0.99" r="0.99" transform="translate(58.735 17.575)" fill="#c9c9c9" stroke="#707070" stroke-width="0.323"/>
      <circle id="타원_52" data-name="타원 52" cx="0.99" cy="0.99" r="0.99" transform="translate(62.355 17.575)" fill="#c9c9c9" stroke="#707070" stroke-width="0.323"/>
      <circle id="타원_53" data-name="타원 53" cx="0.99" cy="0.99" r="0.99" transform="translate(65.817 17.575)" fill="#c9c9c9" stroke="#707070" stroke-width="0.323"/>
      <circle id="타원_54" data-name="타원 54" cx="0.99" cy="0.99" r="0.99" transform="translate(69.55 17.575)" fill="#c9c9c9" stroke="#707070" stroke-width="0.323"/>
    </g>
  </g>
</svg>
