<svg xmlns="http://www.w3.org/2000/svg" xmlns:xlink="http://www.w3.org/1999/xlink" width="120" height="120" viewBox="0 0 120 120">
  <defs>
    <clipPath id="clip-path">
      <rect id="사각형_492" data-name="사각형 492" width="120" height="120" transform="translate(783 1707)" fill="#fff" stroke="#707070" stroke-width="1"/>
    </clipPath>
  </defs>
  <g id="_4" data-name="4" transform="translate(-783 -1707)" clip-path="url(#clip-path)">
    <g id="Bitcoin__Two_Color" data-name="Bitcoin _Two Color" transform="translate(783 1724.045)">
      <rect id="사각형_545" data-name="사각형 545" width="44.284" height="38.093" transform="translate(43.832 36.49)" fill="#e6e6e6" stroke="#707070" stroke-width="0.306"/>
      <rect id="사각형_546" data-name="사각형 546" width="31.87" height="27.419" transform="translate(50.037 41.829)" fill="#a5a5a5" stroke="#707070" stroke-width="0.306" opacity="0.51"/>
      <path id="패스_2195" data-name="패스 2195" d="M77.855,76.836l-7.284.125.4-9.871a4,4,0,0,1,3.813-3.831l6.018-.272Z" transform="translate(-1.76 -2.374)" stroke="#707070" stroke-width="0.306" opacity="0.08"/>
      <ellipse id="타원_67" data-name="타원 67" cx="60" cy="6.55" rx="60" ry="6.55" transform="translate(0 72.81)" fill="#e6e6e6" stroke="#707070" stroke-width="0.306" opacity="0.45"/>
      <path id="패스_2196" data-name="패스 2196" d="M76.622,73.629v3.959c0,1.794,4.991,3.259,11.159,3.273s11.166-1.427,11.174-3.222V73.68Z" transform="translate(-0.55 -0.246)" fill="#ffd200" stroke="#707070" stroke-width="0.306"/>
      <path id="패스_2197" data-name="패스 2197" d="M76.622,73.629v3.959c0,1.794,4.991,3.259,11.159,3.273s11.166-1.427,11.174-3.222V73.68Z" transform="translate(-0.55 -0.246)" fill="#fff" stroke="#707070" stroke-width="0.306" opacity="0.46"/>
      <ellipse id="타원_68" data-name="타원 68" cx="3.248" cy="11.166" rx="3.248" ry="11.166" transform="translate(76.068 76.629) rotate(-89.87)" fill="#ffd200" stroke="#707070" stroke-width="0.306"/>
      <path id="패스_2198" data-name="패스 2198" d="M76.631,69.653v3.959c0,1.794,4.994,3.259,11.163,3.273S98.96,75.455,98.968,73.66V69.7Z" transform="translate(-0.548 -1.041)" fill="#ffd200" stroke="#707070" stroke-width="0.306"/>
      <path id="패스_2199" data-name="패스 2199" d="M76.631,69.653v3.959c0,1.794,4.994,3.259,11.163,3.273S98.96,75.455,98.968,73.66V69.7Z" transform="translate(-0.548 -1.041)" fill="#fff" stroke="#707070" stroke-width="0.306" opacity="0.46"/>
      <ellipse id="타원_69" data-name="타원 69" cx="3.248" cy="11.166" rx="3.248" ry="11.166" transform="translate(76.079 71.859) rotate(-89.87)" fill="#ffd200" stroke="#707070" stroke-width="0.306"/>
      <path id="패스_2200" data-name="패스 2200" d="M77.316,65.712v3.959c0,1.794,4.991,3.259,11.159,3.273s11.17-1.427,11.174-3.222V65.763Z" transform="translate(-0.411 -1.829)" fill="#ffd200" stroke="#707070" stroke-width="0.306"/>
      <path id="패스_2201" data-name="패스 2201" d="M77.316,65.712v3.959c0,1.794,4.991,3.259,11.159,3.273s11.17-1.427,11.174-3.222V65.763Z" transform="translate(-0.411 -1.829)" fill="#fff" stroke="#707070" stroke-width="0.306" opacity="0.46"/>
      <ellipse id="타원_70" data-name="타원 70" cx="3.248" cy="11.166" rx="3.248" ry="11.166" transform="translate(76.899 67.129) rotate(-89.87)" fill="#ffd200" stroke="#707070" stroke-width="0.306"/>
      <path id="패스_2202" data-name="패스 2202" d="M76.65,61.733v3.959c0,1.794,4.994,3.262,11.159,3.273s11.17-1.427,11.174-3.222V61.785Z" transform="translate(-0.544 -2.625)" fill="#ffd200" stroke="#707070" stroke-width="0.306"/>
      <path id="패스_2203" data-name="패스 2203" d="M76.65,61.733v3.959c0,1.794,4.994,3.262,11.159,3.273s11.17-1.427,11.174-3.222V61.785Z" transform="translate(-0.544 -2.625)" fill="#fff" stroke="#707070" stroke-width="0.306" opacity="0.46"/>
      <ellipse id="타원_71" data-name="타원 71" cx="3.248" cy="11.166" rx="3.248" ry="11.166" transform="translate(75.871 62.213) rotate(-90)" fill="#ffd200" stroke="#707070" stroke-width="0.306"/>
      <path id="패스_2204" data-name="패스 2204" d="M27,74.776s-3.126-.851-3.805-3.761c0,0,4.84-.976,4.98,4.018Z" transform="translate(-11.235 -0.784)" fill="#4e4e4e" stroke="#707070" stroke-width="0.306" opacity="0.58"/>
      <path id="패스_2205" data-name="패스 2205" d="M26.86,74.992s-2.2-3.453-.261-6.678A5.569,5.569,0,0,1,28.644,75Z" transform="translate(-10.714 -1.309)" fill="#4e4e4e" stroke="#707070" stroke-width="0.306" opacity="0.73"/>
      <path id="패스_2206" data-name="패스 2206" d="M27.154,74.605s1.152-3.647,4.638-4.337c0,0,.653,2.367-2.257,4.345Z" transform="translate(-10.443 -0.918)" fill="#4e4e4e" stroke="#707070" stroke-width="0.306"/>
      <path id="패스_2207" data-name="패스 2207" d="M25.265,73.812l.631,4.334,3.992.018.587-4.33Z" transform="translate(-10.821 -0.209)" fill="#24285b" stroke="#707070" stroke-width="0.306"/>
      <path id="패스_2208" data-name="패스 2208" d="M65.107,41.358s-3.548,4-6.825,7.17-3.967,32.758-3.967,32.758H49.842V62.238l-.521-12.047,1.3-6.113Z" transform="translate(-6.01 -6.7)" stroke="#707070" stroke-width="0.306" opacity="0.08"/>
      <path id="패스_2209" data-name="패스 2209" d="M72.8,58.7a2.5,2.5,0,0,0,1.222-2.587c-.22-1.6-2.128-2.2-3.629-2.3v-2.4H68.928v2.378h-.994V51.41H66.466v2.378H63.482v1.534h1.1c.5,0,.734.143.734.547l.04,6.605c0,.55-.268.734-.565.734h-1.13V64.77h2.877V67.2h1.49V64.767h.994V67.2h1.449V64.767h.316c3.046-.018,4.036-1.516,4.036-3.545A2.638,2.638,0,0,0,72.8,58.7Zm-4.873-3.27h1.057c.734,0,2.2.114,2.2,1.317A1.5,1.5,0,0,1,69.9,58.338H67.941Zm1.688,7.6h-1.64l-.018-3.17h1.9c.444,0,2.117.132,2.125,1.317s-.778,1.857-2.363,1.864Z" transform="translate(-3.178 -4.69)" fill="#fff" stroke="#707070" stroke-width="0.306"/>
      <path id="패스_2210" data-name="패스 2210" d="M51.923,74.632v3.42h3.6l1.827-3.42Z" transform="translate(-5.49 -0.045)" fill="#a5a5a5" stroke="#707070" stroke-width="0.306"/>
      <rect id="사각형_547" data-name="사각형 547" width="18.799" height="2.704" transform="translate(56.272 33.785)" fill="#a5a5a5" stroke="#707070" stroke-width="0.306"/>
      <path id="패스_2211" data-name="패스 2211" d="M47.436,21.78S41.459,25.45,44.7,28.613s5.948-2.466,5.948-2.466l-.169-4.6Z" transform="translate(-7.127 -10.662)" fill="#24285b" stroke="#707070" stroke-width="0.306"/>
      <path id="패스_2212" data-name="패스 2212" d="M50.054,25.4s-4.987-2.128-7.361,3.512c-1.449,3.446,6.84,12.146-2.158,11.4-6.605-.55-8.033-6.723-7.768-9.97a5.244,5.244,0,0,0-2.3-4.866,3.159,3.159,0,0,0-2.117-.569c-2.624.323,1.5,4.069,1.5,4.069s-1.369,18.028,11.258,19.03S53.793,36.516,50.054,25.4Z" transform="translate(-10.379 -9.992)" fill="#f4a28c" stroke="#707070" stroke-width="0.306"/>
      <path id="패스_2213" data-name="패스 2213" d="M47.9,25.286l4.547.818s15.3,5.244,4.334,20.3a21.044,21.044,0,0,0-3.7,8.785h0l-12.047-1.78-.205-2.257a21.6,21.6,0,0,0-2.657-8.807C36.258,38.977,35.319,32.607,47.9,25.286Z" transform="translate(-8.466 -9.914)" fill="#4e4e4e" stroke="#707070" stroke-width="0.306"/>
      <path id="패스_2214" data-name="패스 2214" d="M47.322,18.676a13.1,13.1,0,0,0-.756,3.446,1.068,1.068,0,0,0,1.057,1.1,2.348,2.348,0,0,0,2.242-1.229l1.1-1.622a1.9,1.9,0,0,0-.279-2.2A2.039,2.039,0,0,0,47.322,18.676Z" transform="translate(-6.561 -11.473)" fill="#f4a28c" stroke="#707070" stroke-width="0.306"/>
      <path id="패스_2215" data-name="패스 2215" d="M51.077,31.582s-2.767,2.726-.521,7.809S47.565,47.1,47.565,47.1l-3.17,5.765,7.211,1.068s.734-4.818,2.657-7.2,6.286-4.286,6.286-4.286l-1.281-4.965Z" transform="translate(-6.995 -8.655)" stroke="#707070" stroke-width="0.306" opacity="0.08"/>
      <path id="패스_2216" data-name="패스 2216" d="M50.819,20.121l-.745,6.921-3.783-.683L48.353,21.6Z" transform="translate(-6.616 -10.947)" fill="#f4a28c" stroke="#707070" stroke-width="0.306"/>
      <path id="패스_2217" data-name="패스 2217" d="M48.621,20.533s.231-.785.807-.561.25,1.358-.583,1.244Z" transform="translate(-6.15 -10.985)" fill="#f4a28c" stroke="#707070" stroke-width="0.306"/>
      <path id="패스_2218" data-name="패스 2218" d="M47.017,19.546l-.785.635a.345.345,0,0,0,.066.572l.734.367Z" transform="translate(-6.653 -11.062)" fill="#f4a28c" stroke="#707070" stroke-width="0.306"/>
      <path id="패스_2219" data-name="패스 2219" d="M47.708,22.268a2.506,2.506,0,0,0,1.391-.389,3.983,3.983,0,0,1-2.062,2.062Z" transform="translate(-6.467 -10.596)" fill="#ce8172" stroke="#707070" stroke-width="0.306" opacity="0.31"/>
      <path id="패스_2220" data-name="패스 2220" d="M48.021,15.947a2.044,2.044,0,0,0-.807,3.266,5.684,5.684,0,0,0,1.255,1.071c1.948,1.273-2.91,10.154,2.081,10.667s4.348-2,3.038-4.561-.84-6.124-.947-8.073C52.564,16.912,49.864,15.308,48.021,15.947Z" transform="translate(-6.534 -11.811)" fill="#24285b" stroke="#707070" stroke-width="0.306"/>
      <path id="패스_2221" data-name="패스 2221" d="M51.782,30.787a4.036,4.036,0,0,1,6.058-.965c3.508,2.936,7.732,8.77,8.59,12.572,1.248,5.526-19.371,6.884-19.371,6.884s.616,2.492-2.308,2.866c-1.934.246-.76-1.956.261-3.482a5.662,5.662,0,0,1,2.367-2.007l10.377-4.723S48.391,36.475,51.782,30.787Z" transform="translate(-7.132 -9.2)" fill="#f4a28c" stroke="#707070" stroke-width="0.306"/>
      <circle id="타원_72" data-name="타원 72" cx="8.579" cy="8.579" r="8.579" transform="translate(11.944 2.616)" fill="#ffd200" stroke="#707070" stroke-width="0.306"/>
      <circle id="타원_73" data-name="타원 73" cx="8.579" cy="8.579" r="8.579" transform="translate(11.944 2.616)" fill="#fff" stroke="#707070" stroke-width="0.306" opacity="0.46"/>
      <circle id="타원_74" data-name="타원 74" cx="8.579" cy="8.579" r="8.579" transform="translate(12.025)" fill="#ffd200" stroke="#707070" stroke-width="0.306"/>
      <path id="패스_2222" data-name="패스 2222" d="M33.408,19.65a1.556,1.556,0,0,0,.763-1.615c-.139-.994-1.328-1.361-2.268-1.435V15.1h-.925v1.486h-.624V15.1h-.925v1.468H27.57v.958h.694c.312,0,.462.088.466.341l.026,4.11c0,.341-.169.448-.367.451h-.683V23.4H29.5v1.519h.932V23.4h.62v1.519h.9V23.408h.194c1.9,0,2.528-.947,2.521-2.2A1.644,1.644,0,0,0,33.408,19.65Zm-3.042-2.037h.661c.462,0,1.372.073,1.376.826a.928.928,0,0,1-.8.987H30.377Zm1.053,4.741H30.4V20.377h1.189c.275,0,1.317.084,1.325.822S32.41,22.351,31.419,22.355Z" transform="translate(-10.36 -11.952)" fill="#fff" stroke="#707070" stroke-width="0.306"/>
      <rect id="사각형_548" data-name="사각형 548" width="30.075" height="16.847" transform="translate(66.888 5.886)" fill="#24285b" stroke="#707070" stroke-width="0.306"/>
      <rect id="사각형_549" data-name="사각형 549" width="11.955" height="2.697" transform="translate(71.915 10.432)" fill="#fff" stroke="#707070" stroke-width="0.306"/>
      <path id="패스_2223" data-name="패스 2223" d="M33.493,61.109l8.374,17.485,1.831-.881L39.508,62.243Z" transform="translate(-9.176 -2.75)" fill="#f4a28c" stroke="#707070" stroke-width="0.306"/>
      <path id="패스_2224" data-name="패스 2224" d="M44.395,53.877,46.919,81.3H49.4l1.156-27.426Z" transform="translate(-6.995 -4.196)" fill="#f4a28c" stroke="#707070" stroke-width="0.306"/>
      <rect id="사각형_550" data-name="사각형 550" width="11.955" height="2.697" transform="translate(71.915 15.225)" fill="#fff" stroke="#707070" stroke-width="0.306" opacity="0.49"/>
      <path id="패스_2225" data-name="패스 2225" d="M85.334,21.956h6.128l-3.064,6Z" transform="translate(1.193 -10.58)" fill="#4e4e4e" stroke="#707070" stroke-width="0.306"/>
      <path id="패스_2226" data-name="패스 2226" d="M41.742,48.719,33.493,63.588,52.7,67.206,53.786,50.5Z" transform="translate(-9.176 -5.228)" fill="#24285b" stroke="#707070" stroke-width="0.306"/>
      <path id="패스_2227" data-name="패스 2227" d="M40.449,75.087A3.05,3.05,0,0,1,39.022,77.1c-1.119.5-.5,2.125,1.178,1.079a10.8,10.8,0,0,0,1.468-1.1A4.539,4.539,0,0,1,43.5,76.3a.532.532,0,0,0,.4-.455c.205-.837-1.468-1.765-1.468-1.765Z" transform="translate(-8.183 -0.155)" fill="#4e4e4e" stroke="#707070" stroke-width="0.306"/>
      <path id="패스_2228" data-name="패스 2228" d="M47.039,75.932A3.061,3.061,0,0,1,44.9,77.161c-1.226-.018-1.347,1.717.616,1.468a10.854,10.854,0,0,0,1.8-.367,4.634,4.634,0,0,1,1.993.07.536.536,0,0,0,.554-.246c.536-.675-.338-2.231-.338-2.231Z" transform="translate(-7.074 0.199)" fill="#4e4e4e" stroke="#707070" stroke-width="0.306"/>
    </g>
  </g>
</svg>
