<svg xmlns="http://www.w3.org/2000/svg" xmlns:xlink="http://www.w3.org/1999/xlink" width="120" height="120" viewBox="0 0 120 120">
  <defs>
    <clipPath id="clip-path">
      <rect id="사각형_489" data-name="사각형 489" width="120" height="120" transform="translate(1119 1387)" fill="#fff" stroke="#707070" stroke-width="1"/>
    </clipPath>
  </defs>
  <g id="_5" data-name="5" transform="translate(-1119 -1387)" clip-path="url(#clip-path)">
    <g id="Customer_service_Two_Color" data-name="Customer service_Two Color" transform="translate(1119 1401.358)">
      <rect id="사각형_513" data-name="사각형 513" width="15.581" height="7.829" transform="translate(68.282 36.278)" fill="#e6e6e6"/>
      <circle id="타원_55" data-name="타원 55" cx="3.806" cy="3.806" r="3.806" transform="translate(89.233 0)" fill="#24285b"/>
      <ellipse id="타원_56" data-name="타원 56" cx="60" cy="7.273" rx="60" ry="7.273" transform="translate(0 76.738)" fill="#e6e6e6" opacity="0.45"/>
      <path id="패스_2152" data-name="패스 2152" d="M74.026,78.477a2.168,2.168,0,0,1-1.4,1.637c-1.142.282-1.267,1.461-.179,1.591s3.559-1.633,3.559-1.633l-.43-2.1Z" transform="translate(-1.779 4.149)" fill="#4e4e4e"/>
      <path id="패스_2153" data-name="패스 2153" d="M82.177,78.477a2.159,2.159,0,0,1-1.4,1.637c-1.146.282-1.264,1.461-.179,1.591s3.562-1.633,3.562-1.633l-.415-2.1Z" transform="translate(-0.149 4.149)" fill="#4e4e4e"/>
      <rect id="사각형_514" data-name="사각형 514" width="79.402" height="34.843" transform="translate(16.997 46.44)" fill="#c9c9c9"/>
      <rect id="사각형_515" data-name="사각형 515" width="79.402" height="5.465" transform="translate(16.997 44.107)" fill="#e6e6e6"/>
      <rect id="사각형_516" data-name="사각형 516" width="3.364" height="18.135" transform="translate(88.929 64.567)" fill="#ffd200"/>
      <rect id="사각형_517" data-name="사각형 517" width="3.364" height="18.135" transform="translate(88.929 64.567)" opacity="0.08"/>
      <rect id="사각형_518" data-name="사각형 518" width="4.034" height="31.715" transform="translate(16.997 49.572)" fill="#e6e6e6"/>
      <rect id="사각형_519" data-name="사각형 519" width="16.841" height="31.715" transform="translate(21.028 49.572)" fill="#e6e6e6" opacity="0.61"/>
      <rect id="사각형_520" data-name="사각형 520" width="4.034" height="31.715" transform="translate(92.297 49.572)" fill="#e6e6e6"/>
      <path id="패스_2154" data-name="패스 2154" d="M79.432,46.311l-6.021-.038-7.14,11.075a19.9,19.9,0,0,0-1.142,19.505l3.243,6.637H99.839l.072-14.166.251-21.522Z" transform="translate(-3.497 -2.19)" opacity="0.08"/>
      <path id="패스_2155" data-name="패스 2155" d="M41.658,38.3l-2.166,9.557H51.709l-.5-1.286H46.469l.811-7.931Z" transform="translate(-8.219 -3.785)" fill="#a5a5a5"/>
      <rect id="사각형_521" data-name="사각형 521" width="30.192" height="20.506" transform="translate(20.441 15.772)" fill="#4e4e4e"/>
      <rect id="사각형_522" data-name="사각형 522" width="6.626" height="8.217" transform="translate(23.741 18.809)" fill="#fff" opacity="0.46"/>
      <rect id="사각형_523" data-name="사각형 523" width="15.151" height="8.217" transform="translate(32.183 18.809)" fill="#fff" opacity="0.46"/>
      <rect id="사각형_524" data-name="사각형 524" width="23.589" height="4.521" transform="translate(23.741 28.716)" fill="#fff" opacity="0.46"/>
      <rect id="사각형_525" data-name="사각형 525" width="30.192" height="3.882" transform="translate(20.441 34.512)" fill="#e6e6e6"/>
      <circle id="타원_57" data-name="타원 57" cx="1.123" cy="1.123" r="1.123" transform="translate(35.536 35.193)" fill="#a5a5a5"/>
      <rect id="사각형_526" data-name="사각형 526" width="13.283" height="6.565" transform="translate(22.809 52.03)" fill="#c9c9c9"/>
      <rect id="사각형_527" data-name="사각형 527" width="13.283" height="6.565" transform="translate(22.809 62.287)" fill="#c9c9c9"/>
      <circle id="타원_58" data-name="타원 58" cx="1.005" cy="1.005" r="1.005" transform="translate(28.198 54.436)" fill="#a5a5a5"/>
      <circle id="타원_59" data-name="타원 59" cx="1.005" cy="1.005" r="1.005" transform="translate(28.198 64.563)" fill="#a5a5a5"/>
      <path id="패스_2156" data-name="패스 2156" d="M84.087,59.958s-3.722-24.689,4.948-28.925,22.672-.324,16.293,30.211l-.316,3.395a8.83,8.83,0,0,1-8.792,7.992H78.615a3.018,3.018,0,0,1-1.275-5.755,15.479,15.479,0,0,1,3.151-1.02,4.327,4.327,0,0,0,3.395-3.806Z" transform="translate(-1.001 -5.522)" fill="#ffd200"/>
      <path id="패스_2157" data-name="패스 2157" d="M79.756,52.15,71.5,60.592A11.7,11.7,0,0,0,69.248,73.68L73.9,83.716,76.3,83.13l-2.3-9.012a8.506,8.506,0,0,1,3.92-9.431l9.442-5.568Z" transform="translate(-2.485 -1.014)" fill="#f4a28c"/>
      <path id="패스_2158" data-name="패스 2158" d="M78.346,52.15l19.38,1.142s-.03,6.873-2.341,8.426c-1.279.864-6.029,2.573-10.006,3.924a6.245,6.245,0,0,0-3.924,7.89l3.216,9.6-2.714.719L76.1,72.356a8.133,8.133,0,0,1,2.029-9.93l5.846-4.891Z" transform="translate(-1.075 -1.014)" fill="#f4a28c"/>
      <rect id="사각형_528" data-name="사각형 528" width="11.33" height="8.913" transform="translate(23.578 72.369)" fill="#c9c9c9"/>
      <path id="패스_2159" data-name="패스 2159" d="M88.358,76.045h3.368L97.154,82.1H83.441Z" transform="translate(0.57 3.765)" fill="#ffd200"/>
      <path id="패스_2160" data-name="패스 2160" d="M88.358,76.045h3.368L97.154,82.1H83.441Z" transform="translate(0.57 3.765)" fill="#fff" opacity="0.33"/>
      <path id="패스_2161" data-name="패스 2161" d="M101.011,51.475s2.71,6.744-3.395,10.6-13.138,2.767-13.9,7.288c0,0-15.931-6.36-15.985-6.428s8.518-11.5,15.654-12.5l18.234,1.047" transform="translate(-2.571 -1.359)" fill="#24285b"/>
      <path id="패스_2162" data-name="패스 2162" d="M85.563,21.957s-.251.118-.689.335c-3.163,1.572-17.766,7.7-17.1,13.484.761,6.584,18.984,3.147,18.984,3.147L90,27.635s-12.015,4.643-12.365,3.806l9.134-7.433" transform="translate(-2.568 -7.053)" fill="#4e4e4e"/>
      <path id="패스_2163" data-name="패스 2163" d="M85.563,21.957s-.251.118-.689.335c-3.163,1.572-17.766,7.7-17.1,13.484.761,6.584,18.984,3.147,18.984,3.147L90,27.635s-12.015,4.643-12.365,3.806l9.134-7.433" transform="translate(-2.568 -7.053)" fill="#fff" opacity="0.46"/>
      <path id="패스_2164" data-name="패스 2164" d="M84.46,20.954A1.522,1.522,0,0,1,85,21.4a1.492,1.492,0,0,1,.209,1.324,2.664,2.664,0,0,1-1.054,1.218.88.88,0,0,1-.282.164.662.662,0,0,1-.544-.1,1.69,1.69,0,0,1-.407-.381,1.949,1.949,0,0,1-.282-1.709c.152-.514.578-1.088,1.142-1.1a1.477,1.477,0,0,1,.677.129Z" transform="translate(0.393 -7.28)" fill="#f4a28c"/>
      <path id="패스_2165" data-name="패스 2165" d="M92.6,26.776A8.543,8.543,0,0,1,90.838,21.3l-2.428.434s-.381,4.567-1.439,5.675l.023.023Z" transform="translate(1.276 -7.184)" fill="#f4a28c"/>
      <path id="패스_2166" data-name="패스 2166" d="M92.6,26.776A8.543,8.543,0,0,1,90.838,21.3l-2.428.434s-.381,4.567-1.439,5.675l.023.023Z" transform="translate(1.276 -7.184)" opacity="0.09"/>
      <path id="패스_2167" data-name="패스 2167" d="M86.67,19.31s.084,5.461,2.953,5.652,1.857-5.979,1.857-5.979-.4-3.25-2.093-3.463S85.871,15.443,86.67,19.31Z" transform="translate(1.177 -8.353)" fill="#f4a28c"/>
      <path id="패스_2168" data-name="패스 2168" d="M86.953,19.727s-1.522-.285-1.343.461.03,1.774,1.667,1.142Z" transform="translate(1.001 -7.51)" fill="#f4a28c"/>
      <path id="패스_2169" data-name="패스 2169" d="M90.454,19.082s1.678-.594,1.667.167.061,1.762-1.667,1.461Z" transform="translate(1.973 -7.672)" fill="#f4a28c"/>
      <path id="패스_2170" data-name="패스 2170" d="M86.7,20.623a.381.381,0,0,0,.362.065.78.78,0,0,0,.381-.381,4.049,4.049,0,0,0,.5-2.47,5.58,5.58,0,0,0,.974,1.6,2.409,2.409,0,0,0,1.621.822c1.865.049,1.591-2.036,1.359-3.284a3.311,3.311,0,0,0-1.142-2.249,1.522,1.522,0,0,0-1.012-.236c-.453,0-.891-.133-1.347-.11a2.4,2.4,0,0,0-1.439.525,2.9,2.9,0,0,0-.727,1.077,5.355,5.355,0,0,0,.057,4.08,1.393,1.393,0,0,0,.415.563Z" transform="translate(1.052 -8.569)" fill="#24285b"/>
      <path id="패스_2171" data-name="패스 2171" d="M100.713,44.883c-1.142,3.947-2.447,7.848-3.532,10.87-6.554.19-15.84,2-16.03-.156-.107-1.168,1.5-1.062,1.039-2.664-.27-.955-1.305-5.511-1.762-6.584a16.428,16.428,0,0,1,1.716-15.867c4.685-6.245,13.465-6.763,19.41-3.425C104.465,28.67,102.989,36.887,100.713,44.883Z" transform="translate(-0.29 -6.44)" fill="#4e4e4e"/>
      <path id="패스_2172" data-name="패스 2172" d="M87.75,25.715c-.285.19-3.874,8.483-1.77,19.227,0,0,3.079-14.687,6.181-20.027A13.621,13.621,0,0,0,87.75,25.715Z" transform="translate(0.946 -6.461)" fill="#fff"/>
      <path id="패스_2173" data-name="패스 2173" d="M101.317,46.5,99.19,54.95l-2.344.2-16.023,1.37c-.107-1.165,1.5-2.588,1.031-4.206,5.774-.982,12.712-2.5,10.131-10.112a15.969,15.969,0,0,1,1.522-14.177l6.877,16.255Z" transform="translate(0.045 -5.839)" opacity="0.08"/>
      <path id="패스_2174" data-name="패스 2174" d="M92.9,29.5a4.411,4.411,0,0,1,5.423-3.734c3.395.845,7.657,3.513,8.293,11.517,1.085,13.583-2.763,20-2.763,20H82.594v-2.7l14.771-1.8S91.732,38.848,92.9,29.5Z" transform="translate(0.401 -6.315)" fill="#4e4e4e"/>
      <path id="패스_2175" data-name="패스 2175" d="M92.9,29.5a4.411,4.411,0,0,1,5.423-3.734c3.395.845,7.657,3.513,8.293,11.517,1.085,13.583-2.763,20-2.763,20H82.594v-2.7l14.771-1.8S91.732,38.848,92.9,29.5Z" transform="translate(0.401 -6.315)" fill="#fff" opacity="0.46"/>
      <path id="패스_2176" data-name="패스 2176" d="M87.127,26.978s-1.705.312-2.325-.609-1.351-5.739-1.423-6.223,1.218-2.082,1.656-1.774,1.279,2.013.936,2.348a7.44,7.44,0,0,1-1.168.8s.259,2.847.826,3.258,1.5-.282,1.808.247S87.987,26.906,87.127,26.978Z" transform="translate(0.557 -7.778)" fill="#ffd200"/>
      <path id="패스_2177" data-name="패스 2177" d="M89.377,24.887a53.647,53.647,0,0,0,.814,8.293c.293,2.1.67,4.864-.251,6.851-.381.761-1.366,1.5-2.006.925a1.027,1.027,0,0,1,.381-1.595,1.606,1.606,0,0,1,1.747.563,4.03,4.03,0,0,1,.723,1.8,9.9,9.9,0,0,1,.1,4.076A5.237,5.237,0,0,1,88.7,49.142a1.964,1.964,0,0,1-1.161.358.963.963,0,0,1-.891-.723.993.993,0,0,1,.16-.681,1.9,1.9,0,0,1,2.862-.171,2.809,2.809,0,0,1,.358,3.09,5.625,5.625,0,0,1-2.284,2.31c-1.72,1.039-4.91,2.344-6.957,1.846A5.911,5.911,0,0,1,78.4,53.69c-.613-.537-1.218-1.085-1.815-1.637s-1.241-1.142-1.9-1.686a15.6,15.6,0,0,0-7.9-3.3" transform="translate(-2.762 -6.467)" fill="none" stroke="#24285b" stroke-miterlimit="10" stroke-width="0.317"/>
      <path id="패스_2178" data-name="패스 2178" d="M69.428,47.106H59.141l.982-4.879h8.32Z" transform="translate(-4.29 -2.999)" fill="#ffd200"/>
      <rect id="사각형_529" data-name="사각형 529" width="1.446" height="1.446" transform="translate(56.841 37.781)" fill="#ffd200"/>
      <rect id="사각형_530" data-name="사각형 530" width="1.446" height="1.446" transform="translate(61.697 37.781)" fill="#ffd200"/>
      <path id="패스_2179" data-name="패스 2179" d="M83.721,50.188s-7.992-2.318-7.041,2.2h7.041Z" transform="translate(-0.798 -1.526)" fill="#f4a28c"/>
      <rect id="사각형_531" data-name="사각형 531" width="21.385" height="12.898" rx="5.373" transform="translate(55.547 0.004)" fill="#e6e6e6"/>
      <path id="패스_2180" data-name="패스 2180" d="M71.887,19.963a6,6,0,0,0,6.055,1.956s-3.585.1-4.6-3.045Z" transform="translate(-1.741 -7.67)" fill="#e6e6e6"/>
      <circle id="타원_60" data-name="타원 60" cx="1.267" cy="1.267" r="1.267" transform="translate(60.708 5.184)" opacity="0.08"/>
      <circle id="타원_61" data-name="타원 61" cx="1.267" cy="1.267" r="1.267" transform="translate(64.97 5.184)" opacity="0.08"/>
      <circle id="타원_62" data-name="타원 62" cx="1.267" cy="1.267" r="1.267" transform="translate(69.237 5.184)" opacity="0.08"/>
    </g>
  </g>
</svg>
