<svg xmlns="http://www.w3.org/2000/svg" xmlns:xlink="http://www.w3.org/1999/xlink" width="120" height="120" viewBox="0 0 120 120">
  <defs>
    <clipPath id="clip-path">
      <rect id="사각형_490" data-name="사각형 490" width="120" height="120" transform="translate(1399 1387)" fill="#fff"/>
    </clipPath>
  </defs>
  <g id="_6" data-name="6" transform="translate(-1399 -1387)" clip-path="url(#clip-path)">
    <g id="Bitcoin__Two_Color_1_" data-name="Bitcoin _Two Color (1)" transform="translate(1399 1409.839)">
      <rect id="사각형_554" data-name="사각형 554" width="78.976" height="55.649" transform="translate(20.207 6.834)" fill="#4e4e4e"/>
      <rect id="사각형_555" data-name="사각형 555" width="78.976" height="55.649" transform="translate(20.207 6.834)" fill="#fff" opacity="0.46"/>
      <rect id="사각형_556" data-name="사각형 556" width="66.928" height="43.262" transform="translate(26.229 12.796)" fill="#24285b"/>
      <ellipse id="타원_79" data-name="타원 79" cx="60" cy="4.338" rx="60" ry="4.338" transform="translate(0 65.646)" fill="#e6e6e6" opacity="0.45"/>
      <circle id="타원_80" data-name="타원 80" cx="12.568" cy="12.568" r="12.568" transform="translate(46.58 22.565)" fill="#ffd200"/>
      <circle id="타원_81" data-name="타원 81" cx="12.568" cy="12.568" r="12.568" transform="translate(46.58 22.565)" fill="#fff" opacity="0.46"/>
      <circle id="타원_82" data-name="타원 82" cx="12.568" cy="12.568" r="12.568" transform="translate(46.698 18.734)" fill="#ffd200"/>
      <path id="패스_2243" data-name="패스 2243" d="M61.359,37.957a2.281,2.281,0,0,0,1.117-2.369c-.2-1.456-1.946-2.013-3.318-2.1v-2.2H57.816v2.174h-.909V31.288H55.565v2.177H52.838v1.4h1.006c.456,0,.671.131.671.5l.037,6.039c0,.5-.245.671-.517.671H53v1.433l2.63-.017v2.224H57l-.017-2.224h.909v2.221h1.342V43.486h.292c2.781-.02,3.69-1.389,3.69-3.244a2.409,2.409,0,0,0-1.855-2.285ZM56.9,34.968h.966c.671,0,2.013.1,2.013,1.2A1.365,1.365,0,0,1,58.7,37.622H56.914Zm1.543,6.951h-1.5l-.017-2.9h1.738c.406,0,1.936.124,1.943,1.2s-.725,1.688-2.164,1.7Z" transform="translate(1.486 -7.944)" fill="#fff"/>
      <path id="패스_2244" data-name="패스 2244" d="M19.982,61.678H109.4v2.946a7.324,7.324,0,0,1-7.324,7.324H27.305a7.324,7.324,0,0,1-7.324-7.324Z" transform="translate(-5.086 -1.866)" fill="#4e4e4e"/>
      <path id="패스_2245" data-name="패스 2245" d="M44.175,61.678h29.3A4.127,4.127,0,0,1,69.344,65.8H48.292a4.127,4.127,0,0,1-4.127-4.127h.01Z" transform="translate(-0.249 -1.866)" opacity="0.08"/>
      <rect id="사각형_557" data-name="사각형 557" width="29.238" height="25.142" transform="translate(11.699 17.768)" fill="#e6e6e6"/>
      <rect id="사각형_558" data-name="사각형 558" width="34.663" height="26.622" transform="translate(79.083 0)" fill="#e6e6e6"/>
      <path id="패스_2246" data-name="패스 2246" d="M24.871,36.625h0a3.137,3.137,0,0,1,3.137,3.137v1.168H21.735V39.762A3.137,3.137,0,0,1,24.871,36.625Z" transform="translate(-4.735 -6.877)" fill="#a5a5a5"/>
      <circle id="타원_83" data-name="타원 83" cx="2.258" cy="2.258" r="2.258" transform="translate(17.879 25.501)" fill="#a5a5a5"/>
      <path id="패스_2247" data-name="패스 2247" d="M34.8,36.625h0a3.137,3.137,0,0,1,3.137,3.137v1.168H31.665V39.762A3.137,3.137,0,0,1,34.8,36.625Z" transform="translate(-2.749 -6.877)" fill="#a5a5a5"/>
      <circle id="타원_84" data-name="타원 84" cx="2.258" cy="2.258" r="2.258" transform="translate(29.795 25.501)" fill="#a5a5a5"/>
      <rect id="사각형_559" data-name="사각형 559" width="18.368" height="1.885" transform="translate(17 36.458)" fill="#a5a5a5" opacity="0.39"/>
      <circle id="타원_85" data-name="타원 85" cx="0.986" cy="0.986" r="0.986" transform="translate(13.822 19.61)" fill="#24285b"/>
      <circle id="타원_86" data-name="타원 86" cx="0.986" cy="0.986" r="0.986" transform="translate(16.563 19.61)" fill="#ffd200"/>
      <circle id="타원_87" data-name="타원 87" cx="0.986" cy="0.986" r="0.986" transform="translate(19.365 19.61)" fill="#4e4e4e"/>
      <circle id="타원_88" data-name="타원 88" cx="0.986" cy="0.986" r="0.986" transform="translate(81.291 1.922)" fill="#24285b"/>
      <circle id="타원_89" data-name="타원 89" cx="0.986" cy="0.986" r="0.986" transform="translate(84.032 1.922)" fill="#ffd200"/>
      <circle id="타원_90" data-name="타원 90" cx="0.986" cy="0.986" r="0.986" transform="translate(86.833 1.922)" fill="#4e4e4e"/>
      <rect id="사각형_560" data-name="사각형 560" width="5.697" height="5.697" transform="translate(85.018 15.886)" fill="#a5a5a5" opacity="0.49"/>
      <rect id="사각형_561" data-name="사각형 561" width="5.697" height="8.27" transform="translate(93.583 13.309)" fill="#a5a5a5" opacity="0.67"/>
      <rect id="사각형_562" data-name="사각형 562" width="5.697" height="12.548" transform="translate(101.806 9.032)" fill="#a5a5a5"/>
      <path id="패스_2248" data-name="패스 2248" d="M80.3,25.015l5.056-5.653,4.1,3.342,4.808-7.626,3.415,2.942" transform="translate(6.978 -11.186)" fill="none" stroke="#a5a5a5" stroke-miterlimit="10" stroke-width="0.559"/>
      <rect id="사각형_563" data-name="사각형 563" width="14.805" height="4.341" transform="translate(74 47.52)" fill="#fff" opacity="0.13"/>
      <path id="패스_2249" data-name="패스 2249" d="M14.058,66.775a5.143,5.143,0,0,1-3.479-3.439s4.429-.892,4.553,3.674Z" transform="translate(-6.966 -1.548)" fill="#4e4e4e" opacity="0.58"/>
      <path id="패스_2250" data-name="패스 2250" d="M13.929,66.973s-1.993-3.157-.238-6.106a5.1,5.1,0,0,1,1.872,6.113Z" transform="translate(-6.488 -2.028)" fill="#4e4e4e" opacity="0.73"/>
      <path id="패스_2251" data-name="패스 2251" d="M14.2,66.619s1.053-3.328,4.241-3.966c0,0,.6,2.164-2.063,3.972Z" transform="translate(-6.242 -1.671)" fill="#4e4e4e"/>
      <path id="패스_2252" data-name="패스 2252" d="M12.472,65.894l.58,3.962,3.647.017.537-3.959Z" transform="translate(-6.587 -1.023)" fill="#24285b"/>
      <path id="패스_2253" data-name="패스 2253" d="M28.154,38.021h2.912L29.61,35.149Z" transform="translate(-3.451 -7.172)" fill="#fff"/>
    </g>
  </g>
</svg>
