<svg xmlns="http://www.w3.org/2000/svg" xmlns:xlink="http://www.w3.org/1999/xlink" width="120" height="120" viewBox="0 0 120 120">
  <defs>
    <clipPath id="clip-path">
      <rect id="사각형_493" data-name="사각형 493" width="120" height="120" transform="translate(1119 1707)" fill="#fff"/>
    </clipPath>
  </defs>
  <g id="_7" data-name="7" transform="translate(-1119 -1707)" clip-path="url(#clip-path)">
    <g id="Order_Confirmed_Two_Color" data-name="Order Confirmed_Two Color" transform="translate(1121.513 1707)">
      <rect id="사각형_551" data-name="사각형 551" width="81.353" height="100.597" transform="translate(33.621 0)" fill="#e6e6e6"/>
      <rect id="사각형_552" data-name="사각형 552" width="38.086" height="14.308" transform="translate(55.135 73.725)" fill="#ffd200"/>
      <path id="패스_2229" data-name="패스 2229" d="M76.454,47.736s8.189,1.23,6.731,6.828a19.712,19.712,0,0,1-5.559,9.087V76.232L89.607,89.8l3.952-8.006,11.1,5.147s-8.469,20.244-6.428,27.981H83.185L69.5,84.4,71.05,58.1Z" transform="translate(-39.751 -14.311)" opacity="0.09"/>
      <path id="패스_2230" data-name="패스 2230" d="M93.836,79.956s6.519.944,2.625,7.76-6.811,28.313-18.4,23.109Z" transform="translate(-38.038 -7.867)" fill="#f4a28c"/>
      <path id="패스_2231" data-name="패스 2231" d="M93.836,79.956s6.519.944,2.625,7.76-6.811,28.313-18.4,23.109Z" transform="translate(-38.038 -7.867)" opacity="0.09"/>
      <path id="패스_2232" data-name="패스 2232" d="M70.865,50.877,67.051,64.339l7.571,1.573L74.36,55.48Z" transform="translate(-40.241 -13.683)" fill="#f4a28c"/>
      <path id="패스_2233" data-name="패스 2233" d="M73.652,56.91a5.067,5.067,0,0,1-2.287-1.773,8.026,8.026,0,0,0,2.287,5.4Z" transform="translate(-39.379 -12.831)" fill="#ce8172" opacity="0.31"/>
      <path id="패스_2234" data-name="패스 2234" d="M78.106,51.894a26.507,26.507,0,0,1-1.578,6.92,2.15,2.15,0,0,1-2.859,1.064,4.738,4.738,0,0,1-3.025-4.157l-.589-3.9a3.837,3.837,0,0,1,2.385-3.74C75.1,46.8,78.472,49.315,78.106,51.894Z" transform="translate(-39.641 -14.311)" fill="#f4a28c"/>
      <path id="패스_2235" data-name="패스 2235" d="M73.707,62.719l4,.823s16.47,9.722,15.886,22.3-8.618,27.307-8.618,27.307H56.957S37.623,67.792,73.707,62.719Z" transform="translate(-43.294 -11.314)" fill="#4e4e4e"/>
      <rect id="사각형_553" data-name="사각형 553" width="8.372" height="15.143" transform="matrix(0.928, 0.372, -0.372, 0.928, 51.152, 64.034)" fill="#ffd200"/>
      <path id="패스_2236" data-name="패스 2236" d="M69.313,69.642s8.887,2.35,9.03,13.885-.875,19.129,8.326,18.4L63.52,111.771H56.852a65.869,65.869,0,0,1-4.746-19.924C51.483,81.337,62.468,68.024,69.313,69.642Z" transform="translate(-43.235 -9.957)" opacity="0.09"/>
      <path id="패스_2237" data-name="패스 2237" d="M56.247,104.727l-1.138,18.185,36.353-1.024-7.183-17.162Z" transform="translate(-42.629 -2.913)" fill="#24285b"/>
      <path id="패스_2238" data-name="패스 2238" d="M72.851,53.827s.257-1.624-.984-1.716-1.618,2.253,0,2.768Z" transform="translate(-39.493 -13.436)" fill="#f4a28c"/>
      <path id="패스_2239" data-name="패스 2239" d="M61.821,67.993s7.131-1.424,9.659,6.256.046,29.291,5.4,31.172S93.657,88.414,93.657,88.414s-.109-6.148,4.06-7.9,1.538,7.463-.658,9.659-8.012,27.209-25.036,26.677S48,74.364,61.821,67.993Z" transform="translate(-42.754 -10.28)" fill="#f4a28c"/>
      <path id="패스_2240" data-name="패스 2240" d="M76.677,53.426l.9,1.824a.686.686,0,0,1-.606.984H75.31Z" transform="translate(-38.589 -13.173)" fill="#f4a28c"/>
      <path id="패스_2241" data-name="패스 2241" d="M83.2,47.136s4.157,4.889-1.224,5.913-6.491,1.99-5.97,7.434,2.642,10.459-4.489,13.879-1.006,9.15-2.287,15.835-7.594,11.311-15.623,6.754S40.61,80.7,49.228,73.7s19.443-8.687,19.443-19.97S77.638,41.88,83.2,47.136Z" transform="translate(-44.709 -15.071)" fill="#24285b"/>
      <circle id="타원_75" data-name="타원 75" cx="18.494" cy="18.494" r="18.494" transform="translate(55.283 24.253)" fill="#4e4e4e"/>
      <circle id="타원_76" data-name="타원 76" cx="2.945" cy="2.945" r="2.945" transform="translate(40.918 5.982)" fill="#ffd200"/>
      <circle id="타원_77" data-name="타원 77" cx="2.945" cy="2.945" r="2.945" transform="translate(49.221 5.982)" fill="#4e4e4e"/>
      <circle id="타원_78" data-name="타원 78" cx="2.945" cy="2.945" r="2.945" transform="translate(57.165 5.982)" fill="#24285b"/>
      <path id="패스_2242" data-name="패스 2242" d="M99.643,56.666l5.69,7.554,9.2-14.525" transform="translate(-33.723 -13.919)" fill="none" stroke="#fff" stroke-linecap="round" stroke-linejoin="round" stroke-width="3.336"/>
    </g>
  </g>
</svg>
