<svg xmlns="http://www.w3.org/2000/svg" xmlns:xlink="http://www.w3.org/1999/xlink" width="120" height="120" viewBox="0 0 120 120">
  <defs>
    <clipPath id="clip-path">
      <rect id="사각형_494" data-name="사각형 494" width="120" height="120" transform="translate(1399 1707)" fill="#fff"/>
    </clipPath>
  </defs>
  <g id="_8" data-name="8" transform="translate(-1399 -1707)" clip-path="url(#clip-path)">
    <g id="Coins_Two_Color" data-name="Coins_Two Color" transform="translate(1399 1724.875)">
      <path id="패스_2254" data-name="패스 2254" d="M41.976,54.477s-9.411-2.553-11.462-11.33c0,0,14.589-2.949,15,12.1Z" transform="translate(-18.992 -13.114)" fill="#4e4e4e" opacity="0.58"/>
      <path id="패스_2255" data-name="패스 2255" d="M41.558,55.119S34.981,44.721,40.767,35c0,0,11.092,7.046,6.165,20.142Z" transform="translate(-17.417 -14.697)" fill="#4e4e4e" opacity="0.73"/>
      <path id="패스_2256" data-name="패스 2256" d="M42.441,53.943s3.476-10.981,13.981-13.062c0,0,1.97,7.131-6.808,13.092Z" transform="translate(-16.606 -13.52)" fill="#4e4e4e"/>
      <path id="패스_2257" data-name="패스 2257" d="M36.75,51.574l1.91,13.053,12.02.051,1.77-13.041Z" transform="translate(-17.744 -11.382)" fill="#24285b"/>
      <path id="패스_2258" data-name="패스 2258" d="M95.413,37.49s7.327,13.87,9.058,28.668-2.812,25.018-27.864,23.329S45.492,77.519,50.079,63.87,74.7,33.793,74.7,33.793Z" transform="translate(-15.36 -14.938)" fill="#24285b"/>
      <path id="패스_2259" data-name="패스 2259" d="M91.713,40.551s12.845-8.084,9.467-13.921-11.59-4.45-15.849-6.544S58.237,14.291,71.005,36.862Z" transform="translate(-11.661 -17.999)" fill="#24285b"/>
      <path id="패스_2260" data-name="패스 2260" d="M90.123,34.488S77.2,32.042,66.335,32.42" transform="translate(-11.827 -15.22)" fill="none" stroke="#ffd200" stroke-linecap="round" stroke-linejoin="round" stroke-width="1.064"/>
      <path id="패스_2261" data-name="패스 2261" d="M72.418,35.4s-5.3-15.317-13.658-8.144S71.9,35.4,71.9,35.4h0S50.753,40.486,60.7,48.91,72.418,35.4,72.418,35.4Z" transform="translate(-13.728 -16.627)" fill="none" stroke="#ffd200" stroke-linecap="round" stroke-linejoin="round" stroke-width="1.064"/>
      <path id="패스_2262" data-name="패스 2262" d="M101.238,26.431s2.442,4.646-2.761,5.276S89,27.554,84.862,28.618s-16.168,3-17.7-2.71,5.812-8.42,10.692-7.718S99.9,20.985,101.238,26.431Z" transform="translate(-11.702 -18.08)" fill="#4e4e4e"/>
      <ellipse id="타원_91" data-name="타원 91" cx="60" cy="8.726" rx="60" ry="8.726" transform="translate(0 66.797)" fill="#e6e6e6" opacity="0.45"/>
      <path id="패스_2263" data-name="패스 2263" d="M90.447,70.823v5.212c0,2.361-6.586,4.255-14.7,4.255s-14.7-1.936-14.692-4.3V70.781Z" transform="translate(-12.884 -7.54)" fill="#ffd200"/>
      <path id="패스_2264" data-name="패스 2264" d="M90.44,76.062v5.208c0,2.361-6.586,4.255-14.7,4.255s-14.7-1.94-14.692-4.3V76.01Z" transform="translate(-12.885 -6.494)" fill="#ffd200"/>
      <path id="패스_2265" data-name="패스 2265" d="M90.44,76.062v5.208c0,2.361-6.586,4.255-14.7,4.255s-14.7-1.94-14.692-4.3V76.01Z" transform="translate(-12.885 -6.494)" opacity="0.08"/>
      <ellipse id="타원_92" data-name="타원 92" cx="4.238" cy="14.564" rx="4.238" ry="14.564" transform="translate(48.144 73.586) rotate(-89.9)" fill="#ffd200"/>
      <path id="패스_2266" data-name="패스 2266" d="M90.447,70.823v5.212c0,2.361-6.586,4.255-14.7,4.255s-14.7-1.936-14.692-4.3V70.781Z" transform="translate(-12.884 -7.54)" opacity="0.08"/>
      <path id="패스_2267" data-name="패스 2267" d="M89.565,65.633v5.212c0,2.361-6.586,4.255-14.7,4.255s-14.7-1.936-14.692-4.3V65.59Z" transform="translate(-13.061 -8.579)" fill="#ffd200"/>
      <path id="패스_2268" data-name="패스 2268" d="M90.466,60.4v5.212c0,2.361-6.591,4.255-14.709,4.255s-14.692-1.94-14.692-4.3V60.357Z" transform="translate(-12.881 -9.625)" fill="#ffd200"/>
      <ellipse id="타원_93" data-name="타원 93" cx="4.238" cy="14.564" rx="4.238" ry="14.564" transform="translate(48.152 67.363) rotate(-89.9)" fill="#ffd200"/>
      <path id="패스_2269" data-name="패스 2269" d="M89.565,65.633v5.212c0,2.361-6.586,4.255-14.7,4.255s-14.7-1.936-14.692-4.3V65.59Z" transform="translate(-13.061 -8.579)" opacity="0.08"/>
      <ellipse id="타원_94" data-name="타원 94" cx="4.238" cy="14.564" rx="4.238" ry="14.564" transform="translate(47.108 61.191) rotate(-89.9)" fill="#ffd200"/>
      <path id="패스_2270" data-name="패스 2270" d="M90.466,60.4v5.212c0,2.361-6.591,4.255-14.709,4.255s-14.692-1.94-14.692-4.3V60.357Z" transform="translate(-12.881 -9.625)" opacity="0.08"/>
      <ellipse id="타원_95" data-name="타원 95" cx="4.238" cy="14.704" rx="4.238" ry="14.704" transform="translate(48.174 54.968) rotate(-89.9)" fill="#ffd200"/>
      <path id="패스_2271" data-name="패스 2271" d="M119.486,69.946v5.833c0,2.642-7.373,4.774-16.462,4.757s-16.449-2.17-16.444-4.812V69.891Z" transform="translate(-7.778 -7.718)" fill="#ffd200"/>
      <path id="패스_2272" data-name="패스 2272" d="M119.479,75.8v5.833c0,2.642-7.373,4.774-16.457,4.757s-16.453-2.17-16.449-4.812V75.748Z" transform="translate(-7.78 -6.547)" fill="#ffd200"/>
      <path id="패스_2273" data-name="패스 2273" d="M119.479,75.8v5.833c0,2.642-7.373,4.774-16.457,4.757s-16.453-2.17-16.449-4.812V75.748Z" transform="translate(-7.78 -6.547)" opacity="0.08"/>
      <ellipse id="타원_96" data-name="타원 96" cx="4.744" cy="16.3" rx="4.744" ry="16.3" transform="translate(78.782 73.752) rotate(-89.9)" fill="#ffd200"/>
      <path id="패스_2274" data-name="패스 2274" d="M119.486,69.946v5.833c0,2.642-7.373,4.774-16.462,4.757s-16.449-2.17-16.444-4.812V69.891Z" transform="translate(-7.778 -7.718)" opacity="0.08"/>
      <path id="패스_2275" data-name="패스 2275" d="M118.5,64.135v5.833c0,2.642-7.378,4.774-16.461,4.757s-16.449-2.17-16.444-4.812V64.08Z" transform="translate(-7.975 -8.881)" fill="#ffd200"/>
      <path id="패스_2276" data-name="패스 2276" d="M119.507,58.278v5.833c0,2.642-7.378,4.774-16.461,4.761S86.6,66.7,86.6,64.055V58.222Z" transform="translate(-7.774 -10.052)" fill="#ffd200"/>
      <ellipse id="타원_97" data-name="타원 97" cx="4.744" cy="16.3" rx="4.744" ry="16.3" transform="translate(78.795 66.792) rotate(-89.9)" fill="#ffd200"/>
      <path id="패스_2277" data-name="패스 2277" d="M118.5,64.135v5.833c0,2.642-7.378,4.774-16.461,4.757s-16.449-2.17-16.444-4.812V64.08Z" transform="translate(-7.975 -8.881)" opacity="0.08"/>
      <ellipse id="타원_98" data-name="타원 98" cx="4.744" cy="16.3" rx="4.744" ry="16.3" transform="translate(77.619 59.883) rotate(-89.9)" fill="#ffd200"/>
      <path id="패스_2278" data-name="패스 2278" d="M119.507,58.278v5.833c0,2.642-7.378,4.774-16.461,4.761S86.6,66.7,86.6,64.055V58.222Z" transform="translate(-7.774 -10.052)" opacity="0.08"/>
      <ellipse id="타원_99" data-name="타원 99" cx="4.744" cy="16.457" rx="4.744" ry="16.457" transform="translate(78.821 52.918) rotate(-89.9)" fill="#ffd200"/>
      <path id="패스_2279" data-name="패스 2279" d="M90,52.083v5.833c0,2.646,7.373,4.774,16.461,4.761s16.449-2.17,16.444-4.816V52.028Z" transform="translate(-7.095 -11.291)" fill="#ffd200"/>
      <path id="패스_2280" data-name="패스 2280" d="M88.994,46.23v5.833c0,2.642,7.373,4.774,16.462,4.757S121.9,54.65,121.9,52.008V46.171Z" transform="translate(-7.295 -12.462)" fill="#ffd200"/>
      <path id="패스_2281" data-name="패스 2281" d="M90,52.083v5.833c0,2.646,7.373,4.774,16.461,4.761s16.449-2.17,16.444-4.816V52.028Z" transform="translate(-7.095 -11.291)" opacity="0.08"/>
      <ellipse id="타원_100" data-name="타원 100" cx="16.3" cy="4.744" rx="16.3" ry="4.744" transform="translate(83.2 35.974) rotate(-0.1)" fill="#ffd200"/>
      <path id="패스_2282" data-name="패스 2282" d="M88.994,46.23v5.833c0,2.642,7.373,4.774,16.462,4.757S121.9,54.65,121.9,52.008V46.171Z" transform="translate(-7.295 -12.462)" opacity="0.08"/>
      <ellipse id="타원_101" data-name="타원 101" cx="16.457" cy="4.744" rx="16.457" ry="4.744" transform="translate(81.69 29.016) rotate(-0.1)" fill="#ffd200"/>
      <path id="패스_2283" data-name="패스 2283" d="M64.346,69.581v5.833c0,2.642-7.373,4.774-16.461,4.761S31.406,78,31.41,75.359V69.526Z" transform="translate(-18.812 -7.791)" fill="#ffd200"/>
      <path id="패스_2284" data-name="패스 2284" d="M64.316,75.438v5.833c0,2.646-7.373,4.774-16.457,4.761s-16.449-2.17-16.444-4.816V75.383Z" transform="translate(-18.812 -6.62)" fill="#ffd200"/>
      <path id="패스_2285" data-name="패스 2285" d="M64.316,75.438v5.833c0,2.646-7.373,4.774-16.457,4.761s-16.449-2.17-16.444-4.816V75.383Z" transform="translate(-18.812 -6.62)" opacity="0.08"/>
      <ellipse id="타원_102" data-name="타원 102" cx="4.744" cy="16.3" rx="4.744" ry="16.3" transform="translate(12.582 73.317) rotate(-89.9)" fill="#ffd200"/>
      <path id="패스_2286" data-name="패스 2286" d="M64.346,69.581v5.833c0,2.642-7.373,4.774-16.461,4.761S31.406,78,31.41,75.359V69.526Z" transform="translate(-18.812 -7.791)" opacity="0.08"/>
      <path id="패스_2287" data-name="패스 2287" d="M63.338,63.77V69.6c0,2.646-7.373,4.774-16.461,4.761s-16.449-2.17-16.444-4.816V63.714Z" transform="translate(-19.008 -8.954)" fill="#ffd200"/>
      <path id="패스_2288" data-name="패스 2288" d="M64.341,57.918v5.82c0,2.642-7.373,4.774-16.462,4.757s-16.449-2.17-16.444-4.812V57.85Z" transform="translate(-18.807 -10.127)" fill="#ffd200"/>
      <ellipse id="타원_103" data-name="타원 103" cx="4.744" cy="16.3" rx="4.744" ry="16.3" transform="translate(12.595 66.357) rotate(-89.9)" fill="#ffd200"/>
      <path id="패스_2289" data-name="패스 2289" d="M63.338,63.77V69.6c0,2.646-7.373,4.774-16.461,4.761s-16.449-2.17-16.444-4.816V63.714Z" transform="translate(-19.008 -8.954)" opacity="0.08"/>
      <ellipse id="타원_104" data-name="타원 104" cx="4.744" cy="16.3" rx="4.744" ry="16.3" transform="translate(11.423 59.444) rotate(-89.9)" fill="#ffd200"/>
      <path id="패스_2290" data-name="패스 2290" d="M64.341,57.918v5.82c0,2.642-7.373,4.774-16.462,4.757s-16.449-2.17-16.444-4.812V57.85Z" transform="translate(-18.807 -10.127)" opacity="0.08"/>
      <circle id="타원_105" data-name="타원 105" cx="12.215" cy="12.215" r="12.215" transform="translate(32.672 56.075)" opacity="0.08"/>
      <path id="패스_2291" data-name="패스 2291" d="M53.376,64.8s-12.79,3.9-10.735,23.265c0,0,8.335.281,12.292-.736C58.473,86.422,53.376,64.8,53.376,64.8Z" transform="translate(-16.611 -8.737)" opacity="0.08"/>
      <ellipse id="타원_106" data-name="타원 106" cx="4.744" cy="16.457" rx="4.744" ry="16.457" transform="translate(12.617 52.484) rotate(-89.9)" fill="#ffd200"/>
      <circle id="타원_107" data-name="타원 107" cx="12.215" cy="12.215" r="12.215" transform="translate(32.672 56.075)" fill="#ffd200"/>
      <g id="그룹_1672" data-name="그룹 1672" transform="translate(33.268 52.395)" opacity="0.08">
        <circle id="타원_108" data-name="타원 108" cx="12.215" cy="12.215" r="12.215"/>
      </g>
      <circle id="타원_109" data-name="타원 109" cx="12.215" cy="12.215" r="12.215" transform="translate(32.672 56.075)" opacity="0.08"/>
      <circle id="타원_110" data-name="타원 110" cx="12.215" cy="12.215" r="12.215" transform="translate(33.268 52.395)" fill="#ffd200"/>
      <path id="패스_2292" data-name="패스 2292" d="M59.868,67.367c.345,0,.451.119.451.468v.732a3.365,3.365,0,0,1,2.766,2.089c.179.362.1.557-.3.736l-.736.332c-.345.166-.511.089-.706-.272a1.885,1.885,0,0,0-1.923-1.157c-1.276,0-1.859.379-1.859,1.234a1.136,1.136,0,0,0,1.034,1,7.429,7.429,0,0,0,1.081.166,7.1,7.1,0,0,1,2,.391,2.748,2.748,0,0,1,.885.481,2.893,2.893,0,0,1,.8,2.1c0,1.638-1.1,2.749-3.034,3.034v.783c0,.345-.106.464-.451.464h-.825c-.345,0-.464-.119-.464-.464v-.766a3.4,3.4,0,0,1-3-2.315.485.485,0,0,1,.345-.689l.736-.272c.374-.136.54-.043.706.332a1.955,1.955,0,0,0,2.025,1.276c1.383,0,2.072-.425,2.072-1.319a.915.915,0,0,0-.647-.932,5.042,5.042,0,0,0-1.485-.285,6.65,6.65,0,0,1-2.012-.425,2.421,2.421,0,0,1-1.681-2.553c0-1.621,1.021-2.706,2.944-2.978v-.732c0-.349.119-.468.464-.468Z" transform="translate(-13.989 -8.224)" fill="#fff"/>
      <path id="패스_2293" data-name="패스 2293" d="M47.21,23.092a10.108,10.108,0,0,1-3.919,5.5s3.008-.464,5.578,3.229a11.95,11.95,0,0,1,3.225-5.506S48.444,26.271,47.21,23.092Z" transform="translate(-16.436 -17.078)" fill="#e6e6e6"/>
      <path id="패스_2294" data-name="패스 2294" d="M114.311,32.676a10.107,10.107,0,0,1-6.471,1.923s2.655,1.485,2.408,5.957a12.087,12.087,0,0,1,5.927-2.353C116.174,38.224,113.307,35.944,114.311,32.676Z" transform="translate(-3.526 -15.161)" fill="#e6e6e6"/>
      <path id="패스_2295" data-name="패스 2295" d="M104.994,24.177a7.829,7.829,0,0,1-5.012,1.489s2.055,1.149,1.864,4.629a9.292,9.292,0,0,1,4.6-1.821A4.292,4.292,0,0,1,104.994,24.177Z" transform="translate(-5.098 -16.861)" fill="#e6e6e6"/>
    </g>
  </g>
</svg>
