<?xml version="1.0" encoding="UTF-8"?><svg id="_레이어_2" xmlns="http://www.w3.org/2000/svg" viewBox="0 0 948.36 308.02"><defs><style>.cls-1{fill:#fff;}.cls-2{fill:#bfbfbf;}.cls-3{stroke:#000;stroke-miterlimit:10;}.cls-4{fill:#f34840;}</style></defs><g id="_레이어_1-2"><g><g><rect class="cls-3" x=".5" y=".5" width="306.5" height="306.5"/><polygon class="cls-4" points="219.24 153.75 219.24 .5 .5 .5 .5 219.24 153.75 219.24 153.75 153.75 219.24 153.75"/><polygon class="cls-2" points="218.89 153.42 218.89 218.9 153.4 218.9 153.4 308.02 308 308.02 308 153.42 218.89 153.42"/><rect class="cls-1" x="153.75" y="153.75" width="66.25" height="65.49"/><path class="cls-1" d="M7.25,186.77c.22-9.63,6.56-12.91,10.5-18.81,.66-3.5,4.16-5.03,6.13-8.53,1.75-2.84,4.38-6.34,9.63-12.47,.66-.88,2.41-1.31,3.06-2.19,.66-1.09,.22-2.19,1.09-3.06,1.31-1.53,2.84-2.63,4.16-4.38,2.63-3.28,3.72-7.88,8.31-9.41v-.66c0-4.38,4.38-3.94,6.34-6.56,1.97-7.22,7.66-10.5,10.5-16.85,6.13-1.09,8.09-10.28,9.41-10.5,.44,.22,.88,.22,1.09,.22,1.75,0,1.97-1.31,3.5-1.31,1.97,0,2.63,3.72,2.63,4.59,0,3.5-2.84,6.78-5.03,8.97,5.69-1.97,11.81-3.5,18.81-4.16,13.13-5.25,26.69-10.94,38.94-17.72,11.59-6.56,25.38-11.81,30.41-25.38-1.75-6.78-7.44-6.34-12.25-6.34-19.69,0-34.13,5.25-51.85,7.44-15.97,5.25-31.28,11.38-45.07,19.03-2.63,3.06-6.78,7.66-6.78,10.06,0,3.94,2.19,6.34,2.19,8.97,0,1.09,0,2.84-1.75,2.84-8.31,0-6.34-10.06-8.31-16.63,.44-9.19,9.84-12.47,15.75-17.94,4.81-1.75,10.72-2.63,13.56-6.34h5.25c7.44-5.47,20.13-5.69,28.44-10.5,12.47-.88,24.72-6.34,38.28-6.34h4.16c2.84,0,5.91-.22,9.19-.22,2.84,0,5.91,0,9.19,.22,.66,1.53,2.19,1.97,4.16,2.19,3.28,3.06,6.34,10.72,6.34,16.41,0,6.78-13.78,18.81-25.16,24.5-.44,.22-.66,1.97-1.09,2.19-7,3.06-16.41,7.66-24.06,11.59,2.19,3.06,5.91,1.53,9.41,3.06,.66,.22,1.53,1.97,1.97,2.19,1.97,.66,4.81,1.09,6.34,1.97,3.94,2.41,7.44,8.75,7.44,12.47,0,12.03-15.97,25.16-19.03,26.47-4.59,3.06-8.09,7.44-13.56,9.41-2.84,1.09-2.84,4.81-6.34,5.25-14,9.19-31.5,18.81-47.25,24.06-.88,2.41-8.31,3.28-13.56,5.25-4.81,3.06-5.25,1.97-8.31,3.28-.66,.22-2.84,1.97-3.28,1.97-3.06,1.09-6.56,.66-9.41,2.19h-1.75c-3.94,0-6.34,1.75-9.63,1.75-3.72,0-6.78-2.84-6.78-4.59,0-2.63,1.31-3.94,2.41-5.47-1.09,.66-2.41,1.09-3.72,1.09-4.16,0-2.63-2.19-4.59-3.28ZM115.33,112.16c-3.28-.22-5.69-.22-7.88-.22-7.44,0-17.72,3.28-27.78,6.56-3.5,1.09-7.22,1.09-9.63,2.19-1.31,.44-1.75,2.63-2.84,2.63-.44,0-.88-.22-1.31-.66-1.97,1.97-2.19,6.34-6.34,6.34h-.88c-.22,1.97-3.06,8.31-3.5,8.31-3.94,0-2.63,5.03-5.91,5.25-1.75,2.63-3.28,5.25-4.38,8.53-6.78,0-7.88,10.72-12.47,12.47-3.06,1.31-1.97,6.78-5.25,7.44-2.19,1.97-2.41,6.13-5.25,7.44,.22,.88,.22,1.53,.22,1.97,0,3.72-2.63,4.59-4.38,6.34h1.31c7.88,0,12.47-3.06,20.13-3.06h2.63c6.34-4.81,16.85-5.69,23.19-10.5,5.69,0,6.78-4.38,12.47-4.38,3.5-6.13,16.63-5.69,21-12.47,4.38-1.31,7.88-3.5,10.5-6.34,7.44-4.16,12.91-10.06,21-13.56,2.41-7.22,10.5-8.09,10.5-17.94-4.38-7.44-14.22-5.47-25.16-6.34Z"/><g><path d="M200.42,265.67c-1.48,2.37-14.59,10.15-21.98,10.64-6.21,.39-11.93-1.08-15.67-3.65-2.27-.3-3.06-2.96-2.86-4.73-.39-1.97-.99-4.44-.39-6.7,0,0,.39-.2,.39-.49,.3-.99,1.87-5.72,3.06-6.21,.49-1.38,.99-2.86,2.37-3.35,1.08-2.66,3.75-3.84,5.13-6.11,2.66-1.18,5.22-2.37,7.1-4.34,3.45,.3,4.83-1.48,8.08-1.38,1.38,1.08,1.48,2.37,1.38,4.24,0,.79-.2,.59-.39,.99-.39,.69-.2,2.37-.99,3.25,0,3.84-3.65,8.08-3.94,11.53-1.38,.69-2.37,2.76-3.25,3.84s-2.27,1.48-2.86,2.76c-2.27,.79-3.45,2.56-5.72,3.35,1.48,1.28,3.84,1.87,5.22,2.27h.99c5.22-.3,13.01-3.55,17.15-6.6,.89-.69,2.86-1.68,3.75-2.07,.89-.3,2.76-1.28,3.75-1.28,0,.2,0,3.55-.3,4.04Zm-22.37-19.71c-2.86,1.58-4.44,4.53-7.1,5.72-1.77,3.25-6.21,8.87-6.31,13.9,1.48,.1,3.25-.69,3.84-.99,1.18-.69,1.87-1.08,2.86-1.87,2.96-2.37,6.8-9.17,8.58-12.02,.89-1.38,1.97-2.86,1.97-4.73-.1-.3-.1-.89-.49-.89-1.28,.89-2.56,.49-3.35,.89Z"/><path d="M191.25,270.3c0-1.87,0-4.63-.2-4.63,3.94-1.08,8.58-5.91,11.93-7.69,4.14-2.66,9.76-7.69,14.19-9.96,2.37-1.38,4.44-3.06,6.7-4.44,1.97-1.18,3.94-2.96,6.6-3.25,.49,.79,1.18,1.58,1.87,2.37,.49,1.68-.79,3.06-1.38,4.24-.99,1.87-2.17,3.55-3.35,5.32-.1,.2,.2,.79,0,.89-.89,.79-5.32,8.97-5.82,10.84-1.28,1.18-2.86,2.17-3.25,4.24,1.08,1.38,2.76-.69,4.73,0,4.14-.99,8.58-2.17,12.72-3.25,4.73-2.17,9.76-4.34,14.09-6.9,0,2.07,.39,4.63-.3,4.04-1.08,.39-2.56,2.07-3.55,2.46-.3,.1-1.18,.89-1.48,.89-.59,.2-.89,.2-1.38,.49-1.58,.69-2.27,1.77-3.55,2.46-.49,.3-.99,.39-1.48,.49-.99,.39-2.17,.99-3.25,1.28-1.08,.3-1.38,.59-2.86,.99-1.28,.3-4.73,1.08-6.6,2.27-5.32,.59-11.14,3.35-17.05,2.76-1.87-.1-3.65-1.28-5.72-1.38-1.28-1.28-2.66-2.66-4.73-3.35-.49-1.28-.49-2.76,0-4.04-1.48-.39-1.48,.69-2.37,.89-.3,.69-1.77,.1-1.87,.99-1.18,.69-2.66,1.38-2.66,.99Zm22.08-4.44c1.48-1.28,5.91-6.9,6.21-9.27,1.28-.49,1.68-3.84,2.86-4.34-.1-1.08,.1-1.77,.99-1.87-.1-.59-.2-1.18-.99-.99-.1,.69-.79,.79-.89,1.38-3.45,.89-3.94,4.53-7.49,5.32-2.27,2.07-9.76,7.79-12.52,9.46,2.37,1.97,3.84,4.53,7.98,4.04,1.87-.69,3.06-1.97,3.84-3.75Z"/><path d="M281.14,268.82c-2.37,1.08-3.45,2.37-5.03,3.15-.99,.49-2.66,1.97-4.24,2.46-.3,0-1.77,.69-2.07,.89-.59,.2-.69,.59-1.87,.89-.59,.2-2.37,.79-3.25,.99-1.48,.39,.1-.3-1.97,.2-.99,.2-1.87,.39-2.86,.99-2.07-.89-5.62-.39-8.48-.49-.59-.99-2.07-1.08-3.35-1.48-1.18-1.97-3.75-3.75-4.24-7.1-.39-2.46,.3-4.93,.99-7.49,1.18-2.46,1.87-6.8,3.25-8.08,2.37-3.84,3.94-8.48,6.7-11.83-.69-.79-2.37-.69-3.84-.49-1.08,.2-3.45,.69-5.62,.99-3.06,.3-7.1,1.77-8.08-1.48-.2-1.87,2.46-.99,3.35-1.87,.89-.79,3.06-.39,3.75-1.38,4.93-.3,9.46-.99,14.19-1.48,.79-.1,1.48-.89,1.87-1.38,.3-.39,.2-.99,.49-1.38,.69-.89,2.76-2.46,3.75-3.84,1.97-2.37,3.45-5.03,5.22-7.59,1.68-1.18,1.48-4.14,4.73-3.75,1.97,0,.39,3.35,1.48,4.24-2.37,4.63-6.51,7.39-8.08,12.81,.2,.99,2.37,.2,3.35,.49,10.94-.99,22.57-1.48,33.51-2.37,1.18,.59,2.86,1.38,1.68,2.86-2.46,.2-4.53,.49-4.44,.39-2.76-.1-4.53,.79-7.59,.49-2.07,1.18-3.94,.39-6.6,1.38-1.87,.1-3.55,0-4.73-.39-3.25,1.48-3.45-.1-6.7,.89q-1.38,.39-2.76,0c-.89,.39-1.77,.79-2.86,.99-1.18,.2-3.55-1.97-5.22,0,.1,.99-1.68,.2-2.37,.49-1.08,2.76-3.65,4.14-4.73,7.1-2.37,1.68-2.17,4.53-4.73,6.11,.1,1.28-1.28,1.87-1.87,2.86-.69,.99-.69,2.56-1.87,3.25-.59,3.75-2.17,6.8-.49,10.45,1.08,.79,1.77,1.58,2.86,1.87,.39,.1,.3,.39,.39,.49,3.15,1.48,7.49,0,10.94-.49,1.48-.39,3.84-.79,5.42-2.17,.1-.1,2.66-1.38,2.76-1.38,.79-.39,1.38-1.08,2.27-1.48,.79-.3,2.07-.3,2.86-.49,.49-1.08,2.27-.79,3.65-.99,1.48,1.18-.39,2.07,.49,3.15Z"/><path d="M287.75,268.03c.59,2.27,2.37,3.35,2.37,6.21-1.77,3.84-7.49,1.87-8.97-.99-.79-4.53,2.76-6.7,6.6-5.22Z"/></g></g><g><path class="cls-1" d="M574.61,194.41c0-43.5,28.92-70.45,59.57-70.45,33.37,0,52.65,23.98,52.65,62.54,0,4.45-.25,8.9-.99,12.11h-91.21c1.24,29.66,19.03,49.44,45.73,49.44,13.1,0,23.98-4.2,33.86-10.88l7.42,13.35c-11.62,7.41-25.21,13.59-43.75,13.59-35.1,0-63.28-25.95-63.28-69.71Zm94.43-10.38c0-28.67-12.85-43.75-34.61-43.75-19.78,0-37.32,16.07-40.04,43.75h74.65Z"/><path class="cls-1" d="M705.13,245.83l10.13-13.59c11.62,9.64,23.48,16.07,40.29,16.07,18.54,0,27.68-9.89,27.68-22.25,0-14.34-16.07-20.76-31.14-26.2-19.03-6.92-40.29-15.82-40.29-38.56,0-20.76,16.56-37.33,45.24-37.33,15.82,0,30.4,6.67,40.54,14.83l-9.64,13.1c-9.15-6.67-18.79-11.86-30.9-11.86-17.8,0-25.95,9.39-25.95,20.27,0,13.35,14.83,18.54,30.16,23.98,19.53,7.66,41.28,15.33,41.28,40.79,0,21.26-16.81,39.06-47.71,39.06-19.03,0-37.08-7.91-49.68-18.29Z"/><path class="cls-1" d="M833.42,220.62v-76.63h-20.27v-15.33l21.01-1.24,2.22-37.82h17.06v37.82h36.83v16.56h-36.83v77.37c0,16.31,4.94,26.2,21.01,26.2,4.94,0,11.12-1.73,15.57-3.46l3.96,15.08c-7.42,2.47-16.31,4.94-23.73,4.94-27.93,0-36.83-17.3-36.83-43.5Z"/><path class="cls-4" d="M917.96,248.3c0-9.89,6.92-16.31,15.08-16.31s15.33,6.43,15.33,16.31-6.92,15.82-15.33,15.82-15.08-6.43-15.08-15.82Z"/></g><path class="cls-1" d="M506.45,154.82c5.6,2.4,11,5.4,16.2,9,5.2,3.6,9.75,7.8,13.65,12.6,3.9,4.8,7.05,10.05,9.45,15.75,2.4,5.7,3.6,11.95,3.6,18.75,0,11-2.8,20.4-8.4,28.2-5.6,7.8-12.75,14.2-21.45,19.2-8.7,5-18.5,8.65-29.4,10.95-10.9,2.3-21.65,3.45-32.25,3.45h-81.3V47.42h77.1c9.2,0,18.15,1.6,26.85,4.8,8.7,3.2,16.55,7.6,23.55,13.2,7,5.6,12.75,12,17.25,19.2,4.5,7.2,7.2,14.8,8.1,22.8,.9,8-.4,16.05-3.9,24.15-3.5,8.1-9.85,15.85-19.05,23.25Zm-85.5,107.4c18,0,32.75-.95,44.25-2.86,11.5-1.9,20.5-4.95,27-9.16,6.5-4.2,11-9.56,13.5-16.07,2.5-6.51,3.75-14.27,3.75-23.28,0-8.41-2.75-15.52-8.25-21.33-5.5-5.81-12.25-10.57-20.25-14.27-8-3.7-16.4-6.41-25.2-8.11-8.8-1.7-16.5-2.55-23.1-2.55v-11.42c8-.8,15.45-2.25,22.35-4.35,6.9-2.1,12.85-4.91,17.85-8.41,5-3.51,8.9-7.81,11.7-12.92,2.8-5.1,4.2-10.96,4.2-17.58,0-3-.05-6.36-.15-10.06-.1-3.7-.65-7.51-1.65-11.42-1-3.9-2.8-7.71-5.4-11.42-2.6-3.7-6.35-7.01-11.25-9.91-4.9-2.9-11.35-5.25-19.35-7.06-8-1.8-18-2.7-30-2.7v204.9Z"/></g></g></svg>