<svg xmlns="http://www.w3.org/2000/svg" width="42" height="39.316" viewBox="0 0 42 39.316">
  <g id="icons8-kakaotalk" transform="translate(-2.999 -4)">
    <path id="빼기_1" data-name="빼기 1" d="M7497.823,3256.219a.51.51,0,0,1-.407-.207.485.485,0,0,1-.073-.438l2.219-7.4c-6.023-3.152-9.62-8.488-9.62-14.271a15.452,15.452,0,0,1,6.151-12.021,24.629,24.629,0,0,1,29.7,0,14.823,14.823,0,0,1,0,24.042,23.575,23.575,0,0,1-14.849,4.979,25.782,25.782,0,0,1-4.423-.386l-8.421,5.616A.5.5,0,0,1,7497.823,3256.219Zm23.737-21.275h0l3.6,4.577a1,1,0,1,0,1.573-1.236l-3.707-4.718-.023-.027-.017-.021,2.909-2.911a1,1,0,0,0-1.414-1.414l-3.535,3.537V3229.9a1,1,0,0,0-2,0v9a1,1,0,0,0,2,0v-3.346l.028-.026.008-.008.58-.58Zm-8.616-6.04a1,1,0,0,0-1,1v9a1,1,0,0,0,1,1h4a1,1,0,0,0,0-2h-3v-8A1,1,0,0,0,7512.944,3228.9Zm-6.428.009-.379,0a.98.98,0,0,0-.905.629l-3.221,9a1,1,0,1,0,1.868.717l.486-1.357h4.161l.486,1.357a1,1,0,1,0,1.866-.717l-3.221-9a.987.987,0,0,0-.877-.629C7506.737,3228.914,7506.651,3228.913,7506.516,3228.913Zm-10.571-.009a1,1,0,0,0,0,2h2v8a1,1,0,1,0,2,0v-8h2a1,1,0,0,0,0-2Zm11.863,7h-2.728l1.365-3.813,1.363,3.812Z" transform="translate(-7486.944 -3212.903)" fill="#fff"/>
  </g>
</svg>
