<svg xmlns="http://www.w3.org/2000/svg" width="32" height="32" viewBox="0 0 32 32">
  <g id="kakaotalk2" transform="translate(7670 3209)">
    <circle id="타원_113" data-name="타원 113" cx="16" cy="16" r="16" transform="translate(-7670 -3209)" fill="#f1d900"/>
    <g id="kakaotalk" transform="translate(-7664.217 -3202.557)">
      <path id="패스_2324" data-name="패스 2324" d="M13.343,4C7.631,4,3,7.748,3,12.373A8.128,8.128,0,0,0,7.737,19.4L6.644,23.045a.246.246,0,0,0,.372.276l4.148-2.765a12.714,12.714,0,0,0,2.178.19c5.712,0,10.343-3.748,10.343-8.373S19.055,4,13.343,4Z" transform="translate(-3 -4)" fill="#3a1a1c"/>
      <g id="그룹_1682" data-name="그룹 1682" transform="translate(2.463 5.91)">
        <path id="패스_2325" data-name="패스 2325" d="M11.448,16.985H8.493A.493.493,0,0,1,8,16.493H8A.493.493,0,0,1,8.493,16h2.955a.493.493,0,0,1,.493.493h0A.493.493,0,0,1,11.448,16.985Z" transform="translate(-8 -16)" fill="#f1d900"/>
        <path id="패스_2326" data-name="패스 2326" d="M25,20.925V16.493A.493.493,0,0,1,25.493,16h0a.493.493,0,0,1,.493.493v4.433a.493.493,0,0,1-.493.493h0A.493.493,0,0,1,25,20.925Z" transform="translate(-16.627 -16)" fill="#f1d900"/>
        <path id="패스_2327" data-name="패스 2327" d="M32,20.925V16.493A.493.493,0,0,1,32.493,16h0a.493.493,0,0,1,.493.493v4.433a.493.493,0,0,1-.493.493h0A.493.493,0,0,1,32,20.925Z" transform="translate(-20.18 -16)" fill="#f1d900"/>
        <path id="패스_2328" data-name="패스 2328" d="M32.473,18.564l2.42-2.42a.492.492,0,0,1,.7,0h0a.492.492,0,0,1,0,.7l-2.42,2.42a.492.492,0,0,1-.7,0h0A.493.493,0,0,1,32.473,18.564Z" transform="translate(-20.347 -16)" fill="#f1d900"/>
        <path id="패스_2329" data-name="패스 2329" d="M35.172,20.471,37,22.794a.493.493,0,0,1-.083.691h0a.493.493,0,0,1-.691-.083L34.4,21.08a.493.493,0,0,1,.083-.691h0A.493.493,0,0,1,35.172,20.471Z" transform="translate(-21.343 -18.174)" fill="#f1d900"/>
        <path id="패스_2330" data-name="패스 2330" d="M27.463,25.985h-1.97A.493.493,0,0,1,25,25.493h0A.493.493,0,0,1,25.493,25h1.97a.493.493,0,0,1,.493.493h0A.493.493,0,0,1,27.463,25.985Z" transform="translate(-16.627 -20.567)" fill="#f1d900"/>
        <path id="패스_2331" data-name="패스 2331" d="M19.4,20.754l-1.586-4.433a.484.484,0,0,0-.432-.31c-.055,0-.266,0-.316,0a.484.484,0,0,0-.446.31l-1.586,4.433a.493.493,0,0,0,.92.353l.239-.669H18.24l.239.669a.492.492,0,1,0,.92-.353Zm-2.855-1.3.672-1.877.672,1.877Z" transform="translate(-11.552 -16.005)" fill="#f1d900"/>
        <path id="패스_2332" data-name="패스 2332" d="M11.985,18H11v3.94a.493.493,0,0,0,.493.493h0a.493.493,0,0,0,.493-.493Z" transform="translate(-9.522 -17.015)" fill="#f1d900"/>
      </g>
    </g>
  </g>
</svg>
