<?xml version="1.0" encoding="utf-8"?>
<!-- Generator: Adobe Illustrator 26.3.1, SVG Export Plug-In . SVG Version: 6.00 Build 0)  -->
<svg version="1.1" id="레이어_1" xmlns="http://www.w3.org/2000/svg" xmlns:xlink="http://www.w3.org/1999/xlink" x="0px"
	 y="0px" viewBox="0 0 700 700" style="enable-background:new 0 0 700 700;" xml:space="preserve">
<path d="M267,610.3c-48.9,48.9-128.6,48.9-177.5,0c-48.7-48.7-48.7-128.4,0.2-177.3l121.7-121.7c46.7-46.7,121.1-49.3,170.2-6.9
	c9.4,7.9,10.6,24,2.6,33.2c-7.9,9.4-23.8,10.8-33.2,2.6c-30.8-26.5-76.8-25.3-106.4,4.3L122.9,466.2c-31,31-31,80.1-0.2,110.9
	c31,31,80.1,31,111.1,0L350,460.9c8.6-9,24.7-9,33.4-0.4c8.8,8.8,8.8,24.9-0.2,33.6L267,610.3L267,610.3z M488.4,388.9
	c-46.5,46.5-120.9,49.1-170,6.7c-9.6-8.1-10.8-23.8-2.7-33.4c8.1-9.2,24-10.6,33.2-2.6c31,26.7,77,25.5,106.4-3.9l121.9-121.9
	c31-31,31-80.1,0-111.1c-30.8-30.8-79.9-30.8-110.9,0.2L350,239.1c-8.6,9-24.7,9-33.4,0.4c-8.8-8.8-8.8-24.9,0.2-33.6L433.1,89.7
	c48.9-48.9,128.6-48.9,177.3-0.2c48.9,48.9,48.9,128.6,0,177.5L488.4,388.9L488.4,388.9z"/>
</svg>
