<?xml version="1.0" encoding="UTF-8"?><svg xmlns="http://www.w3.org/2000/svg" xmlns:xlink="http://www.w3.org/1999/xlink" viewBox="0 0 111.78 113.87"><defs><style>.cls-1{fill:#fff6e4;}.cls-2{fill:#fff;}.cls-3{fill:#ffcdcc;}.cls-4{fill:#f98786;}.cls-5{fill:#2c435a;}.cls-6{isolation:isolate;}.cls-7{fill:#4c637a;}.cls-8{fill:#fcad7f;}.cls-9{fill:#0e2239;}.cls-10{fill:#eaaf8b;}.cls-11{fill:#fb9d68;}.cls-12{fill:#fbfbfb;}.cls-13{fill:#556b7f;}.cls-14{fill:#475f73;}.cls-15{fill:#71adca;}.cls-16{fill:url(#linear-gradient-2);mix-blend-mode:multiply;}.cls-17{fill:#3a5267;}.cls-18{fill:#00060d;}.cls-19{fill:#22415c;}.cls-20{fill:#85909f;}.cls-21{fill:#19435d;}.cls-22{fill:url(#linear-gradient);mix-blend-mode:lighten;opacity:.67;}.cls-23{fill:#356588;}</style><linearGradient id="linear-gradient" x1="398.85" y1="82.61" x2="390.59" y2="117.21" gradientTransform="translate(452.1) rotate(-180) scale(1 -1)" gradientUnits="userSpaceOnUse"><stop offset="0" stop-color="#dde2e7"/><stop offset=".15" stop-color="#d9dee3"/><stop offset=".28" stop-color="#ced3d8"/><stop offset=".41" stop-color="#bdc1c5"/><stop offset=".53" stop-color="#a4a8ab"/><stop offset=".65" stop-color="#84878a"/><stop offset=".77" stop-color="#5c5e60"/><stop offset=".89" stop-color="#2e2f31"/><stop offset=".99" stop-color="#000"/></linearGradient><linearGradient id="linear-gradient-2" x1="409.53" y1="93.44" x2="409.53" y2="93.7" gradientTransform="translate(452.1) rotate(-180) scale(1 -1)" gradientUnits="userSpaceOnUse"><stop offset="0" stop-color="#c7d2d9"/><stop offset=".28" stop-color="#cad4db"/><stop offset=".54" stop-color="#d5dde2"/><stop offset=".78" stop-color="#e8ecef"/><stop offset=".99" stop-color="#fff"/></linearGradient></defs><g class="cls-6"><g id="_이어_2"><g id="Layer_1"><g><g><g><g><g><path class="cls-8" d="M111.78,71.23v2.19c-.02,.54-.2,1.08-.54,1.6-.14,.22-.32,.43-.52,.63-.26,.26-.56,.51-.91,.74-.12,.08-.24,.15-.36,.22-.07,.04-.15,.08-.23,.13-.28,.15-.56,.28-.86,.4-.2,.08-.41,.16-.62,.23-.27,.09-.55,.17-.83,.24-.22,.05-.43,.1-.66,.14-.26,.05-.53,.09-.8,.12-.23,.03-.46,.05-.69,.07-.25,.02-.51,.03-.77,.03-.24,0-.48,0-.72,0-.26,0-.51-.02-.77-.05-.23-.02-.46-.05-.69-.08-.27-.04-.54-.08-.8-.14-.22-.05-.44-.1-.66-.16-.28-.08-.56-.16-.83-.26-.21-.08-.42-.16-.62-.25-.3-.13-.59-.28-.86-.43-.22-.13-.41-.25-.59-.38-.36-.26-.67-.53-.92-.82-.21-.24-.39-.5-.52-.76-.21-.39-.32-.8-.34-1.21,0-.03,0-.06,0-.08v-2.11h.83c.29-.33,.59-.6,.95-.86,.17-.12,.36-.24,.56-.36,.3-.17,.59-.32,.89-.44,.2-.09,.41-.17,.62-.24,2.5-.88,5.67-.89,8.2-.04,.21,.07,.42,.15,.62,.23,.3,.12,.59,.26,.86,.41,.06,.03,.13,.07,.19,.11,.14,.08,.27,.16,.4,.25,.35,.23,.66,.48,.91,.74,.07,.07,.13,.14,.19,.21h.87Z"/><g><path class="cls-11" d="M96.52,71.19v4.2c-.21-.24-.39-.5-.52-.76v-3.4h.48s.02-.03,.04-.04Z"/><path class="cls-11" d="M98.03,70v6.6c-.21-.12-.41-.25-.59-.38v-5.84c.17-.12,.36-.24,.56-.36l.03-.02Z"/><path class="cls-11" d="M99.52,69.33v7.95c-.21-.08-.42-.16-.62-.25v-7.46c.2-.09,.41-.17,.62-.24Z"/><path class="cls-11" d="M101.01,69.38v8.31c-.22-.05-.44-.1-.66-.16v-8.16h.66Z"/><path class="cls-11" d="M102.49,69.65v8.26c-.23-.02-.46-.05-.69-.08v-8.18h.69Z"/><path class="cls-11" d="M103.98,69.95v8.02c-.24,0-.48,0-.72,0v-8.01h.72Z"/></g><g><path class="cls-11" d="M111.24,71.23v3.79c-.14,.22-.32,.43-.52,.63v-4.63c.07,.07,.13,.14,.19,.21h.33Z"/><path class="cls-11" d="M109.8,70.28v6.11c-.12,.08-.24,.15-.36,.22-.07,.04-.15,.08-.23,.13v-6.81c.06,.03,.13,.07,.19,.11,.14,.08,.27,.16,.4,.25Z"/><path class="cls-11" d="M108.35,69.52v7.62c-.2,.08-.41,.16-.62,.23v-8.08c.21,.07,.42,.15,.62,.23Z"/><path class="cls-11" d="M106.89,69.38v8.23c-.22,.05-.43,.1-.66,.14v-8.37h.66Z"/><path class="cls-11" d="M105.44,69.65v8.22c-.23,.03-.46,.05-.69,.07v-8.28h.69Z"/></g></g><g><path class="cls-10" d="M95.66,73.43v-.08s0,.06,0,.08Z"/><path class="cls-10" d="M109.44,74.59c-3.14,1.81-8.24,1.8-11.4-.02-3.16-1.82-3.17-4.77-.04-6.58,3.14-1.81,8.24-1.8,11.4,.02,3.16,1.82,3.17,4.77,.04,6.58Z"/><path class="cls-2" d="M102.37,66.73c-.7,.33-1.38,.56-2.02,.85-.67,.21-1.27,.55-1.89,.82-.62,.28-1.15,.69-1.66,1.11-.48,.45-.89,.99-1.1,1.71-.06-.75,.26-1.46,.73-2.03,.48-.57,1.08-1.02,1.72-1.37,1.3-.71,2.76-1.04,4.22-1.17v.07Z"/><path class="cls-11" d="M110.69,71.51c-.08,.96-.75,1.9-2.02,2.63-2.72,1.57-7.14,1.56-9.87-.02-1.28-.74-1.97-1.7-2.05-2.67-.09-1.09,.58-2.2,2.02-3.03,2.72-1.57,7.14-1.56,9.87,.02,1.46,.84,2.14,1.97,2.05,3.07Z"/><path class="cls-8" d="M110.69,71.51c-.08,.96-.75,1.9-2.02,2.63-2.72,1.57-7.14,1.56-9.87-.02-1.28-.74-1.97-1.7-2.05-2.67,.08-.96,.76-1.9,2.02-2.63,2.72-1.57,7.14-1.56,9.87,.02,1.28,.74,1.97,1.7,2.05,2.67Z"/><path class="cls-2" d="M110.73,71.52c.19,.61,0,1.3-.35,1.85-.35,.56-.87,.95-1.39,1.3-.56,.27-1.13,.52-1.74,.61-.6,.09-1.21,.11-1.81-.04,1.12-.24,2.22-.59,3.21-1.15,.96-.55,1.89-1.41,2.01-2.57h.07Z"/><path class="cls-11" d="M100.6,73.66l-.77-.44v-.27l.84-.23c-.52-.34-.65-.81-.62-1.08v-.27c.06,.35,1.27,.64,1.9,1,.46,.27,1,.26,1.33,.08,.86-.5-1.69-1.63-.28-2.44,.56-.32,1.58-.65,2.67-.14l1.7-.39v.27l-.96,.53c.44,.29,.47,.69,.46,.93l-1.17,.12c-.07-.36-.17-.58-.52-.78-.37-.21-.87-.29-1.21-.09-.81,.47,1.88,1.57,.35,2.59-.44,.29-1.59,.71-2.86,.11l-.86,.51Z"/><path class="cls-10" d="M100.6,73.4l-.77-.44,.84-.5c-.52-.34-.65-.81-.62-1.08l1.22-.14c.06,.35,.06,.51,.69,.88,.46,.27,1,.26,1.33,.08,.86-.5-1.69-1.63-.28-2.44,.56-.32,1.58-.65,2.67-.14l.93-.56,.77,.44-.96,.53c.44,.29,.47,.7,.46,.93l-1.17,.12c-.07-.36-.17-.58-.52-.78-.37-.21-.87-.29-1.21-.09-.81,.47,1.88,1.57,.35,2.59-.44,.29-1.59,.71-2.86,.11l-.86,.51Z"/></g></g><g><g><path class="cls-8" d="M111.78,68.81v2.19c-.02,.54-.2,1.08-.54,1.6-.14,.22-.32,.43-.52,.63-.26,.26-.56,.51-.91,.74-.12,.08-.24,.15-.36,.22-.07,.04-.15,.08-.23,.13-.28,.15-.56,.28-.86,.4-.2,.08-.41,.16-.62,.23-.27,.09-.55,.17-.83,.24-.22,.05-.43,.1-.66,.14-.26,.05-.53,.09-.8,.12-.23,.03-.46,.05-.69,.07-.25,.02-.51,.03-.77,.03-.24,0-.48,0-.72,0-.26,0-.51-.02-.77-.05-.23-.02-.46-.05-.69-.08-.27-.04-.54-.08-.8-.14-.22-.05-.44-.1-.66-.16-.28-.08-.56-.16-.83-.26-.21-.08-.42-.16-.62-.25-.3-.13-.59-.28-.86-.43-.22-.13-.41-.25-.59-.38-.36-.26-.67-.53-.92-.82-.21-.24-.39-.5-.52-.76-.21-.39-.32-.8-.34-1.21,0-.03,0-.06,0-.08v-2.11h.83c.29-.33,.59-.6,.95-.86,.17-.12,.36-.24,.56-.36,.3-.17,.59-.32,.89-.44,.2-.09,.41-.17,.62-.24,2.5-.88,5.67-.89,8.2-.04,.21,.07,.42,.15,.62,.23,.3,.12,.59,.26,.86,.41,.06,.03,.13,.07,.19,.11,.14,.08,.27,.16,.4,.25,.35,.23,.66,.48,.91,.74,.07,.07,.13,.14,.19,.21h.87Z"/><g><path class="cls-11" d="M96.52,68.77v4.2c-.21-.24-.39-.5-.52-.76v-3.4h.48s.02-.03,.04-.04Z"/><path class="cls-11" d="M98.03,67.58v6.6c-.21-.12-.41-.25-.59-.38v-5.84c.17-.12,.36-.24,.56-.36,0,0,.02-.01,.03-.02Z"/><path class="cls-11" d="M99.52,66.91v7.95c-.21-.08-.42-.16-.62-.25v-7.46c.2-.09,.41-.17,.62-.24Z"/><path class="cls-11" d="M101.01,66.96v8.31c-.22-.05-.44-.1-.66-.16v-8.16h.66Z"/><path class="cls-11" d="M102.49,67.23v8.26c-.23-.02-.46-.05-.69-.08v-8.18h.69Z"/><path class="cls-11" d="M103.98,67.53v8.02c-.24,0-.48,0-.72,0v-8.01h.72Z"/></g><g><path class="cls-11" d="M111.24,68.81v3.79c-.14,.22-.32,.43-.52,.63v-4.63c.07,.07,.13,.14,.19,.21h.33Z"/><path class="cls-11" d="M109.8,67.86v6.11c-.12,.08-.24,.15-.36,.22-.07,.04-.15,.08-.23,.13v-6.81c.06,.03,.13,.07,.19,.11,.14,.08,.27,.16,.4,.25Z"/><path class="cls-11" d="M108.35,67.1v7.62c-.2,.08-.41,.16-.62,.23v-8.08c.21,.07,.42,.15,.62,.23Z"/><path class="cls-11" d="M106.89,66.96v8.23c-.22,.05-.43,.1-.66,.14v-8.37h.66Z"/><path class="cls-11" d="M105.44,67.23v8.22c-.23,.03-.46,.05-.69,.07v-8.28h.69Z"/></g></g><g><path class="cls-10" d="M95.66,71.01v-.08s0,.06,0,.08Z"/><path class="cls-10" d="M109.44,72.17c-3.14,1.81-8.24,1.8-11.4-.02-3.16-1.82-3.17-4.77-.04-6.58,3.14-1.81,8.24-1.8,11.4,.02,3.16,1.82,3.17,4.77,.04,6.58Z"/><path class="cls-2" d="M102.37,64.31c-.7,.33-1.38,.56-2.02,.85-.67,.21-1.27,.55-1.89,.82-.62,.28-1.15,.69-1.66,1.11-.48,.45-.89,.99-1.1,1.71-.06-.75,.26-1.46,.73-2.03,.48-.57,1.08-1.02,1.72-1.37,1.3-.71,2.76-1.04,4.22-1.17v.07Z"/><path class="cls-11" d="M110.69,69.09c-.08,.96-.75,1.9-2.02,2.63-2.72,1.57-7.14,1.56-9.87-.02-1.28-.74-1.97-1.7-2.05-2.67-.09-1.09,.58-2.2,2.02-3.03,2.72-1.57,7.14-1.56,9.87,.02,1.46,.84,2.14,1.97,2.05,3.07Z"/><path class="cls-8" d="M110.69,69.09c-.08,.96-.75,1.9-2.02,2.63-2.72,1.57-7.14,1.56-9.87-.02-1.28-.74-1.97-1.7-2.05-2.67,.08-.96,.76-1.9,2.02-2.63,2.72-1.57,7.14-1.56,9.87,.02,1.28,.74,1.97,1.7,2.05,2.67Z"/><path class="cls-2" d="M110.73,69.1c.19,.61,0,1.3-.35,1.85-.35,.56-.87,.95-1.39,1.3-.56,.27-1.13,.52-1.74,.61-.6,.09-1.21,.11-1.81-.04v-.07c1.12-.17,2.22-.52,3.21-1.09,.96-.55,1.89-1.41,2.01-2.57h.07Z"/><path class="cls-11" d="M100.6,71.24l-.77-.44v-.27l.84-.23c-.52-.34-.65-.81-.62-1.08v-.27c.06,.35,1.27,.64,1.9,1,.46,.27,1,.26,1.33,.08,.86-.5-1.69-1.63-.28-2.44,.56-.32,1.58-.65,2.67-.14l1.7-.39v.27l-.96,.53c.44,.29,.47,.69,.46,.93l-1.17,.12c-.07-.36-.17-.58-.52-.78-.37-.21-.87-.29-1.21-.09-.81,.47,1.88,1.57,.35,2.59-.44,.29-1.59,.71-2.86,.11l-.86,.51Z"/><path class="cls-10" d="M100.6,70.98l-.77-.44,.84-.5c-.52-.34-.65-.81-.62-1.08l1.22-.14c.06,.35,.06,.51,.69,.88,.46,.27,1,.26,1.33,.08,.86-.5-1.69-1.63-.28-2.44,.56-.32,1.58-.65,2.67-.14l.93-.56,.77,.44-.96,.53c.44,.29,.47,.69,.46,.93l-1.17,.12c-.07-.36-.17-.58-.52-.78-.37-.21-.87-.29-1.21-.09-.81,.47,1.88,1.57,.35,2.59-.44,.29-1.59,.71-2.86,.11l-.86,.51Z"/></g></g><g><g><path class="cls-8" d="M111.78,66.39v2.19c-.02,.54-.2,1.08-.54,1.6-.14,.22-.32,.43-.52,.63-.26,.26-.56,.51-.91,.74-.12,.08-.24,.15-.36,.22-.07,.04-.15,.08-.23,.13-.28,.15-.56,.28-.86,.4-.2,.08-.41,.16-.62,.23-.27,.09-.55,.17-.83,.24-.22,.05-.43,.1-.66,.14-.26,.05-.53,.09-.8,.12-.23,.03-.46,.05-.69,.07-.25,.02-.51,.03-.77,.03-.24,0-.48,0-.72,0-.26,0-.51-.02-.77-.05-.23-.02-.46-.05-.69-.08-.27-.04-.54-.08-.8-.14-.22-.05-.44-.1-.66-.16-.28-.08-.56-.16-.83-.26-.21-.08-.42-.16-.62-.25-.3-.13-.59-.28-.86-.43-.22-.13-.41-.25-.59-.38-.36-.26-.67-.53-.92-.82-.21-.24-.39-.5-.52-.76-.21-.39-.32-.8-.34-1.21,0-.03,0-.06,0-.08v-2.11h.83c.29-.33,.59-.6,.95-.86,.17-.12,.36-.24,.56-.36,.3-.17,.59-.32,.89-.44,.2-.09,.41-.17,.62-.24,2.5-.88,5.67-.89,8.2-.04,.21,.07,.42,.15,.62,.23,.3,.12,.59,.26,.86,.41,.06,.03,.13,.07,.19,.11,.14,.08,.27,.16,.4,.25,.35,.23,.66,.48,.91,.74,.07,.07,.13,.14,.19,.21h.87Z"/><g><path class="cls-11" d="M96.52,66.35v4.2c-.21-.24-.39-.5-.52-.76v-3.4h.48s.02-.03,.04-.04Z"/><path class="cls-11" d="M98.03,65.16v6.6c-.21-.12-.41-.25-.59-.38v-5.84c.17-.12,.36-.24,.56-.36,0,0,.02-.01,.03-.02Z"/><path class="cls-11" d="M99.52,64.49v7.95c-.21-.08-.42-.16-.62-.25v-7.46c.2-.09,.41-.17,.62-.24Z"/><path class="cls-11" d="M101.01,64.54v8.31c-.22-.05-.44-.1-.66-.16v-8.16h.66Z"/><path class="cls-11" d="M102.49,64.81v8.26c-.23-.02-.46-.05-.69-.08v-8.18h.69Z"/><path class="cls-11" d="M103.98,65.11v8.02c-.24,0-.48,0-.72,0v-8.01h.72Z"/></g><g><path class="cls-11" d="M111.24,66.39v3.79c-.14,.22-.32,.43-.52,.63v-4.63c.07,.07,.13,.14,.19,.21h.33Z"/><path class="cls-11" d="M109.8,65.44v6.11c-.12,.08-.24,.15-.36,.22-.07,.04-.15,.08-.23,.13v-6.81c.06,.03,.13,.07,.19,.11,.14,.08,.27,.16,.4,.25Z"/><path class="cls-11" d="M108.35,64.68v7.62c-.2,.08-.41,.16-.62,.23v-8.08c.21,.07,.42,.15,.62,.23Z"/><path class="cls-11" d="M106.89,64.54v8.23c-.22,.05-.43,.1-.66,.14v-8.37h.66Z"/><path class="cls-11" d="M105.44,64.81v8.22c-.23,.03-.46,.05-.69,.07v-8.28h.69Z"/></g></g><g><path class="cls-10" d="M95.66,68.59v-.08s0,.06,0,.08Z"/><path class="cls-10" d="M109.44,69.75c-3.14,1.81-8.24,1.8-11.4-.02-3.16-1.82-3.17-4.77-.04-6.58,3.14-1.81,8.24-1.8,11.4,.02,3.16,1.82,3.17,4.77,.04,6.58Z"/><path class="cls-2" d="M102.37,61.89c-.7,.33-1.38,.56-2.02,.85-.67,.21-1.27,.55-1.89,.82-.62,.28-1.15,.69-1.66,1.11-.48,.45-.89,.99-1.1,1.71-.06-.75,.26-1.46,.73-2.03,.48-.57,1.08-1.02,1.72-1.37,1.3-.71,2.76-1.04,4.22-1.17v.07Z"/><path class="cls-11" d="M110.69,66.67c-.08,.96-.75,1.9-2.02,2.63-2.72,1.57-7.14,1.56-9.87-.02-1.28-.74-1.97-1.7-2.05-2.67-.09-1.09,.58-2.2,2.02-3.03,2.72-1.57,7.14-1.56,9.87,.02,1.46,.84,2.14,1.97,2.05,3.07Z"/><path class="cls-8" d="M110.69,66.67c-.08,.96-.75,1.9-2.02,2.63-2.72,1.57-7.14,1.56-9.87-.02-1.28-.74-1.97-1.7-2.05-2.67,.08-.96,.76-1.9,2.02-2.63,2.72-1.57,7.14-1.56,9.87,.02,1.28,.74,1.97,1.7,2.05,2.67Z"/><path class="cls-2" d="M110.73,66.68c.19,.61,0,1.3-.35,1.85-.35,.56-.87,.95-1.39,1.3-.56,.27-1.13,.52-1.74,.61-.6,.09-1.21,.11-1.81-.04,1.12-.24,2.22-.59,3.21-1.15,.96-.55,1.89-1.41,2.01-2.57h.07Z"/><path class="cls-11" d="M100.6,68.82l-.77-.44v-.27l.84-.23c-.52-.34-.65-.81-.62-1.08v-.27c.06,.35,1.27,.64,1.9,1,.46,.27,1,.26,1.33,.08,.86-.5-1.69-1.63-.28-2.44,.56-.32,1.58-.65,2.67-.14l1.7-.39v.27l-.96,.53c.44,.29,.47,.7,.46,.93l-1.17,.12c-.07-.36-.17-.58-.52-.78-.37-.21-.87-.29-1.21-.09-.81,.47,1.88,1.57,.35,2.59-.44,.29-1.59,.71-2.86,.11l-.86,.51Z"/><path class="cls-10" d="M100.6,68.56l-.77-.44,.84-.5c-.52-.34-.65-.81-.62-1.08l1.22-.14c.06,.35,.06,.51,.69,.88,.46,.27,1,.26,1.33,.08,.86-.5-1.69-1.63-.28-2.44,.56-.32,1.58-.65,2.67-.14l.93-.56,.77,.44-.96,.53c.44,.29,.47,.69,.46,.93l-1.17,.12c-.07-.36-.17-.58-.52-.78-.37-.21-.87-.29-1.21-.09-.81,.47,1.88,1.57,.35,2.59-.44,.29-1.59,.71-2.86,.11l-.86,.51Z"/></g></g><g><g><path class="cls-8" d="M111.78,63.97v2.19c-.02,.54-.2,1.08-.54,1.6-.14,.22-.32,.43-.52,.63-.26,.26-.56,.51-.91,.74-.12,.08-.24,.15-.36,.22-.07,.04-.15,.08-.23,.13-.28,.15-.56,.28-.86,.4-.2,.08-.41,.16-.62,.23-.27,.09-.55,.17-.83,.24-.22,.05-.43,.1-.66,.14-.26,.05-.53,.09-.8,.12-.23,.03-.46,.05-.69,.07-.25,.02-.51,.03-.77,.03-.24,0-.48,0-.72,0-.26,0-.51-.02-.77-.05-.23-.02-.46-.05-.69-.08-.27-.04-.54-.08-.8-.14-.22-.05-.44-.1-.66-.16-.28-.08-.56-.16-.83-.26-.21-.08-.42-.16-.62-.25-.3-.13-.59-.28-.86-.43-.22-.13-.41-.25-.59-.38-.36-.26-.67-.53-.92-.82-.21-.24-.39-.5-.52-.75-.21-.39-.32-.8-.34-1.21,0-.03,0-.06,0-.08v-2.11h.83c.29-.33,.59-.6,.95-.86,.17-.12,.36-.24,.56-.36,.3-.17,.59-.32,.89-.44,.2-.09,.41-.17,.62-.24,2.5-.88,5.67-.89,8.2-.04,.21,.07,.42,.15,.62,.23,.3,.12,.59,.26,.86,.41,.06,.03,.13,.07,.19,.11,.14,.08,.27,.16,.4,.25,.35,.23,.66,.48,.91,.74,.07,.07,.13,.14,.19,.21h.87Z"/><g><path class="cls-11" d="M96.52,63.93v4.2c-.21-.24-.39-.5-.52-.75v-3.4h.48s.02-.03,.04-.04Z"/><path class="cls-11" d="M98.03,62.74v6.6c-.21-.12-.41-.25-.59-.38v-5.84c.17-.12,.36-.24,.56-.36l.03-.02Z"/><path class="cls-11" d="M99.52,62.07v7.95c-.21-.08-.42-.16-.62-.25v-7.46c.2-.09,.41-.17,.62-.24Z"/><path class="cls-11" d="M101.01,62.12v8.31c-.22-.05-.44-.1-.66-.16v-8.16h.66Z"/><path class="cls-11" d="M102.49,62.39v8.26c-.23-.02-.46-.05-.69-.08v-8.18h.69Z"/><path class="cls-11" d="M103.98,62.69v8.02c-.24,0-.48,0-.72,0v-8.01h.72Z"/></g><g><path class="cls-11" d="M111.24,63.97v3.79c-.14,.22-.32,.43-.52,.63v-4.63c.07,.07,.13,.14,.19,.21h.33Z"/><path class="cls-11" d="M109.8,63.02v6.11c-.12,.08-.24,.15-.36,.22-.07,.04-.15,.08-.23,.13v-6.81c.06,.03,.13,.07,.19,.11,.14,.08,.27,.16,.4,.25Z"/><path class="cls-11" d="M108.35,62.26v7.62c-.2,.08-.41,.16-.62,.23v-8.08c.21,.07,.42,.15,.62,.23Z"/><path class="cls-11" d="M106.89,62.12v8.23c-.22,.05-.43,.1-.66,.14v-8.37h.66Z"/><path class="cls-11" d="M105.44,62.39v8.22c-.23,.03-.46,.05-.69,.07v-8.28h.69Z"/></g></g><g><path class="cls-10" d="M95.66,66.17v-.08s0,.06,0,.08Z"/><path class="cls-10" d="M109.44,67.33c-3.14,1.81-8.24,1.8-11.4-.02-3.16-1.82-3.17-4.77-.04-6.58,3.14-1.81,8.24-1.8,11.4,.02,3.16,1.82,3.17,4.77,.04,6.58Z"/><path class="cls-2" d="M102.37,59.47c-.7,.33-1.38,.56-2.02,.85-.67,.21-1.27,.55-1.89,.82-.62,.28-1.15,.69-1.66,1.11-.48,.45-.89,.99-1.1,1.71-.06-.75,.26-1.46,.73-2.03,.48-.57,1.08-1.02,1.72-1.37,1.3-.71,2.76-1.04,4.22-1.17v.07Z"/><path class="cls-11" d="M110.69,64.25c-.08,.96-.75,1.9-2.02,2.63-2.72,1.57-7.14,1.56-9.87-.02-1.28-.74-1.97-1.7-2.05-2.67-.09-1.09,.58-2.2,2.02-3.03,2.72-1.57,7.14-1.56,9.87,.02,1.46,.84,2.14,1.97,2.05,3.07Z"/><path class="cls-8" d="M110.69,64.25c-.08,.96-.75,1.9-2.02,2.63-2.72,1.57-7.14,1.56-9.87-.02-1.28-.74-1.97-1.7-2.05-2.67,.08-.96,.76-1.9,2.02-2.63,2.72-1.57,7.14-1.56,9.87,.02,1.28,.74,1.97,1.7,2.05,2.67Z"/><path class="cls-2" d="M110.73,64.26c.19,.61,0,1.3-.35,1.85-.35,.56-.87,.95-1.39,1.3-.56,.27-1.13,.52-1.74,.61-.6,.09-1.21,.11-1.81-.04,1.12-.24,2.22-.59,3.21-1.15,.96-.55,1.89-1.41,2.01-2.57h.07Z"/><path class="cls-11" d="M100.6,66.4l-.77-.44v-.27l.84-.23c-.52-.34-.65-.81-.62-1.08v-.27c.06,.35,1.27,.64,1.9,1,.46,.27,1,.26,1.33,.08,.86-.5-1.69-1.63-.28-2.44,.56-.32,1.58-.65,2.67-.14l1.7-.39v.27l-.96,.53c.44,.29,.47,.69,.46,.93l-1.17,.12c-.07-.36-.17-.58-.52-.78-.37-.21-.87-.29-1.21-.09-.81,.47,1.88,1.57,.35,2.59-.44,.29-1.59,.71-2.86,.11l-.86,.51Z"/><path class="cls-10" d="M100.6,66.14l-.77-.44,.84-.5c-.52-.34-.65-.81-.62-1.08l1.22-.14c.06,.35,.06,.51,.69,.88,.46,.27,1,.26,1.33,.08,.86-.5-1.69-1.63-.28-2.44,.56-.32,1.58-.65,2.67-.14l.93-.56,.77,.44-.96,.53c.44,.29,.47,.69,.46,.93l-1.17,.12c-.07-.36-.17-.58-.52-.78-.37-.21-.87-.29-1.21-.09-.81,.47,1.88,1.57,.35,2.59-.44,.29-1.59,.71-2.86,.11l-.86,.51Z"/></g></g><g><g><path class="cls-8" d="M111.78,61.55v2.19c-.02,.54-.2,1.08-.54,1.6-.14,.22-.32,.43-.52,.63-.26,.26-.56,.51-.91,.74-.12,.08-.24,.15-.36,.22-.07,.04-.15,.08-.23,.13-.28,.15-.56,.28-.86,.4-.2,.08-.41,.16-.62,.23-.27,.09-.55,.17-.83,.24-.22,.05-.43,.1-.66,.14-.26,.05-.53,.09-.8,.12-.23,.03-.46,.05-.69,.07-.25,.02-.51,.03-.77,.03-.24,0-.48,0-.72,0-.26,0-.51-.02-.77-.05-.23-.02-.46-.05-.69-.08-.27-.04-.54-.08-.8-.14-.22-.05-.44-.1-.66-.16-.28-.08-.56-.16-.83-.26-.21-.08-.42-.16-.62-.25-.3-.13-.59-.28-.86-.43-.22-.13-.41-.25-.59-.38-.36-.26-.67-.53-.92-.82-.21-.24-.39-.5-.52-.75-.21-.39-.32-.8-.34-1.21,0-.03,0-.06,0-.08v-2.11h.83c.29-.33,.59-.6,.95-.86,.17-.12,.36-.24,.56-.36,.3-.17,.59-.32,.89-.44,.2-.09,.41-.17,.62-.24,2.5-.88,5.67-.89,8.2-.04,.21,.07,.42,.15,.62,.23,.3,.12,.59,.26,.86,.41,.06,.03,.13,.07,.19,.11,.14,.08,.27,.16,.4,.25,.35,.23,.66,.48,.91,.74,.07,.07,.13,.14,.19,.21h.87Z"/><g><path class="cls-11" d="M96.52,61.51v4.2c-.21-.24-.39-.5-.52-.75v-3.4h.48s.02-.03,.04-.04Z"/><path class="cls-11" d="M98.03,60.32v6.6c-.21-.12-.41-.25-.59-.38v-5.84c.17-.12,.36-.24,.56-.36,0,0,.02-.01,.03-.02Z"/><path class="cls-11" d="M99.52,59.65v7.95c-.21-.08-.42-.16-.62-.25v-7.46c.2-.09,.41-.17,.62-.24Z"/><path class="cls-11" d="M101.01,59.7v8.31c-.22-.05-.44-.1-.66-.16v-8.16h.66Z"/><path class="cls-11" d="M102.49,59.97v8.26c-.23-.02-.46-.05-.69-.08v-8.18h.69Z"/><path class="cls-11" d="M103.98,60.27v8.02c-.24,0-.48,0-.72,0v-8.01h.72Z"/></g><g><path class="cls-11" d="M111.24,61.55v3.79c-.14,.22-.32,.43-.52,.63v-4.63c.07,.07,.13,.14,.19,.21h.33Z"/><path class="cls-11" d="M109.8,60.6v6.11c-.12,.08-.24,.15-.36,.22-.07,.04-.15,.08-.23,.13v-6.81c.06,.03,.13,.07,.19,.11,.14,.08,.27,.16,.4,.25Z"/><path class="cls-11" d="M108.35,59.84v7.62c-.2,.08-.41,.16-.62,.23v-8.08c.21,.07,.42,.15,.62,.23Z"/><path class="cls-11" d="M106.89,59.7v8.23c-.22,.05-.43,.1-.66,.14v-8.37h.66Z"/><path class="cls-11" d="M105.44,59.97v8.22c-.23,.03-.46,.05-.69,.07v-8.28h.69Z"/></g></g><g><path class="cls-10" d="M95.66,63.75v-.08s0,.06,0,.08Z"/><path class="cls-10" d="M109.44,64.91c-3.14,1.81-8.24,1.8-11.4-.02-3.16-1.82-3.17-4.77-.04-6.58,3.14-1.81,8.24-1.8,11.4,.02,3.16,1.82,3.17,4.77,.04,6.58Z"/><path class="cls-2" d="M102.37,57.05c-.7,.33-1.38,.56-2.02,.85-.67,.21-1.27,.55-1.89,.82-.62,.28-1.15,.69-1.66,1.11-.48,.45-.89,.99-1.1,1.71-.06-.75,.26-1.46,.73-2.03,.48-.57,1.08-1.02,1.72-1.37,1.3-.71,2.76-1.04,4.22-1.17v.07Z"/><path class="cls-11" d="M110.69,61.84c-.08,.96-.75,1.9-2.02,2.63-2.72,1.57-7.14,1.56-9.87-.02-1.28-.74-1.97-1.7-2.05-2.67-.09-1.09,.58-2.2,2.02-3.03,2.72-1.57,7.14-1.56,9.87,.02,1.46,.84,2.14,1.97,2.05,3.07Z"/><path class="cls-8" d="M110.69,61.84c-.08,.96-.75,1.9-2.02,2.63-2.72,1.57-7.14,1.56-9.87-.02-1.28-.74-1.97-1.7-2.05-2.67,.08-.96,.76-1.9,2.02-2.63,2.72-1.57,7.14-1.56,9.87,.02,1.28,.74,1.97,1.7,2.05,2.67Z"/><path class="cls-2" d="M110.73,61.84c.19,.61,0,1.3-.35,1.85-.35,.56-.87,.95-1.39,1.3-.56,.27-1.13,.52-1.74,.61-.6,.09-1.21,.11-1.81-.04,1.12-.24,2.22-.59,3.21-1.15,.96-.55,1.89-1.41,2.01-2.57h.07Z"/><path class="cls-11" d="M100.6,63.99l-.77-.44v-.27l.84-.23c-.52-.34-.65-.81-.62-1.08v-.27c.06,.35,1.27,.64,1.9,1,.46,.27,1,.26,1.33,.08,.86-.5-1.69-1.63-.28-2.44,.56-.32,1.58-.65,2.67-.14l1.7-.39v.27l-.96,.53c.44,.29,.47,.7,.46,.93l-1.17,.12c-.07-.36-.17-.58-.52-.78-.37-.21-.87-.29-1.21-.09-.81,.47,1.88,1.57,.35,2.59-.44,.29-1.59,.71-2.86,.11l-.86,.51Z"/><path class="cls-10" d="M100.6,63.72l-.77-.44,.84-.5c-.52-.34-.65-.81-.62-1.08l1.22-.14c.06,.35,.06,.51,.69,.88,.46,.27,1,.26,1.33,.08,.86-.5-1.69-1.63-.28-2.44,.56-.32,1.58-.65,2.67-.14l.93-.56,.77,.44-.96,.53c.44,.29,.47,.7,.46,.93l-1.17,.12c-.07-.36-.17-.58-.52-.78-.37-.21-.87-.29-1.21-.09-.81,.47,1.88,1.57,.35,2.59-.44,.29-1.59,.71-2.86,.11l-.86,.51Z"/></g></g><g><g><path class="cls-8" d="M111.78,59.13v2.19c-.02,.54-.2,1.08-.54,1.6-.14,.22-.32,.43-.52,.63-.26,.26-.56,.51-.91,.74-.12,.08-.24,.15-.36,.22-.07,.04-.15,.08-.23,.13-.28,.15-.56,.28-.86,.4-.2,.08-.41,.16-.62,.23-.27,.09-.55,.17-.83,.24-.22,.05-.43,.1-.66,.14-.26,.05-.53,.09-.8,.12-.23,.03-.46,.05-.69,.07-.25,.02-.51,.03-.77,.03-.24,0-.48,0-.72,0-.26,0-.51-.02-.77-.05-.23-.02-.46-.05-.69-.08-.27-.04-.54-.08-.8-.14-.22-.05-.44-.1-.66-.16-.28-.08-.56-.16-.83-.26-.21-.08-.42-.16-.62-.25-.3-.13-.59-.28-.86-.43-.22-.13-.41-.25-.59-.38-.36-.26-.67-.53-.92-.82-.21-.24-.39-.5-.52-.75-.21-.39-.32-.8-.34-1.21,0-.03,0-.06,0-.08v-2.11h.83c.29-.33,.59-.6,.95-.86,.17-.12,.36-.24,.56-.36,.3-.17,.59-.32,.89-.44,.2-.09,.41-.17,.62-.24,2.5-.88,5.67-.89,8.2-.04,.21,.07,.42,.15,.62,.23,.3,.12,.59,.26,.86,.41,.06,.03,.13,.07,.19,.11,.14,.08,.27,.16,.4,.25,.35,.23,.66,.48,.91,.74,.07,.07,.13,.14,.19,.21h.87Z"/><g><path class="cls-11" d="M96.52,59.09v4.2c-.21-.24-.39-.5-.52-.75v-3.4h.48s.02-.03,.04-.04Z"/><path class="cls-11" d="M98.03,57.9v6.6c-.21-.12-.41-.25-.59-.38v-5.84c.17-.12,.36-.24,.56-.36l.03-.02Z"/><path class="cls-11" d="M99.52,57.23v7.95c-.21-.08-.42-.16-.62-.25v-7.46c.2-.09,.41-.17,.62-.24Z"/><path class="cls-11" d="M101.01,57.28v8.31c-.22-.05-.44-.1-.66-.16v-8.16h.66Z"/><path class="cls-11" d="M102.49,57.55v8.26c-.23-.02-.46-.05-.69-.08v-8.18h.69Z"/><path class="cls-11" d="M103.98,57.85v8.02c-.24,0-.48,0-.72,0v-8.01h.72Z"/></g><g><path class="cls-11" d="M111.24,59.13v3.79c-.14,.22-.32,.43-.52,.63v-4.63c.07,.07,.13,.14,.19,.21h.33Z"/><path class="cls-11" d="M109.8,58.18v6.11c-.12,.08-.24,.15-.36,.22-.07,.04-.15,.08-.23,.13v-6.81c.06,.03,.13,.07,.19,.11,.14,.08,.27,.16,.4,.25Z"/><path class="cls-11" d="M108.35,57.42v7.62c-.2,.08-.41,.16-.62,.23v-8.08c.21,.07,.42,.15,.62,.23Z"/><path class="cls-11" d="M106.89,57.28v8.23c-.22,.05-.43,.1-.66,.14v-8.37h.66Z"/><path class="cls-11" d="M105.44,57.55v8.22c-.23,.03-.46,.05-.69,.07v-8.28h.69Z"/></g></g><g><path class="cls-10" d="M95.66,61.33v-.08s0,.06,0,.08Z"/><path class="cls-10" d="M109.44,62.49c-3.14,1.81-8.24,1.8-11.4-.02-3.16-1.82-3.17-4.77-.04-6.58,3.14-1.81,8.24-1.8,11.4,.02,3.16,1.82,3.17,4.77,.04,6.58Z"/><path class="cls-2" d="M102.37,54.63c-.7,.33-1.38,.56-2.02,.85-.67,.21-1.27,.55-1.89,.82-.62,.28-1.15,.69-1.66,1.11-.48,.45-.89,.99-1.1,1.71-.06-.75,.26-1.46,.73-2.03,.48-.57,1.08-1.02,1.72-1.37,1.3-.71,2.76-1.04,4.22-1.17v.07Z"/><path class="cls-11" d="M110.69,59.42c-.08,.96-.75,1.9-2.02,2.63-2.72,1.57-7.14,1.56-9.87-.02-1.28-.74-1.97-1.7-2.05-2.67-.09-1.09,.58-2.2,2.02-3.03,2.72-1.57,7.14-1.56,9.87,.02,1.46,.84,2.14,1.97,2.05,3.07Z"/><path class="cls-8" d="M110.69,59.42c-.08,.96-.75,1.9-2.02,2.63-2.72,1.57-7.14,1.56-9.87-.02-1.28-.74-1.97-1.7-2.05-2.67,.08-.96,.76-1.9,2.02-2.63,2.72-1.57,7.14-1.56,9.87,.02,1.28,.74,1.97,1.7,2.05,2.67Z"/><path class="cls-2" d="M110.73,59.42c.19,.61,0,1.3-.35,1.85-.35,.56-.87,.95-1.39,1.3-.56,.27-1.13,.52-1.74,.61-.6,.09-1.21,.11-1.81-.04,1.12-.24,2.22-.59,3.21-1.15,.96-.55,1.89-1.41,2.01-2.57h.07Z"/><path class="cls-11" d="M100.6,61.57l-.77-.44v-.27l.84-.23c-.52-.34-.65-.81-.62-1.08v-.27c.06,.35,1.27,.64,1.9,1,.46,.27,1,.26,1.33,.08,.86-.5-1.69-1.63-.28-2.44,.56-.32,1.58-.65,2.67-.14l1.7-.39v.27l-.96,.53c.44,.29,.47,.69,.46,.93l-1.17,.12c-.07-.36-.17-.58-.52-.78-.37-.21-.87-.29-1.21-.09-.81,.47,1.88,1.57,.35,2.59-.44,.29-1.59,.71-2.86,.11l-.86,.51Z"/><path class="cls-10" d="M100.6,61.3l-.77-.44,.84-.5c-.52-.34-.65-.81-.62-1.08l1.22-.14c.06,.35,.06,.51,.69,.88,.46,.27,1,.26,1.33,.08,.86-.5-1.69-1.63-.28-2.44,.56-.32,1.58-.65,2.67-.14l.93-.56,.77,.44-.96,.53c.44,.29,.47,.69,.46,.93l-1.17,.12c-.07-.36-.17-.58-.52-.78-.37-.21-.87-.29-1.21-.09-.81,.47,1.88,1.57,.35,2.59-.44,.29-1.59,.71-2.86,.11l-.86,.51Z"/></g></g><g><g><path class="cls-8" d="M111.78,56.71v2.19c-.02,.54-.2,1.08-.54,1.6-.14,.22-.32,.43-.52,.63-.26,.26-.56,.51-.91,.74-.12,.08-.24,.15-.36,.22-.07,.04-.15,.08-.23,.13-.28,.15-.56,.28-.86,.4-.2,.08-.41,.16-.62,.23-.27,.09-.55,.17-.83,.24-.22,.05-.43,.1-.66,.14-.26,.05-.53,.09-.8,.12-.23,.03-.46,.05-.69,.07-.25,.02-.51,.03-.77,.03-.24,0-.48,0-.72,0-.26,0-.51-.02-.77-.05-.23-.02-.46-.05-.69-.08-.27-.04-.54-.08-.8-.14-.22-.05-.44-.1-.66-.16-.28-.08-.56-.16-.83-.26-.21-.08-.42-.16-.62-.25-.3-.13-.59-.28-.86-.43-.22-.13-.41-.25-.59-.38-.36-.26-.67-.53-.92-.82-.21-.24-.39-.5-.52-.75-.21-.39-.32-.8-.34-1.21,0-.03,0-.06,0-.08v-2.11h.83c.29-.33,.59-.6,.95-.86,.17-.12,.36-.24,.56-.36,.3-.17,.59-.32,.89-.44,.2-.09,.41-.17,.62-.24,2.5-.88,5.67-.89,8.2-.04,.21,.07,.42,.15,.62,.23,.3,.12,.59,.26,.86,.41,.06,.03,.13,.07,.19,.11,.14,.08,.27,.16,.4,.25,.35,.23,.66,.48,.91,.74,.07,.07,.13,.14,.19,.21h.87Z"/><g><path class="cls-11" d="M96.52,56.67v4.2c-.21-.24-.39-.5-.52-.75v-3.4h.48s.02-.03,.04-.04Z"/><path class="cls-11" d="M98.03,55.48v6.6c-.21-.12-.41-.25-.59-.38v-5.84c.17-.12,.36-.24,.56-.36,0,0,.02-.01,.03-.02Z"/><path class="cls-11" d="M99.52,54.81v7.95c-.21-.08-.42-.16-.62-.25v-7.46c.2-.09,.41-.17,.62-.24Z"/><path class="cls-11" d="M101.01,54.86v8.31c-.22-.05-.44-.1-.66-.16v-8.16h.66Z"/><path class="cls-11" d="M102.49,55.13v8.26c-.23-.02-.46-.05-.69-.08v-8.18h.69Z"/><path class="cls-11" d="M103.98,55.43v8.02c-.24,0-.48,0-.72,0v-8.01h.72Z"/></g><g><path class="cls-11" d="M111.24,56.71v3.79c-.14,.22-.32,.43-.52,.63v-4.63c.07,.07,.13,.14,.19,.21h.33Z"/><path class="cls-11" d="M109.8,55.76v6.11c-.12,.08-.24,.15-.36,.22-.07,.04-.15,.08-.23,.13v-6.81c.06,.03,.13,.07,.19,.11,.14,.08,.27,.16,.4,.25Z"/><path class="cls-11" d="M108.35,55v7.62c-.2,.08-.41,.16-.62,.23v-8.08c.21,.07,.42,.15,.62,.23Z"/><path class="cls-11" d="M106.89,54.86v8.23c-.22,.05-.43,.1-.66,.14v-8.37h.66Z"/><path class="cls-11" d="M105.44,55.13v8.22c-.23,.03-.46,.05-.69,.07v-8.28h.69Z"/></g></g><g><path class="cls-10" d="M95.66,58.91v-.08s0,.06,0,.08Z"/><path class="cls-10" d="M109.44,60.07c-3.14,1.81-8.24,1.8-11.4-.02-3.16-1.82-3.17-4.77-.04-6.58,3.14-1.81,8.24-1.8,11.4,.02,3.16,1.82,3.17,4.77,.04,6.58Z"/><path class="cls-2" d="M102.37,52.21c-.7,.33-1.38,.56-2.02,.85-.67,.21-1.27,.55-1.89,.82-.62,.28-1.15,.69-1.66,1.11-.48,.45-.89,.99-1.1,1.71-.06-.75,.26-1.46,.73-2.03,.48-.57,1.08-1.02,1.72-1.37,1.3-.71,2.76-1.04,4.22-1.17v.07Z"/><path class="cls-11" d="M110.69,57c-.08,.96-.75,1.9-2.02,2.63-2.72,1.57-7.14,1.56-9.87-.02-1.28-.74-1.97-1.7-2.05-2.67-.09-1.09,.58-2.2,2.02-3.03,2.72-1.57,7.14-1.56,9.87,.02,1.46,.84,2.14,1.97,2.05,3.07Z"/><path class="cls-8" d="M110.69,57c-.08,.96-.75,1.9-2.02,2.63-2.72,1.57-7.14,1.56-9.87-.02-1.28-.74-1.97-1.7-2.05-2.67,.08-.96,.76-1.9,2.02-2.63,2.72-1.57,7.14-1.56,9.87,.02,1.28,.74,1.97,1.7,2.05,2.67Z"/><path class="cls-2" d="M110.73,57c.19,.61,0,1.3-.35,1.85-.35,.56-.87,.95-1.39,1.3-.56,.27-1.13,.52-1.74,.61-.6,.09-1.21,.11-1.81-.04,1.12-.24,2.22-.59,3.21-1.15,.96-.55,1.89-1.41,2.01-2.57h.07Z"/><path class="cls-11" d="M100.6,59.15l-.77-.44v-.27l.84-.23c-.52-.34-.65-.81-.62-1.08v-.27c.06,.35,1.27,.64,1.9,1,.46,.27,1,.26,1.33,.08,.86-.5-1.69-1.63-.28-2.44,.56-.32,1.58-.65,2.67-.14l1.7-.39v.27l-.96,.53c.44,.29,.47,.69,.46,.93l-1.17,.12c-.07-.36-.17-.58-.52-.78-.37-.21-.87-.29-1.21-.09-.81,.47,1.88,1.57,.35,2.59-.44,.29-1.59,.71-2.86,.11l-.86,.51Z"/><path class="cls-10" d="M100.6,58.88l-.77-.44,.84-.5c-.52-.34-.65-.81-.62-1.08l1.22-.14c.06,.35,.06,.51,.69,.88,.46,.27,1,.26,1.33,.08,.86-.5-1.69-1.63-.28-2.44,.56-.32,1.58-.65,2.67-.14l.93-.56,.77,.44-.96,.53c.44,.29,.47,.69,.46,.93l-1.17,.12c-.07-.36-.17-.58-.52-.78-.37-.21-.87-.29-1.21-.09-.81,.47,1.88,1.57,.35,2.59-.44,.29-1.59,.71-2.86,.11l-.86,.51Z"/></g></g><g><g><path class="cls-8" d="M111.78,54.3v2.19c-.02,.54-.2,1.08-.54,1.6-.14,.22-.32,.43-.52,.63-.26,.26-.56,.51-.91,.74-.12,.08-.24,.15-.36,.22-.07,.04-.15,.08-.23,.13-.28,.15-.56,.28-.86,.4-.2,.08-.41,.16-.62,.23-.27,.09-.55,.17-.83,.24-.22,.05-.43,.1-.66,.14-.26,.05-.53,.09-.8,.12-.23,.03-.46,.05-.69,.07-.25,.02-.51,.03-.77,.03-.24,0-.48,0-.72,0-.26,0-.51-.02-.77-.05-.23-.02-.46-.05-.69-.08-.27-.04-.54-.08-.8-.14-.22-.05-.44-.1-.66-.16-.28-.08-.56-.16-.83-.26-.21-.08-.42-.16-.62-.25-.3-.13-.59-.28-.86-.43-.22-.13-.41-.25-.59-.38-.36-.26-.67-.53-.92-.82-.21-.24-.39-.5-.52-.75-.21-.39-.32-.8-.34-1.21,0-.03,0-.06,0-.08v-2.11h.83c.29-.33,.59-.6,.95-.86,.17-.12,.36-.24,.56-.36,.3-.17,.59-.32,.89-.44,.2-.09,.41-.17,.62-.24,2.5-.88,5.67-.89,8.2-.04,.21,.07,.42,.15,.62,.23,.3,.12,.59,.26,.86,.41,.06,.03,.13,.07,.19,.11,.14,.08,.27,.16,.4,.25,.35,.23,.66,.48,.91,.74,.07,.07,.13,.14,.19,.21h.87Z"/><g><path class="cls-11" d="M96.52,54.25v4.2c-.21-.24-.39-.5-.52-.75v-3.4h.48s.02-.03,.04-.04Z"/><path class="cls-11" d="M98.03,53.06v6.6c-.21-.12-.41-.25-.59-.38v-5.84c.17-.12,.36-.24,.56-.36l.03-.02Z"/><path class="cls-11" d="M99.52,52.39v7.95c-.21-.08-.42-.16-.62-.25v-7.46c.2-.09,.41-.17,.62-.24Z"/><path class="cls-11" d="M101.01,52.44v8.31c-.22-.05-.44-.1-.66-.16v-8.16h.66Z"/><path class="cls-11" d="M102.49,52.71v8.26c-.23-.02-.46-.05-.69-.08v-8.18h.69Z"/><path class="cls-11" d="M103.98,53.01v8.02c-.24,0-.48,0-.72,0v-8.01h.72Z"/></g><g><path class="cls-11" d="M111.24,54.3v3.79c-.14,.22-.32,.43-.52,.63v-4.63c.07,.07,.13,.14,.19,.21h.33Z"/><path class="cls-11" d="M109.8,53.35v6.11c-.12,.08-.24,.15-.36,.22-.07,.04-.15,.08-.23,.13v-6.81c.06,.03,.13,.07,.19,.11,.14,.08,.27,.16,.4,.25Z"/><path class="cls-11" d="M108.35,52.58v7.62c-.2,.08-.41,.16-.62,.23v-8.08c.21,.07,.42,.15,.62,.23Z"/><path class="cls-11" d="M106.89,52.44v8.23c-.22,.05-.43,.1-.66,.14v-8.37h.66Z"/><path class="cls-11" d="M105.44,52.71v8.22c-.23,.03-.46,.05-.69,.07v-8.28h.69Z"/></g></g><g><path class="cls-10" d="M95.66,56.49v-.08s0,.06,0,.08Z"/><path class="cls-10" d="M109.44,57.65c-3.14,1.81-8.24,1.8-11.4-.02-3.16-1.82-3.17-4.77-.04-6.58,3.14-1.81,8.24-1.8,11.4,.02,3.16,1.82,3.17,4.77,.04,6.58Z"/><path class="cls-2" d="M102.37,49.79c-.7,.33-1.38,.56-2.02,.85-.67,.21-1.27,.55-1.89,.82-.62,.28-1.15,.69-1.66,1.11-.48,.45-.89,.99-1.1,1.71-.06-.75,.26-1.46,.73-2.03,.48-.57,1.08-1.02,1.72-1.37,1.3-.71,2.76-1.04,4.22-1.17v.07Z"/><path class="cls-11" d="M110.69,54.58c-.08,.96-.75,1.9-2.02,2.63-2.72,1.57-7.14,1.56-9.87-.02-1.28-.74-1.97-1.7-2.05-2.67-.09-1.09,.58-2.2,2.02-3.03,2.72-1.57,7.14-1.56,9.87,.02,1.46,.84,2.14,1.97,2.05,3.07Z"/><path class="cls-1" d="M110.69,54.58c-.08,.96-.75,1.9-2.02,2.63-2.72,1.57-7.14,1.56-9.87-.02-1.28-.74-1.97-1.7-2.05-2.67,.08-.96,.76-1.9,2.02-2.63,2.72-1.57,7.14-1.56,9.87,.02,1.28,.74,1.97,1.7,2.05,2.67Z"/><path class="cls-2" d="M110.73,54.58c.19,.61,0,1.3-.35,1.85-.35,.56-.87,.95-1.39,1.3-.56,.27-1.13,.52-1.74,.61-.6,.09-1.21,.11-1.81-.04,1.12-.24,2.22-.59,3.21-1.15,.96-.55,1.89-1.41,2.01-2.57h.07Z"/><path class="cls-11" d="M100.6,56.73l-.77-.44v-.27l.84-.23c-.52-.34-.65-.81-.62-1.08v-.27c.06,.35,1.27,.64,1.9,1,.46,.27,1,.26,1.33,.08,.86-.5-1.69-1.63-.28-2.44,.56-.32,1.58-.65,2.67-.14l1.7-.39v.27l-.96,.53c.44,.29,.47,.69,.46,.93l-1.17,.12c-.07-.36-.17-.58-.52-.78-.37-.21-.87-.29-1.21-.09-.81,.47,1.88,1.57,.35,2.59-.44,.29-1.59,.71-2.86,.11l-.86,.51Z"/><path class="cls-10" d="M100.6,56.46l-.77-.44,.84-.5c-.52-.34-.65-.81-.62-1.08l1.22-.14c.06,.35,.06,.51,.69,.88,.46,.27,1,.26,1.33,.08,.86-.5-1.69-1.63-.28-2.44,.56-.32,1.58-.65,2.67-.14l.93-.56,.77,.44-.96,.53c.44,.29,.47,.69,.46,.93l-1.17,.12c-.07-.36-.17-.58-.52-.78-.37-.21-.87-.29-1.21-.09-.81,.47,1.88,1.57,.35,2.59-.44,.29-1.59,.71-2.86,.11l-.86,.51Z"/></g></g></g><g><g><g><path class="cls-18" d="M54.2,113.52l17.87-10.32c.89-.51,1.18-3.14,.15-3.73l-31.07-15.98c-1.03-.59-2.58-.66-3.47-.14l-18.47,8.57c-.89,.51-.18,3.17,.85,3.76l30.67,17.71c1.03,.59,2.58,.66,3.47,.14Z"/><path class="cls-9" d="M20.05,93.54l30.67,17.71c1.03,.59,2.58,.66,3.48,.14l17.87-10.32c.89-.51,.78-1.41-.25-2.01l-30.67-17.71c-1.03-.59-2.58-.66-3.47-.14l-17.87,10.32c-.89,.51-.78,1.41,.25,2.01Z"/><path class="cls-13" d="M67.57,97.14l-25.23-14.57c-.75-.44-1.9-.48-2.55-.11l-17.81,10.28c-.65,.38-.57,1.04,.18,1.47l25.23,14.57c.75,.44,1.9,.48,2.55,.11l17.81-10.28c.65-.38,.57-1.04-.18-1.47Z"/><path class="cls-20" d="M48.84,108.73c.36,0,.68-.07,.9-.2l17.81-10.28c.09-.05,.23-.15,.23-.28,0-.11-.11-.29-.41-.47l-25.23-14.57c-.33-.19-.78-.3-1.23-.3-.36,0-.68,.07-.9,.2l-17.81,10.28c-.09,.05-.23,.15-.23,.28,0,.11,.11,.29,.41,.47l25.23,14.57c.33,.19,.78,.3,1.23,.3Z"/></g><path class="cls-22" d="M50.72,111.24c1.03,.59,2.58,.66,3.48,.14l17.87-10.32c.89-.51,.78-1.41-.25-2.01l-30.67-17.71c-1.03-.59-2.58-.66-3.47-.14l13.05,30.03Z"/><path class="cls-17" d="M30.33,87.16l2.96-1.71c.19-.11,.17-.3-.05-.43-.22-.13-.55-.14-.74-.03l-2.96,1.71c-.19,.11-.17,.3,.05,.43,.22,.13,.55,.14,.74,.03Z"/><path class="cls-17" d="M23.43,90.54c.3,.17,.79,.17,1.1,0,.3-.18,.31-.46,0-.63-.3-.17-.79-.17-1.1,0-.3,.18-.31,.46,0,.63Z"/></g><path class="cls-16" d="M42.53,93.42v.32c0-.1,.04-.2,.09-.31h-.09Z"/></g><g><g><g><polygon class="cls-21" points="86.2 92.73 55.07 74.76 72.19 64.87 103.32 82.85 86.2 92.73"/><polygon class="cls-23" points="86.2 92.18 55.07 74.21 72.19 64.33 103.32 82.3 86.2 92.18"/></g><g><polygon class="cls-21" points="86.2 91.95 55.07 73.98 72.19 64.1 103.32 82.07 86.2 91.95"/><polygon class="cls-23" points="86.2 91.4 55.07 73.43 72.19 63.55 103.32 81.52 86.2 91.4"/></g><g><polygon class="cls-21" points="86.2 91.17 55.07 73.2 72.19 63.32 103.32 81.29 86.2 91.17"/><polygon class="cls-23" points="86.2 90.63 55.07 72.66 72.19 62.77 103.32 80.74 86.2 90.63"/></g><g><polygon class="cls-21" points="86.2 90.4 55.07 72.43 72.19 62.54 103.32 80.52 86.2 90.4"/><polygon class="cls-23" points="86.2 89.85 55.07 71.88 72.19 62 103.32 79.97 86.2 89.85"/></g><g><polygon class="cls-21" points="86.2 89.62 55.07 71.65 72.19 61.77 103.32 79.74 86.2 89.62"/><polygon class="cls-23" points="86.2 89.07 55.07 71.1 72.19 61.22 103.32 79.19 86.2 89.07"/></g><g><polygon class="cls-21" points="86.2 88.84 55.07 70.87 72.19 60.99 103.32 78.96 86.2 88.84"/><polygon class="cls-23" points="86.2 88.3 55.07 70.33 72.19 60.44 103.32 78.41 86.2 88.3"/></g><g><polygon class="cls-21" points="86.2 88.07 55.07 70.1 72.19 60.21 103.32 78.19 86.2 88.07"/><polygon class="cls-23" points="86.2 87.52 55.07 69.55 72.19 59.67 103.32 77.64 86.2 87.52"/></g><g><polygon class="cls-21" points="86.2 87.29 55.07 69.32 72.19 59.44 103.32 77.41 86.2 87.29"/><polygon class="cls-23" points="86.2 86.74 55.07 68.77 72.19 58.89 103.32 76.86 86.2 86.74"/></g></g><g><g><polygon class="cls-21" points="86.05 86.37 54.93 68.39 72.04 58.51 103.17 76.48 86.05 86.37"/><path class="cls-23" d="M60.82,66.28l7.56-4.36c1.62,.94,4.45,.82,6.32-.26l23.03,13.29c-1.87,1.08-2.07,2.71-.45,3.65l-7.56,4.36c-1.62-.94-4.45-.82-6.32,.26l-23.03-13.29c1.87-1.08,2.07-2.72,.45-3.65Z"/><path class="cls-21" d="M74.8,75.71l-.82,.47-1.3-.75,.82-.47c-.46-.38-.71-.81-.76-1.27-.05-.51,.24-1.02,.89-1.55l1.97,.59c-.6,.44-.89,.79-.86,1.06,.01,.13,.06,.26,.14,.38l2.9-1.68c-.34-.43-.54-.88-.59-1.36-.07-.63,.25-1.15,.97-1.57s1.63-.6,2.74-.56c.8,.03,1.53,.17,2.18,.43l.81-.47,1.3,.75-.81,.47c.46,.38,.71,.81,.76,1.27,.05,.51-.24,1.02-.89,1.55l-1.97-.59c.6-.44,.89-.79,.86-1.06-.01-.13-.06-.26-.14-.38l-2.9,1.68c.34,.43,.54,.88,.59,1.36,.07,.63-.25,1.15-.97,1.57-.72,.42-1.63,.6-2.73,.56-.81-.03-1.54-.17-2.2-.43Zm4.52-4.11l2.39-1.38c-.2-.04-.41-.07-.63-.08-.55-.02-1.01,.08-1.38,.29-.36,.21-.54,.47-.5,.78,.01,.12,.06,.25,.12,.39Zm-.74,1.93l-2.39,1.38c.2,.04,.41,.07,.64,.08,.54,.02,1-.08,1.37-.29,.36-.21,.54-.47,.5-.78-.01-.12-.06-.25-.12-.39Z"/></g><g><polygon class="cls-21" points="90.35 79.81 84.19 76.26 85.79 75.33 91.94 78.89 90.35 79.81"/><polygon class="cls-21" points="72.44 69.47 66.28 65.92 67.88 64.99 74.04 68.55 72.44 69.47"/></g></g></g><g><g><g><polygon class="cls-19" points="25.02 79.02 49.46 64.91 49.46 60.88 25.02 74.99 25.02 79.02"/><polygon class="cls-5" points="25.02 79.02 12.37 71.72 12.37 67.69 25.02 74.99 25.02 79.02"/><polygon class="cls-7" points="25.02 75.08 49.46 60.97 36.8 53.67 12.37 67.78 25.02 75.08"/></g><g><path class="cls-13" d="M3.42,79.3c.65,0,1.31-.19,1.94-.55l53.71-31.01c1.93-1.12,3.39-3.83,3.39-6.31l1.2-37.36c0-2.8-2.97-4.08-4.62-4.08-.65,0-1.31,.19-1.94,.55L3.39,31.56c-1.93,1.12-3.39,3.83-3.39,6.31v37.36c0,2.8,1.77,4.08,3.42,4.08Z"/><path class="cls-5" d="M5.13,80.29c.65,0,1.31-.19,1.94-.55l53.71-31.01c1.93-1.12,3.39-3.83,3.39-6.31V5.06c0-2.8-1.77-4.08-3.42-4.08-.65,0-1.31,.19-1.94,.55L5.1,32.55c-1.93,1.12-3.39,3.83-3.39,6.31v37.36c0,2.8,1.77,4.08,3.42,4.08Z"/><path class="cls-13" d="M3.67,38.86v37.36c0,.64,.14,1.16,.39,1.52,.42,.63,1.17,.78,2.01,.3l53.71-31.01c1.33-.77,2.41-2.83,2.41-4.6V5.06c0-1.17-.47-1.92-1.16-2.08-.37-.09-.79,0-1.25,.26L6.08,34.26c-1.33,.77-2.41,2.82-2.41,4.6Z"/><path class="cls-2" d="M3.67,38.86v37.36c0,.64,.14,1.16,.39,1.52,.36,.09,.79,.01,1.25-.25l53.71-31.01c1.33-.77,2.41-2.83,2.41-4.61V4.51c0-.65-.14-1.17-.39-1.53-.37-.09-.79,0-1.25,.26L4.58,34.26c-1.33,.77-.91,2.82-.91,4.6Z"/></g></g><g><g><ellipse class="cls-15" cx="38.2" cy="38.49" rx="13.06" ry="13.08"/><path class="cls-17" d="M50.59,34.32c-.18-.19-.46-.29-.57-.53-.03-.06-.04-.1-.04-.14-.18,.03-.29,.06-.43-.05-.1-.08-.18-.19-.27-.28-.03-.03-.11-.12-.14-.11-.05,0-.03,.05-.05,.07-.02,.04-.03,.08-.06,.09-.1,.01-.16-.04-.2-.1-.14-.13-.13-.21-.26-.18-.15,.03-.2,.17-.37,.08-.03-.02-.04-.04-.06-.05-.01,0,.03,.07,.05,.11-.02,.07-.03,.08-.05,.09-.01,.02-.03,.03-.05,.02-.07-.04-.06-.08-.04-.12,0-.05,.03-.09,.05-.12-.01-.07-.03-.07-.08-.04-.04,.05-.08,.12-.08,.12-.06,0-.21,.03-.18,.03-.03,0-.07-.02-.1-.04-.07-.02-.13-.05-.18-.07-.04-.01-.09-.01-.14-.01-.02,0-.05,0-.07,0-.08,0-.15-.01-.23-.07l-.13-.17s-.02-.04-.03-.06c-.02-.03,0-.17,0-.17,.05-.05,.07-.05,.12-.06,.02,0,.04,0,.06,0-.04-.06-.21,.02-.26-.04,0,0,0-.04,0-.08,.03,0,.06-.01,.08-.06,.02-.04,.04-.11,.05-.12,.02,0,.03,.02,.04,.05-.04-.07-.1-.18-.05-.15,0-.14-.11-.11-.17-.18-.02-.03-.02-.04-.03-.05,.02-.03-.32-.66-.32-.66,.12,.07,.23,.16,.35,.2,.09,.03,.15,.02,.22,.04,.03,0,.04,.02,.06,.03,0-.05-.02-.06-.03-.09,0-.02-.01-.03-.02-.05-.01-.05-.06-.12-.13-.18-.03-.02-.06-.05-.1-.07-.03-.02-.07-.05-.09-.07,.03-.05,.02-.06,.03-.07,0-.02,0-.04-.01-.06,.21-.08,.39-.19,.57-.3-.18,.03-.48,.15-.66,.12-.07,.03-.12,.05-.16,.05-.02,.01-.04,0-.05-.01,0,.03,0,.05,0,.06-.04,.09-.06,.11-.07,.14-.01,.02-.03,.05-.03,.08-.1-.04-.11-.19-.13-.28,0-.03-.01-.05-.02-.07,0-.01-.02,0-.05,.04-.01,.04,.01,.18,0,.24-.05,.04-.18-.14-.21-.18,.02,.04,0,.05,0,.05,0,.03-.11-.12-.14-.18-.09,.04-.07-.05-.06-.1-.01-.08-.08-.15-.03-.17,0,0-.03,0-.06-.02-.03,0-.06,0-.09-.05-.05,.1,.04,.18,.05,.26-.02,.07-.05,.06-.08,.05-.07-.05-.11-.09-.11-.09-.02,.07-.05,.05-.09,.02-.09,0-.22-.06-.25-.1-.06-.09,.05-.28,.04-.38,.07-.06,.06-.08,.03-.09-.02,0-.05,0-.07,0-.06,0-.12,0-.14-.03,.02-.05,.05-.04,.02-.07-.1-.05-.1-.08-.08-.08-.02-.02-.03-.04-.04-.05-.01-.05,.02-.08,.03-.13-.01-.02-.04-.04-.02-.07,.05-.05,.06-.06,.1-.04-.06-.06-.13-.15-.06-.19-.04,0-.07-.02-.08-.05-.02-.01-.04-.03-.04-.06,0-.02,.02-.05,.05-.07,.01-.02,.03-.03,.06-.03,.17,.19,.13,.13,.06,.16,.03,.02,.14,.02,.15,.02,.05-.04,.08-.03,.11-.02,.02,0-.11-.08-.19-.14-.03-.02-.05-.03-.07-.04,.03-.04,.06-.05,.08-.04,0-.02-.05-.06-.09-.09,.02,.02,.04,.04,.07,.06-.06-.05-.08-.05-.17-.08,.05,.07-.02,.09-.1,.1-.16-.02-.18-.03-.18-.04-.04-.13,.13-.19,.19-.18-.04-.03-.07-.05-.07-.07-.05-.02,0,.02-.03,.04-.04,.03-.1,0-.15,.01l-.07,.05s.05,.03,.07,.05c-.11,.04-.33,0-.33-.04-.07,0-.13-.04-.2-.05-.05,0-.09,.03-.15,.02-.03,0-.05-.02-.08-.02-.05-.01-.08-.02-.1-.03-.07-.02-.14-.04-.22-.04-.1,0-.29,.02-.46,.01,.02,0,.04,.01,.06,.02-.03,.06-.05,.06-.08,.06,.11,.11,.34,.04,.47,.03,.06,0,.11-.02,.14-.02,.03,0,.08,0,.11,.01,.1,.07,.02,.05,0,.14,.06-.02,.07-.03,.09-.03,.06,.02,.08,.04,.08,.05-.01,.03-.03,.03-.05,.02,.09,.05,.06,.11,.02,.13-.02,.01-.05,.02-.07,0-.08,0-.05,.03-.04,.04-.04,.02-.06,.01-.08,0,0,0-.07,.01-.12,.01-.01,.04-.03,.05-.03,.05-.05,.03-.15,.02-.14,.09,.04,.01,.06,.03,.07,.05,0,.04,0,.05-.02,.07,.03,0,.05,.02,.07,.03,.04,.02,.07,.06,.1,.1,0,.04-.02,.04-.04,.03,.02,0,.03,.01,.05,.02,.02,.01,.04,.02,.05,.04,.02,.02,.04,.03,.05,.04,.02,.04,0,.04-.02,.03,.05,.03,.17,.08,.18,.13,.01,.02,0,.04-.03,.06-.02,.01-.04,0-.06,0-.04,0-.08-.03-.11-.05,.05,.16,.03,.17,0,.17,.02,.02,.03,.04,.04,.04,.05,0,.07-.05,.11-.08-.03-.02-.05-.04-.06-.06,.1,0,.15,.01,.2,.09,.03-.02,.07,0,.11,.02,.06,.04,.1,.1,.06,.14-.08,.04-.11,.04-.13,.04-.1-.01-.14-.07-.09-.15-.05,.01-.05,.05-.11,.03,.02,.06,.15,.21,.2,.23,.03,0,.07-.06,.09-.05,.14,.04,.27,.12,.37,.19,.02,.02,.04,.03,.06,.04-.01,.02-.03,.03-.05,.03,.08,.04,.09,.05,.13,.11,.02,.02,.04,.04,.05,.06,.02,.02,.04,.05,0,.05,.03,.06,.05,.08,.06,.09,.04,.04,.08,.07,.1,.12,.03,.11,.15,.31,.12,.4,.06,.11,.05,.17,.09,.27-.04,0-.05,0-.07,0-.07,.01-.04,0-.08,0-.1,.05-.03,.23-.14,.2,.01,.03,0,.05,0,.06,0,.02-.02,.03-.05,.03-.1,0-.39-.23-.47-.33-.08-.07-.14-.14-.25-.19-.04-.02-.08-.04-.12-.05-.03-.01-.06-.03-.08-.04-.05-.03-.07-.05-.09-.07-.04-.05-.06-.09-.07-.13-.11,0-.13-.04-.2-.06-.04,0-.06,0-.08,0-.03,0-.05,.02-.09-.01-.03,.04-.07,.03-.1,.02-.06-.01-.12-.03-.18-.04-.11-.03-.22-.07-.33-.12-.1-.08-.14-.08-.18-.09-.04-.01-.09-.03-.1-.12-.04,.15-.23,.12-.38,.1-.03,0-.06,0-.09,0-.2-.01-.56-.07-.71-.21,.03,0,.05-.01,.07-.02,.11-.02,.2-.05,.32-.05-.04-.01-.12-.01-.14-.03-.03-.05-.03-.08-.04-.1-.09,.07-.09,.18-.17,.15-.03-.02-.04-.02-.05-.03,0,.05-.03,.06-.05,.05-.03,0-.06-.04-.08-.08-.06-.13,.02-.16,.08-.2,.02-.01,.03-.03,.05-.04,.03-.06,.02-.15,0-.16,0,0-.11,.03-.13,.03,.03,0,.06,0,.07,.01,.05,.03,.02,.09-.04,.13-.1,.06-.12,.01-.19-.08,.03-.03,.06-.06,.1-.07-.01-.02-.12,.02-.15,.01-.09,0-.11,.03-.16-.07-.05-.03-.09-.03-.12-.04-.04-.01-.07-.03-.08-.06,.03-.02,.08-.01,.1-.04-.13-.04-.15-.2-.1-.22,0-.06-.04-.04-.09-.03-.03,.05-.01,.08-.02,.1-.06-.04-.1-.1-.12-.13,0-.05,0-.06,.02-.06,0-.05,.05-.09,.1-.1,.06,.03,.09,.05,.11,.05-.12-.09-.2-.15-.34-.16,.02-.02,0-.04,.04-.04-.03,0-.06-.01-.08-.02-.05-.01-.11-.03-.16-.04-.03,0-.06-.02-.1-.02,0-.02-.04-.03-.09-.04-.09-.02-.22-.04-.24-.09,.03-.02,.06-.03,.1-.03,.13-.01,.28,.06,.33-.03,.01-.01,.06,.03,.09,.04,.01-.02-.01-.06,.02-.07,.09,.07,.13,.08,.16,.08-.03-.03-.04-.05-.03-.06,0-.01,.03-.02,.06-.02,.06,0,.13,0,.14,0-.09-.02-.23,.01-.31-.04,.04-.05,.18-.08,.24-.1,.14-.05,.2-.07,.34-.05,.06,.01,.12,.04,.19,.04-.07-.01-.11-.02-.12-.04,.03-.04,.15-.06,.24-.06,.06,0,.11,0,.13,.03,.07-.03,.03,0,.08-.04,.02,.01,.06,.02,.11,.02,.09-.04,.23-.02,.33-.02,.03,0,.06-.02,.06-.04,.05,.05,.02,.07-.01,.09-.03,.01-.06,.03-.07,.04,0-.01,.13-.06,.23-.08,.06-.01,.11-.02,.11,0,.05,.04,.07-.07,.16-.02-.03-.07,.23-.08,.3-.08,.04,0,.13,0,.21,.01,.03,0,.04,0,.06,0,.12,0,.17,0,.22-.01-.05-.01-.09-.03-.12-.05-.09,.02-.23,.06-.28,.03-.03-.05,0-.07,.03-.08,.03-.02,.05-.05,.05-.05,.09-.04,.18-.06,.26-.08,.08-.02,.17-.05,.26-.09,.12-.04,.23-.07,.34-.06,.03,0,.06,.01,.08,.02,.03-.11,.38-.12,.46-.13,.02,.06,.03,.06,.04,.09,0,.05-.06,.08-.06,.1,.03,0,.05,0,.06,0,.03,0,.05,.02,.07,0-.02-.01-.04-.02-.06-.03,.03-.02,.02-.01,.05,0-.04-.09-.04-.09-.03-.08-.01-.03,.01,.03,.03,.03-.06-.06-.06-.08-.04-.1,.01-.02,.05-.03,.09-.02,.18-.08,.17-.14,.31-.24,.16-.11,.24-.16,.33-.19,.04-.02,.11-.03,.17-.06,.05-.03,.09-.07,.1-.1,0-.05,0-.09-.03-.14-.05-.08-.14-.14-.13-.23,.01-.08,.05-.11,.1-.11,.05,0,.12,.02,.16,.05-.03-.02-.07-.04-.1-.06,.1-.02,.43,.26,.52,.32,.2,.13,.4,.26,.58,.41,.33,.24,.64,.5,.95,.77-.18-.15-.36-.3-.54-.45,1.39,1.14,2.55,2.52,3.39,4.1-.03-.06-.06-.11-.09-.17l.05,.09s.05,.09,.07,.14c.1,.19,.19,.37,.28,.56,.01,.03,.07,.15,.08,.18-.01-.03-.03-.06-.04-.09,.04,.08,.08,.17,.11,.25-.02-.05-.04-.1-.06-.15,.04,.09,.1,.21,.15,.34-.02-.05-.04-.1-.06-.15,.11,.27,.21,.54,.31,.81,0,.02,.04,.11,.04,.11Z"/><path class="cls-17" d="M43.25,50.5c-.16,.07-.32,.13-.48,.19,.32-.12,.63-.25,.94-.4-.15,.07-.31,.15-.46,.21Z"/><path class="cls-17" d="M43.87,50.21c.13-.06,.26-.12,.38-.18-.11,.05-.35,.17-.35,.17,.12-.05,.23-.11,.35-.17,.15-.09,.28-.15,.4-.21-.02,.01-.24,.13-.29,.16-.04,.03-.1,.05-.15,.07-.16,.08-.33,.16-.5,.24-.08,.03,.14-.07,.16-.08Z"/><path class="cls-17" d="M26.18,33.38c.06-.15,.13-.3,.2-.45-.08,.18-.16,.35-.23,.53l.03-.08Z"/><path class="cls-17" d="M33.6,29.51s.07,.04,.11,.04c0,.04,0,.06,.02,.09,.05,.05,.07,.05,.08,.06-.02,.04-.05,.07-.06,.11,0,.05,.04,.08,.04,.11-.06,.02-.09,.03-.11,.02,.04,.05,.03,.04,.04,.08,0,.05-.03,.08-.05,.14,.03,0,.04,0,.06,0,.02,.13-.15,.08-.19,.08,.02,.04-.09,.06-.11,.06-.06-.02-.08,.03-.18,.03-.11-.01-.16-.04-.22-.03-.07-.05,.2-.1,.23-.11,.07-.03,.14-.07,.18-.14,.04-.1-.02-.23,.03-.33-.06-.06-.07-.09-.08-.1-.05-.06-.16-.11-.21-.17-.04-.03-.06-.06-.05-.09,0-.02,.02-.03,.05-.04,.03-.03,.08-.04,.12-.02,.09,.05,.09,.12,.15,.15,.07,.02,.1,.02,.12,.02,.04,0,.07,0,.04,.04Z"/><path class="cls-17" d="M34.22,28.9s.07-.02,.1,0c-.01,.02-.15,.05-.1,0Z"/><path class="cls-17" d="M33.3,28.75c-.09,0-.07-.02-.04-.03,.06,.01,.05,.02,.04,.03Z"/><path class="cls-17" d="M36.94,30.17s0,.09-.05,.02c-.06-.08,.07-.04,.05-.02Z"/><path class="cls-17" d="M35.12,29.22s-.1,.04-.15,.03c-.03,0-.04,0-.05-.03-.05,.02-.09,.02-.13,.03-.05,0-.05-.02-.05-.02,0-.03,.03-.04,.05-.03,.06-.02,.05-.03,.05-.03,.05-.05,.1-.06,.12-.07,.08,.04,.12,.04,.15,.05,.17,.07,.2,.09,.14,.09-.08-.03-.09,0-.16-.06,0,.03,.02,.03,.03,.05Z"/><path class="cls-17" d="M33.65,30.64s-.01,.04-.04,.06c-.04,.03-.06,.03-.07,.02-.06,0-.12-.08-.08-.12,.03-.02,.07-.03,.11-.03,.06,0,.11,0,.09,.06Z"/><path class="cls-17" d="M32.12,28.46s-.02,.06-.02,.06c-.04,.03-.08,.07-.12,.09-.03,.02-.06,.03-.09,.03,0-.02,.01-.04,.03-.06-.1-.1-.08-.12-.04-.13,.12,0,.17,0,.18,0-.02,.03,.04,0,.06,0Z"/><path class="cls-17" d="M36.58,29.5s-.06-.03-.07-.04c0-.11,.21-.1,.26-.1,.02,.03,.03,.04,.04,.04,.05-.02,.05,0,.06,0,.07,0,.11-.02,.15-.02h.17c.09,.07-.13,.1-.14,.11,.05,.01,.32-.08,.3-.01,0,.01-.01,.02-.03,.04,.05,.01,.05-.05,.09-.06,.07,0,.06,.06,.12,.04,.08-.06,.18-.04,.23-.03-.04,.08-.07,.12-.09,.15,.09-.02,.07,0,.05,.03-.04,.03-.12,.06-.14,.06-.04,0-.07-.02-.1-.04-.02-.01-.04-.02-.05-.02-.04,0-.06,0-.06,0,0,.01,.05,.03,.05,.06,.07,.03,.06,.05,.01,.1-.03,.03-.09,.07-.14,.09-.15,0-.08,.02-.14-.1-.04-.05-.07-.1-.11-.13-.07-.03-.1-.02-.11-.02-.02,.01-.03,.03-.03,.05,0,.03,0,.06,0,.09-.02,.02-.04,.01-.07,0-.02,0-.05-.02-.06-.03,0,.08-.14,.04-.17-.02,.05-.07,.09-.08,.12-.08,.08-.02,.15-.06,.23-.1-.01-.03-.06-.03-.11-.03-.08,.01-.16,.04-.24-.01Z"/><path class="cls-17" d="M40.23,30.07s-.05,0-.06-.02c.06-.07,.1-.07,.13-.02,0,.05-.03,.05-.06,.05Z"/><path class="cls-17" d="M38.87,37.27s-.07-.06-.06-.1c.02-.02,.03-.03,.05-.03,.06-.04,.18,.02,.18,.04,.02,.05,0,.06-.03,.07-.03,.04-.09,.06-.14,.03Z"/><path class="cls-17" d="M35.31,37.41c.06,.1-.13,.08-.09,.02,.03-.04,.04-.04,.09-.02Z"/><path class="cls-17" d="M36.74,33.68s.07-.07,.08-.08c0,.09-.03,.1-.04,.1-.02,0-.04,0-.04-.02Z"/><path class="cls-17" d="M36.22,33.04c.13,.03,.15,.05,.17,.08,0,.04,0,.06,0,.07,0,.09-.01,.11-.02,.1-.01,.01-.03,.01-.06-.01-.05-.04-.04-.11-.06-.18-.02-.03-.02-.05-.03-.06Z"/><path class="cls-17" d="M26.38,42.25s.04,.03,.05,.05c.02,.02,.03,.04,.02,.06,0,.04,0,.09,0,.13-.03,0-.06-.1-.07-.17-.01-.04-.02-.07-.01-.08Z"/><path class="cls-17" d="M51.26,38.44c0,.22,0,.45-.02,.67,.01-.23,.02-.47,.02-.7v.03Z"/><path class="cls-17" d="M50.77,34.94c.03,.09,.05,.18,.08,.28,.02,.06,.03,.12,.04,.18-.04-.15-.08-.3-.12-.45Z"/><path class="cls-17" d="M34.68,51.03c-.06-.02-.11-.04-.17-.05,.12,.04,.24,.07,.36,.1-.06-.02-.13-.03-.19-.05Z"/><path class="cls-17" d="M31.93,28.76s-.06,0-.04,0c.02-.02,.04,0,.04,0Z"/><path class="cls-17" d="M32.17,29.35s.04,.03,.02,.03c-.03-.03-.02-.03-.02-.03Z"/><path class="cls-17" d="M44.74,42.51s.02-.09,.05-.1c.06-.01-.02,.17-.05,.1Z"/><path class="cls-17" d="M27.37,40.16s.05,.04,.04,.06c-.05,0-.06-.01-.06-.03,0-.01,.01-.03,.02-.04Z"/><path class="cls-17" d="M43.64,39.75s-.03,.05-.05,.06c-.03,.01-.06,.02-.08,0,.07-.07,.1-.06,.13-.05Z"/><path class="cls-17" d="M44.72,36.88c.09-.06,.08-.03,.06,0-.06,.03-.06,.03-.06,0Z"/><path class="cls-17" d="M25.9,42.25s-.05-.04-.05-.07c0-.01,.04,.03,.05,.07Z"/><path class="cls-17" d="M25.94,42.28s.03,.07,.03,.07c-.01-.02-.04-.06-.04-.08-.01-.03,0-.01,0,.01Z"/><path class="cls-17" d="M25.99,42.39s.05,.06,.07,.12c.02,.04,.04,.08,.03,.09-.04-.04-.06-.08-.07-.12-.02-.03-.03-.06-.03-.08h0Z"/><path class="cls-17" d="M40.9,34.35c-.05,.02-.12,.03-.16,.03-.19-.01-.28-.15-.49-.1-.02-.04-.07-.15-.09-.24,0-.03-.01-.06-.01-.08,0-.03,0-.06,.02-.07-.09-.03-.15-.04-.15-.14,.02-.07,.02-.08,.03-.1,.08-.07,.1-.07,.13-.07,.06,0,.15,0,.19,0,.05,.01,.14,.06,.16,.1,.01,.02,0,.04-.07,.04,.16,.13,.11,0,.22,.04,.04,.01,.08,.02,.08,.04,.02,.11,.04,.15,0,.18,0,.05,.16,.22,.15,.27,.06,.05,.03,.08-.02,.1Z"/><path class="cls-17" d="M49.92,40.09c0,.24,0,.48-.02,.71,0-.06,0-.12,0-.18,0-.2,.02-.39,.02-.59v.05Z"/><path class="cls-17" d="M49.76,37.93c.01,.07,.04,.27,.04,.29-.02-.17-.05-.33-.08-.5,.01,.07,.02,.14,.04,.2Z"/><path class="cls-17" d="M49.92,39.95c0-.13,0-.25,0-.38,0,.13,0,.25,0,.38Z"/><path class="cls-17" d="M49.89,39.09v-.06c0,.11,.01,.21,.02,.32,0-.03-.01-.21-.02-.26Z"/><path class="cls-17" d="M49.83,38.46c.01,.11,.06,.6,.06,.62-.02-.22-.04-.43-.06-.65v.02Z"/><path class="cls-17" d="M49.77,42.06c-.01,.07-.03,.14-.04,.22,0-.02,0-.04,0-.06,.03-.16,.05-.32,.07-.49-.01,.11-.03,.22-.04,.33Z"/><path class="cls-17" d="M49.9,40.85c-.01,.25-.04,.5-.07,.75,.03-.26,.05-.52,.07-.78v.03Z"/><path class="cls-17" d="M49.91,39.37c0,.07,0,.13,0,.19,0,.13,0,.25,0,.38,0-.23-.01-.45-.02-.68,0,.04,0,.07,0,.1Z"/><path class="cls-17" d="M43.05,39.79s0-.05,0-.07c.2,.11,0,.17,0,.07Z"/><path class="cls-17" d="M40.67,31.75c-.09-.03-.19-.09-.2-.15,0-.05,.1-.16,.13-.16-.05-.05-.03-.05-.01-.05,.03,0,.05,.01,.08,.02-.04-.04-.02-.05,.01-.06,.02,0,.05,0,.08,0l.13,.06c.06,0,.06-.03,.1,0,.06-.06,.08-.04,.11-.02,.06,0,.09,0,.11-.02,.02,.04,.02,.05,.02,.07,.07-.02,.1,.03,.12,.06,0-.02,0-.04-.01-.06-.01-.01-.02-.04,0-.07,0-.03,0-.05,.03-.08,.05,.02,.15,.03,.23,.05,.06,.02,.07,.03,.09,.03,.03,.02,.05,.04,.06,.06-.11,.03-.18,.01-.25,.04,.12,.04,.16,.03,.2,.05,.04,.02,.05,.04,.05,.04-.07,.03-.13,.03-.18,.02,0,.02,.02,.05,.02,.07-.02,.02,.12,.05,.11,.1-.03,.04-.19,0-.21-.01-.02,.21-.24,.16-.43,.09-.11-.01-.28-.05-.4-.1Z"/><path class="cls-17" d="M44.84,42.69s-.06-.05-.04-.1c0-.05,0-.07,0-.07,.08,.08,.07,.12,.05,.14,0,.02-.02,.04-.02,.04Z"/><path class="cls-17" d="M43.32,38.42c-.05-.08-.05-.14-.03-.16,.11,.07,.12,.1,.11,.13-.03,.07-.06,.06-.09,.03Z"/><path class="cls-17" d="M43.15,38.59s.08-.04,.1-.04c0,.04,0,.06-.03,.07-.07,0-.08-.02-.08-.03Z"/><path class="cls-17" d="M45.05,42.71s0-.04,.02-.06c.04-.03,.05-.04,.08-.04-.01,.08-.03,.15-.1,.1Z"/><path class="cls-17" d="M49.64,37.28c-.03-.14-.06-.29-.09-.43,.05,.2,.09,.39,.13,.59,0-.02-.02-.09-.04-.16Z"/><path class="cls-17" d="M48.24,33.56s.18,.11,.12,.14c-.01,0-.11-.08-.12-.1,0-.02,0-.02,0-.04Z"/><path class="cls-17" d="M49.06,35.21c-.07-.18-.13-.36-.21-.53-.01-.03-.02-.06-.03-.09,.03,.07,.05,.13,.08,.2,.06,.14,.11,.28,.16,.42Z"/><path class="cls-17" d="M49.28,35.87c-.04-.13-.09-.27-.13-.4,.03,.08,.06,.16,.08,.24,.01,.04,.04,.14,.05,.16Z"/><path class="cls-17" d="M47.86,33.99c.02-.05,.03-.02,.03,0-.02,.03-.02,.01-.03,0Z"/><path class="cls-17" d="M48.46,33.79c-.07-.15-.15-.3-.23-.46,.08,.15,.16,.3,.23,.46Z"/><path class="cls-17" d="M40.35,51.08s.17-.01,.2-.01l-.06,.02s-.04,0-.06,0c-.06,0-.08,0-.08,0Z"/><path class="cls-17" d="M40.91,51.08c-.07-.01,.11-.03,.11-.03-.01,0,.02,0,.06,0-.08,.03-.14,.04-.18,.04-.03,0-.07,0-.09,0,0-.01,.08-.01,.1-.02Z"/><path class="cls-17" d="M27.89,30.45c.23-.29,.44-.54,.66-.78l.05-.05c-.23,.26-.45,.53-.68,.8l-.03,.04Z"/><path class="cls-17" d="M26.76,32.17c.06-.12,.15-.26,.23-.41,.07-.12,.14-.24,.22-.35-.02,.03-.04,.06-.06,.09,.04-.06,.08-.13,.12-.19-.19,.3-.36,.6-.54,.9,0-.02,.02-.03,.03-.05Z"/><path class="cls-17" d="M31.33,28.24s.04-.04,.06-.03c0,.05-.04,.07-.07,.09-.01-.02,0-.04,.01-.05Z"/><path class="cls-17" d="M25.27,40.1v-.08c.02,.11,.04,.32,.04,.43-.05-.13-.06-.28-.07-.41,0-.04,0-.07,0-.1,.02,.08,.02,.12,.03,.17Z"/><path class="cls-17" d="M25.34,40.59s.02,.09,.02,.12c-.02-.07-.02-.09-.02-.11,0,.01,0-.01,0-.01Z"/><path class="cls-17" d="M25.43,41.02s-.03-.07-.02-.09c0,0,.02,.12,.02,.09Z"/><path class="cls-17" d="M25.48,41.18s.01,.06,.02,.09c-.02-.08-.03-.11-.04-.15,0,.02,.01,.04,.02,.06Z"/><path class="cls-17" d="M25.53,41.34s.01,.03,.02,.05c0,.07,0,.05,0,.04,0-.03-.01-.06-.02-.09,0-.02,0-.01,0,0Z"/><path class="cls-17" d="M26.15,42.67s.03,.05,.05,.09c.02,.04,.04,.08,.02,.09-.01,0-.03-.03-.04-.07-.01-.03-.03-.06-.03-.08v-.03Z"/><path class="cls-17" d="M26.25,42.84s.09,.15,.09,.2c-.01,.02-.04-.03-.06-.08-.04-.08-.05-.1-.04-.12Z"/><path class="cls-17" d="M26.37,43.01c.04,.06,.12,.14,.16,.22,.01,.03,.02,.05,.02,.06-.06-.08-.11-.14-.13-.21-.03,.01-.04-.01-.04-.03,0-.02,0-.04,0-.04Z"/><path class="cls-17" d="M26.89,42.7s.05,.07,.03,.15c-.03,.02-.05-.02-.07-.06-.05-.05-.04-.08-.02-.1,.02-.05,.05-.03,.06,0Z"/><path class="cls-17" d="M27.05,43.49c.06-.01,.04-.06,.05-.08,.1,.02,.19,.1,.25,.07,.03-.01,.04-.03,.05-.06,.02-.04,.02-.08,0-.13,.02,.01,.04,.04,.05,.06,.03-.05,.1-.06,.14-.02,.02-.04,.09-.1,.13-.09,.04,.09-.02,.11-.04,.14,0,.06,.03,.05,.07,.04,.04-.02,.09-.03,.14,.04,0-.04,.03-.04,.07-.02,.08,0,.12,.1,.07,.21-.05-.04-.08-.09-.12-.12,0,0,.04,.05,.06,.09-.05,.03-.15-.01-.17-.03,0,.02,0,.04,0,.06-.07,.08-.11,.1-.14,.1-.07-.01-.11-.02-.15-.03-.04,.02-.07,.04-.1,.05,0,.06-.1,.02-.1,.02-.03-.01-.06-.02-.08-.03-.02-.02-.03-.03-.04-.06-.1-.02-.13-.08-.13-.09,.01-.04-.01-.07-.02-.1,0-.02,0-.03,0-.03Z"/><path class="cls-17" d="M28.06,43.4s.08,.04,.09,.07c.05-.06,.12-.07,.15-.05,.03,.02,.04,.05,0,.09-.08,.06-.12,.04-.15-.05,.02,.09,.01,.12-.01,.12-.02,.03-.05,.01-.07-.07-.01-.03-.02-.07,0-.12Z"/><path class="cls-17" d="M28.23,43.36c-.06-.1-.03-.08,0-.07,.06-.04,.16,.02,.21,.06-.01,.06-.03,.08-.06,.08l-.09-.05s-.04-.01-.05-.03Z"/><path class="cls-17" d="M28.48,43.48s.13,0,.19,.05c.02,.01,.03,.03,.04,.04,.03,.05,.02,.06,0,.07-.03,.03-.09,.01-.15-.01-.09-.04-.18-.1-.11-.15h.02Z"/><path class="cls-17" d="M28.39,42.41s.02,.05,.03,.06c-.03,.05-.04,.03-.04,0-.01-.03-.02-.05,0-.06,0-.01,.02,0,.02,0Z"/><path class="cls-17" d="M26.98,42.53c-.06-.08-.09-.18-.13-.27,0,.03,0,.05-.01,.06-.07-.13-.43-.73-.29-.85,0,.01,.01,.03,.02,.05,.02,.03,.03,.04,.04,.05,.02-.02,.03-.04,.05-.04,.05-.12-.03-.25,0-.35,.03-.11,.08-.15,.09-.27,0-.08-.01-.15,0-.2,.01-.1,.08-.16,.12-.24-.03-.03-.04-.28-.03-.43,0-.05,.02-.09,.03-.1,0,.02,0,.04,.02,.05,0-.04,0-.09,0-.14,.07,.07,.11,.13,.13,.19,.01,.03,.02,.06,.01,.09,.06-.03,.11-.01,.16,.01,.03,0,.05,.02,.06,.04,.02,.02,.04,.04,.04,.07,0,.08-.08,.05-.12,.09,.11,.08,.09,.15,0,.22,0,.03,.01,.05,.03,.07,.02,.03,.03,.07-.02,.06,.05,.05,.04,.06,.01,.08,.03,.03,.09,.07,.12,.11,.04,.06,.03,.09,.03,.12,.02,.04,.04,.05,.07,.07,.04,.02,.08,.05,.1,.08,.04,.04,.05,.03,.04,.09-.03,.05-.08,.03-.09,.04-.05,.1,0,.19,.03,.29,.04,.14,.02,.15,.02,.29,0,.04,0,.1,.02,.16,.05,.14,.13,.29,.14,.43,0,.02,0,.04,0,.07-.02-.02-.03-.01-.06-.07-.03,.08-.09,.18-.09,.18-.05-.07-.09-.12-.13-.16,0,.03-.01,.06-.01,.09-.06-.07-.06-.04-.1-.07,0,.02-.01,.16-.04,.12,0,.02,0,.06,0,.09-.04-.04-.06-.11-.08-.16-.03,.02-.04,.07-.08,.1-.06-.03-.07-.05-.08-.08l-.02-.03Z"/><path class="cls-17" d="M27.01,39.93s-.03-.05-.04-.07c0-.02,.13,0,.04,.07Z"/><path class="cls-17" d="M26.87,39.72s-.04,.02-.04,0c.03-.05,.04-.03,.04,0Z"/><path class="cls-17" d="M27.34,40.33s-.04,.01-.04,0c.03-.02,.04,0,.04,0Z"/><path class="cls-17" d="M27.34,39.84c.02,.08,0,.08,0,.08-.02-.05-.02-.06,0-.08Z"/><path class="cls-17" d="M32.44,26.98s-.06,.04-.11,.06c-.08,.04-.14,.06-.17,.06,0-.06,.1-.09,.19-.11,.03,0,.05-.01,.07-.01,.04,0,.02,0,.02,0Z"/><path class="cls-17" d="M44.98,49.62c-.11,.07-.22,.14-.33,.2,.11-.06,.22-.14,.33-.2Z"/><path class="cls-17" d="M48.28,33.83s-.04-.06-.01-.08c.08,.02,.18,.08,.23,.14,.01,.01,.03,.04,.05,.07l.06,.13s.01,.03,.02,.05c-.02-.03-.04-.05-.07-.07-.04-.01-.11-.04-.17-.07-.07-.03-.11-.07-.04-.11-.01,0-.04-.03-.07-.06Z"/><path class="cls-17" d="M44.31,49.99c.14-.07,.32-.18,.48-.31-.06,.03-.12,.08-.18,.12,.17-.18,.42-.32,.62-.49,.07-.06,.21-.15,.21-.25-.05,.01-.08,.02-.11,.05,.02-.02,.04-.04,.06-.05,0-.02-.03,0,0-.04-.09,.01-.13,.03-.17,.05-.02,0-.03,.01-.05,.02,0-.06,.03-.12,.07-.18,.04-.06,.08-.13,.11-.19,.07-.16,.2-.3,.3-.44,.1-.15,.2-.36,.34-.47,0,0,0-.05-.01-.1,0-.01-.01-.03-.02-.05-.02-.08-.01-.19-.03-.29-.01-.03-.02-.06-.03-.09-.04-.23,.15-.55,.31-.71,.12-.13,.3-.17,.44-.28,.04-.03,.09-.07,.13-.1,.12-.12,.25-.25,.4-.33,.2-.1,.39-.22,.58-.29,.03,.01,.04-.02,.05-.04,.05-.09,.1-.14,.14-.22,.01,.03,.01,.05,.02,.05,.06-.14,.27-.33,.39-.3,.05,.01,.08,.07,.08,.2,.02-.02,.02-.05,.01-.07,0-.01-.02-.03-.01-.06,0-.03,0-.06,0-.09,.02-.09,.17-.21,.23-.29,.09-.12,.15-.27,.22-.41,0-.02,.02-.03,.03-.05,.05-.11,.1-.23,.15-.33,.07-.13,.16-.29,.25-.41,.05-.07,.12-.12,.17-.19,.02-.03,.04-.05,.05-.08,.08-.15,.23-.3,.34-.45,.11-.14,.8-1.07,1.03-1.39,.02-.05,.04-.09,.06-.14,0,.02,0,.05-.01,.07-.06,.28-.13,.54-.21,.79,0,.02-.01,.05-.02,.07,0,.02-.01,.04-.02,.05-.01,.04-.02,.09-.04,.13l-.02,.07c-.04,.13-.09,.26-.14,.38-.03,.09-.06,.19-.1,.28-.01,.03-.02,.06-.03,.09,.01-.03,.02-.06,.03-.09-.05,.14-.11,.28-.17,.41-.08,.18-.16,.36-.24,.54-.04,.09-.09,.18-.14,.27-.04,.07-.07,.15-.11,.22-.01,.02-.03,.04-.04,.07-.03,.06-.05,.09-.06,.12-.03,.06-.12,.22-.16,.27-.05,.09-.11,.18-.16,.26-.02,.04-.05,.08-.07,.12-.14,.22-.28,.42-.41,.61-.06,.08-.11,.16-.17,.24-.29,.42-.63,.8-.98,1.16-.03,.03-.05,.05-.07,.07-.03,.03-.15,.16-.17,.18-.34,.34-.7,.66-1.07,.96-.07,.05-.14,.11-.2,.16-.15,.12-.31,.24-.47,.35-.25,.21-.49,.39-.73,.48,.04-.02,.08-.05,.12-.08-.25,.16-.51,.31-.78,.45Z"/><path class="cls-17" d="M46.62,31.15c.09,.05,.12,.07,.1,.08-.03,.02-.06,0-.09-.03-.01-.06,0-.05,0-.05Z"/><path class="cls-17" d="M47.11,33.1c.17-.08,.52,.28,.64,.38,.03,0,.06,.02,.08,.04,.03-.02,.05-.02,.06,0,.02,0,.04,.03,.02,.07,.08,.05,.13,.07,.14,.1,.02,.01,0,.04-.06,.09-.05,.04-.2,.09-.26,.08,.02,.07,0,.08-.04,.07,.06,.04,.23,.1,.06,.12-.05,0-.1-.04-.15-.08-.06-.02-.01,.04,.02,.08,.02,.02,.03,.04,.04,.06-.04,0-.06,0-.08-.03,0,.02,.03,.05,.04,.07,.02,.06,0,.07-.05,.05-.03,0-.08-.05-.11-.09-.05-.04-.08-.1-.08-.15l.06,.03c-.08-.08-.08-.09-.06-.09,.01,0,.03,0,.06,.02-.05-.05-.13-.07-.15-.14,.06,0,.12,.04,.14,.06-.04-.02-.12-.09-.17-.16-.02-.03-.03-.05-.03-.06-.01-.03-.01-.06,0-.08,.03,.01,.05,.04,.06,.06,.02-.08,.06-.06,.11-.01,0-.06,.03-.08,.03-.08-.07-.04-.09-.05-.09-.07,.01-.06,.08-.06,.14-.02-.02-.03-.06-.05-.11-.07-.09-.04-.19-.08-.19-.15-.06,0-.04,0-.08-.02-.02-.02-.02-.04,.02-.06Z"/><path class="cls-17" d="M46.15,31.06s.03,.02,.05,.03c.04,.02,.08,.06,.06,.08-.1-.04-.11-.06-.11-.08,0-.01,0-.02,0-.03Z"/><path class="cls-17" d="M40.09,29.64c-.07,0-.06-.02-.03-.06,.03,.04,.03,.06,.03,.06Z"/><path class="cls-17" d="M39.98,29.68s.04,0,.07,0c0,.02-.06,.02-.07,0Z"/><path class="cls-17" d="M39.96,29.54c.05,.04,.04,.05,.04,.05-.06-.04-.06-.05-.04-.05Z"/><path class="cls-17" d="M39.91,32.34s-.1-.05-.13-.11c0-.05,.03-.04,.07-.04,.03,0,.06,0,.07,.01,.03,.04-.01,.08-.02,.13Z"/><path class="cls-17" d="M36.37,29.58c-.08,0-.12-.01-.12-.06,.02-.01,.05-.01,.07,0,.08,0,.08,.02,.07,.03,.02,.02,.03,.03-.02,.03Z"/><path class="cls-17" d="M36.17,29.39s-.04,0-.07-.01c-.02-.06,.07-.03,.1-.02,0,.03-.01,.03-.03,.03Z"/><path class="cls-17" d="M36.46,29.82s.02,.05,.01,.07c-.01-.07-.01-.07-.01-.07Z"/><path class="cls-17" d="M39.68,30.75s-.04-.02-.07-.02c-.07,.06-.06-.23,.07,.02Z"/><path class="cls-17" d="M39.17,32.67s-.06-.1-.06-.13c.04-.01,.05,0,.06,0,.06,.01,.09,.06,.07,.1,0,.05,0,.06,0,.06-.04,.02-.02,.03-.07-.03Z"/><path class="cls-17" d="M38.91,34.18c0-.06,.05-.08,.11-.07,.05,0,.1,.01,.15,.03-.04-.11,0-.19,.02-.23,.02-.03,.09-.1,.13-.14,.05-.07,.05-.15,.1-.23,.12-.18,.15-.06,0-.23-.02-.01-.03-.02-.04-.04-.02-.12,0-.13,.02-.13,.06-.02,.17-.01,.25-.01-.02-.06-.12-.07-.15-.11-.02-.01-.02-.03,0-.07-.05-.01-.1-.05-.11-.09,0-.02-.01-.04,0-.05,.07-.01,.11,0,.14,0,0,.09,.01,.1,.03,.1,.02,0,.04,.01,.06,.02h.05c.1,.03,.07,.02,.14,.06,.07,.07,.12,.15,.12,.17,.08-.04,.11-.03,.14-.02-.05-.05-.1-.1-.11-.12,.04-.09,.11-.04,.12,0l.07,.07c.05,.08,.04,.13,.06,.17-.01,0-.07-.05-.13-.11-.05,.03-.05,.06-.02,.09,.03,.04,.09,.09,.07,.14-.06-.04-.08-.1-.14-.14,.02,.08,.06,.15,.07,.19-.04,0-.1-.07-.13-.09,0,.03,.04,.05,.07,.07,.05,.03,.11,.06,.11,.1-.02,0-.04,0-.06,0-.04-.01-.07-.04-.08-.07,.02,.02,.05,.07,.06,.12-.01,.06-.04,.04-.07,.02-.05-.03-.09-.07-.1-.08,0,.05,.04,.08,.06,.11,.03,.06,.02,.08-.05,.09-.01,0-.04,0-.07,0-.04,0-.09-.02-.11-.03,.03,.04,.04,.08,.03,.11,0,.03-.02,.05-.09,.05,.03,.05,.03,.09,.05,.11,.01,.02,.03,.04,.05,.05,.05,.02,.16-.04,.23-.02,.02,0,.03,.02,.04,.04-.03,.11-.02,.13-.02,.13-.05-.01-.07-.02-.1-.01,.03,.08,.21,.12,.21,.18-.04,.06-.06,.05-.08,.05-.02,0-.05,.01-.07,.03,0,.02-.01,.04-.03,.04-.05,.01-.13-.01-.18-.02,.03,.02,.06,.03,.09,.04,.07,.02,.15,.01,.23,.07,.05,.03,.09,.07,.13,.11,.01,.01,.05,.02,.08,.03-.02,.08-.05,.08-.08,.07-.1-.03-.11-.08-.11-.08-.03,0-.09,.03-.11,.03-.05,0-.06-.03-.07-.04-.1-.06-.13-.06-.16-.05-.05,.01-.08,.04-.17-.01-.07,.05-.08,.04-.1,.02-.12,0-.25,0-.36-.05-.05-.02-.08-.05-.1-.09,.07-.02,.1-.02,.12-.05-.06-.07-.26-.11-.2-.26Z"/><path class="cls-17" d="M39.93,33.88c-.06,0-.1-.02-.1-.06,.09-.01,.13,.02,.13,.04,0,.02,0,.03-.03,.02Z"/><path class="cls-17" d="M37.8,36.88c.07,0,.07,.05,.06,.09,0,.06-.04,.12-.05,.19,0,.05,.03,.12,.02,.14,0,.04-.02,.06-.04,.06-.03,.02-.06,.01-.11,0-.02-.04-.05-.05-.08-.06-.05,0-.06,0-.08-.09-.01-.04-.02-.09-.02-.14,0-.03,0-.05,0-.08,0-.05,.02-.09,.04-.12,.03-.04,.05-.07,.08-.09-.03-.06-.04-.09-.05-.12-.02-.08-.02-.17,0-.21,0-.03,0-.04,.07-.02,.15,.16,.1,.31,0,.34,.03,.03,.06,.05,.09,.07,.02,.01,.03,.02,.05,.03Z"/><path class="cls-17" d="M38.74,37.15c-.07,.02-.1,.01-.1,.01-.02-.02-.03-.03,0-.06,.04-.02,.07-.02,.1,0,.01,.03,.02,.05,0,.06Z"/><path class="cls-17" d="M39.3,37.39c-.09-.02-.14-.05-.1-.11,.05,0,.07,.04,.1,.06,.03,.03,0,.05,0,.05Z"/><path class="cls-17" d="M34.7,37.56c0-.08,.15-.12,.22-.13,.11,0,.12,0,.15,.02,.04,.02,.07,.03,.12,.05,.02,0,.04,0,.06,0,.03,0,.04,.02,.04,.03-.05,.07-.09,.03-.14,.04-.07,.01-.09,.02-.11,.03-.02,.02-.02,.06-.02,.09-.03,.05-.05,.06-.06,.06-.04,.02-.06,.01-.06-.05-.05,.06-.11,.11-.12,.09-.01,0-.01-.01,0-.05-.03,.02-.06,.04-.09,.05-.01-.1,.05-.19,.07-.23-.03,0-.06-.01-.07-.02Z"/><path class="cls-17" d="M42.67,39.53s.08,.08,.11,.13c.03,.05,.05,.1,.02,.14-.08-.1-.1-.14-.13-.18-.02-.02-.04-.03-.07-.05-.02-.06,.03-.06,.06-.04Z"/><path class="cls-17" d="M43.32,39.75c-.09-.04-.11-.06-.12-.09,.04-.06,.17,0,.14,.07-.01,.02-.02,.03-.02,.03Z"/><path class="cls-17" d="M43.53,39.47s.09,.14,.01,.16c-.09,.03-.06-.14-.01-.16Z"/><path class="cls-17" d="M43.38,39.66c.06,0,.07,0,.07,.02,0,0,0,.04-.02,.05-.02,0-.03,0-.05-.03-.02-.02-.02-.04,0-.05Z"/><path class="cls-17" d="M44.47,37.11s.04-.02,.05-.02c.04,0,.07,.01,.06,.05-.08,.05-.12,.04-.13,0,0-.02,0-.04,.02-.04Z"/><path class="cls-17" d="M44.94,36.95c-.11-.03-.1-.05-.06-.07,.03-.06,.07-.04,.1-.03,.04,0,.07-.01,.07-.01,.03,.06,0,.07-.03,.1-.04,0-.05,.01-.07,0Z"/><path class="cls-17" d="M45.23,42.11s.07-.03,.09-.04c-.04,.15-.07,.19-.11,.14-.03-.03-.02-.06,0-.08l.02-.02Z"/><path class="cls-17" d="M45.02,42.3s.08-.04,.1-.04c0,.04,0,.05-.02,.06-.02,.02-.06,.02-.1,0l.02-.03Z"/><path class="cls-17" d="M44.8,42.35s-.03-.07,0-.11c.04,.07,.04,.1,0,.11Z"/><path class="cls-17" d="M44.96,42.72c-.13,.04-.09-.03-.05-.08,.06-.04,.06-.02,.06,0,0,.02,0,.06-.01,.08Z"/><path class="cls-17" d="M27.27,31.32c.05-.08,.11-.16,.17-.24,.15-.21,.3-.42,.45-.62-.05,.07-.47,.65-.62,.87Z"/><path class="cls-17" d="M25.15,38.36s0-.04,0-.06c0-.31,.02-.59,.04-.87,.01-.12,.05-.54,.06-.61,.02-.18,.05-.35,.08-.53,0-.02,.09-.48,.11-.57,.03-.14,.05-.27,.09-.41,0-.03,.02-.07,.03-.1,0-.04,.02-.07,.03-.11,.03-.13,.06-.23,.09-.33,0-.03,.02-.06,.03-.09,0-.03,.04-.12,.04-.12,.04-.12,.07-.23,.11-.35-.01,.05-.03,.11-.05,.18,.05-.14,.09-.29,.15-.43,.04-.14,.11-.28,.17-.42,.02-.04,.34-.77,.4-.9,.06-.13,.12-.25,.19-.38-.07,.15-.16,.34-.25,.53,.67-1.38,1.57-2.63,2.66-3.7-.17,.17-.35,.34-.51,.52,.06-.07,.12-.13,.18-.19,.09-.09,.17-.18,.26-.27,.05-.05,.25-.24,.31-.29,.16-.14,.34-.3,.53-.46,.06-.05,.09-.08,.13-.11,.25-.2,.49-.38,.73-.55-.05,.03-.09,.06-.14,.1,.07-.05,.13-.1,.2-.15,.05-.04,.1-.08,.15-.1,.05-.03,.08-.06,.12-.08,.06-.04,.12-.07,.18-.11-.09,.06-.19,.12-.28,.18,.02-.01,.05-.02,.07-.03-.02,.03,.14-.04,.17-.05,.11-.05,.23-.15,.35-.17-.03,.05,0,.05,0,.04,.05-.02,.07-.03,.09-.04-.03,0-.03,0-.07,0,.06-.08,.15-.08,.25-.12,.03,0,.05-.02,.08-.02,.14-.04,.25-.06,.4-.06,.19,0,.4-.08,.59-.03,.05-.04,.26-.05,.35-.04,.1,0,.13,.01,.16,.02,.05,.02-.01,.03-.08,.08,0,.02,.03,.03,.05,.04,0,.04-.04,.05-.08,.06-.11,.02-.23,0-.33,0-.05,0-.17,.03-.26,.03-.04,0-.07,0-.09-.02-.04,0-.05-.01-.07,0,.09,.01,.06,.05,0,.09-.05,.03-.11,.06-.16,.07,.1,0,.23,.05,.35,.09-.07,.09-.28,.1-.39,.15-.04,.02-.09,.05-.13,.07l-.06,.04c-.09,.07-.14,.14-.2,.18-.13,.02-.17,0-.23,0-.11,.05-.18,.11-.22,.11-.07,0-.12,.02-.16,.03-.02,0-.04,.01-.05,.02-.04,.03-.09,.12-.12,.18,.01,.1,.06,.01,.14,.05,0,.03-.03,.04-.02,.06,.07,.02,.1,.04,.12,.06,.02,.02,.03,.04,0,.07,.09-.02,.12-.03,.16-.04,.03,0,.06-.01,.06-.01,.15,.03,.14,.13,.03,.18,.01,.05,0,.09-.03,.14,.02,0,.04,0,.06,0,.04,0,.07,0,.08,.05,.05,.11,.09,.16,.11,.22,0,.02,.01,.05,.02,.07,0,.05,0,.07-.02,.09-.03,.01-.07-.03-.09-.02-.02,.08,.01,.09,.04,.11,.02,0,.04,.02,.05,.03,.05,.14-.12,.17-.25,.18-.06,0-.09,0-.11,.01,.03,.01,.08,.02,.14,.02,.08,0,.16,0,.22,0,.04-.06,.1-.03,.04,.06-.02,.04-.09,.04-.14,.02,.03,0,.07,.02,.09,.03-.12,.08-.18,.07-.23,.07,.08-.01,.12,.04,.2,.02,.03-.01,.05-.03,.07-.04,.02-.01,.04-.03,.06-.04,.03-.03,.07-.06,.11-.08,0,.05-.07,.04-.09,.08-.04,.14-.03,.13-.09,.16-.11,.07-.14,.09-.21,.15-.04,.03-.08,.08-.14,.1-.1,.03-.06-.03-.16-.04,.04,.14,.04,.08-.08,.18-.04,.04-.1,.09-.14,.16,0,.07,0,.11-.03,.15,.07,0,.15,.04,.22,.02-.03-.01-.05-.03-.06-.05-.04-.05-.03-.11,.02-.16,.03-.05,.06-.1,.1-.13,.05-.04,.12-.08,.19-.12,.09-.06,.17-.11,.21-.13,.07-.05,.15-.12,.22-.18,.04-.03,.05-.04,.07-.05,.11-.05,.13-.06,.16-.07,.05-.02,.12-.05,.11-.05,.03,0,.06-.02,.08-.02,.03,0,.05,0,.06,.02-.04,.08-.05,.05-.03,.07-.05,.1-.09,.19-.14,.27,0,.02,0,.05-.03,.07,0,0-.19,.08-.19,.08,.03,.05,0,.08-.06,.11-.05-.07-.2,0-.27,.07-.02,.02-.03,.03-.04,.04,.02,0,.05,0,.09-.01,.19-.04,.59-.12,.71-.05,.1-.02,.28-.05,.28-.01,0,.01-.01,.03-.06,.06-.05,.03-.12,.03-.18,.03-.05,0-.09,.01-.12,.05,0,.11,0,.12,.02,.11,.04-.03,.14-.14,.19-.12-.01,.03-.03,.04-.04,.04,.04,.03,.22,.15,.22,.21,.04,0,.07,0,.09,0,.03-.01,.05-.05,.02-.1,.06,0,.1,0,.12,.04,.05,.07,.07,.08,.1,.09,.04,.02,.07,.07,.11,.11,.03,.02,.07,.01,.08,.06,.03,.05,.02,.06,.01,.08,.02,.05,0,.07,.01,.08,.02,.01,.03,.02,.06,.02-.01,.03-.02,.05-.04,.08-.02,.04-.04,.08-.05,.11,.02-.03,.03-.07,.05-.1,.02-.03,.04-.05,.04-.05,.04-.03,.05-.04,.08-.06,.19-.14,.06-.02,.02-.15,.06-.03,.13-.09,.2-.1,.08,0,.14,.03,.22,.02-.04,.05-.08,.07-.11,.09-.04,.03-.07,.07-.03,.13-.13,.05-.14,.06-.18,.12l-.03,.06,.08-.02s.05-.01,.07-.01c.07,0,.11,.01,.16,.06,.08,.08,.11,.12,.11,.13,0,.05-.07,.06-.1,.08-.02,.06,0,.07,0,.09,.02,.02,.08,0,.15,0,.07-.02,.14-.05,.17-.04,.09,.03,.1,.03,.1,.05-.04,.03-.07,.05-.1,.06-.04,.02-.08,.03-.12,.04-.02,0-.04,.01-.05,.02,.17,.08,.44-.04,.51-.15,.03-.08,.02-.1,.07-.14,.02-.02,.05-.03,.08-.03,.05-.02,.11-.03,.16-.05-.02-.07-.17-.04-.34-.01-.26,.05-.57,.1-.56-.13,.03-.14,.15-.16,.25-.18,.03,0,.06,0,.09-.01,.11-.02,.43-.16,.62-.15,.06,0,.1,.02,.12,.06,.09-.07,.1-.09,.13-.09,.04-.02,.13,0,.2,0,.08,.01,.14,.03,.14,.03-.02-.02-.04-.04-.06-.05-.02-.01-.04-.02-.06-.03,.06-.09,.3-.15,.34-.02-.03-.06-.03-.09,0-.1,.04-.01,.13,.04,.15,.11,.07-.04,.08,.04,.14,.06-.02-.09-.04-.12-.03-.14,0-.01,.02-.01,.07,0,.07,.02,.03,.02,.06,.06,.04,0,.06,0,.08,.01,0-.08,.15,0,.21,0-.09,.05-.06,.03-.11,.07,.08,0,.12,.01,.17,0,.06,.11,.05,.06,.08,.1,0-.02,0-.04,0-.06,0-.03,.03-.04,.05-.03,.06,.01,.13,.11,.12,.2,.06-.08,.08-.07,.1-.04,.02,.06,.03,.08,.03,.1,.02-.03,.04-.05,.04-.05,.01,0,.02,0,.04,.04,.03-.05,.06-.05,.09-.04,.1,.03,.26,.16,.25,.24-.08-.02-.16-.06-.24-.1,0,.03,.02,.05,.03,.07,.02,.04,.04,.07,.07,.1,.04,.05,.08,.1,.11,.16,0,.02,.02,.03,.02,.05,.04,.05,.06,.14,.11,.18,.02-.02,.1,0,.11,.05-.05,.06,.09,.13,.12,.16,.07,.05,.09,.07,.12,.08,.04,.02,.08,.02,.11-.02,.03,.06,.01,.1,.02,.16,.04-.04,.07-.04,.09-.02,.06,.04,.22,.11,.25,.14,.07,.07,.03,.23,.03,.33,0,.02,0,.05,0,.07,0,.09,0,.2-.12,.19,.09,.03,.09,.07,.06,.11-.06,.07-.23,.13-.28,.12-.14,0-.39-.19-.43-.29-.03,.03-.05,.06-.06,.08-.05,.09-.07,.16-.12,.24-.09,.14-.15,.18-.16,.23,0,.03,.01,.05,.03,.07,.09,.11,.27,.08,.12,.25,0,.03,.04,.05,.06,.07-.03,.03-.07,.03-.1,.03-.07,0-.14-.06-.1-.09,.02-.04,0-.06-.02-.08-.08-.06-.13,.08-.25,.01-.01,0-.07-.14-.09-.16-.07-.01-.2,.03-.23-.05-.04,.02-.04,0-.05,0-.03-.06-.05-.13-.04-.2,.09,.03,.06-.07,.05-.14,0-.05-.01-.08-.01-.09-.09-.1-.2-.11-.21-.12-.05-.06-.05-.14-.01-.2,.04-.05,.05-.07,.07-.08,.11-.05,.21-.03,.21-.2,0-.06-.04-.1-.02-.16-.07-.03-.14-.15-.22-.2-.04-.03-.06-.05-.09-.07-.05-.04-.06-.06-.07-.08,0-.13,.02-.14,0-.18-.01-.02-.03-.03-.05-.04-.03-.01-.05-.02-.06-.03-.03-.01-.07-.03-.1-.03-.1-.02-.19,0-.24,.1,.08,.02,.17,.12,.24,.2,.04,.05,.07,.09,.09,.11,.06,.09,.08,.14,.08,.19,0,.02-.03,.09-.06,.15-.03,.06-.06,.12-.07,.14-.08,.11-.06,.08-.09,.07-.09,.02-.16,.05-.23,.06-.02,0-.05,0-.07,0-.02,0-.04,0-.06-.01-.15-.03-.28-.11-.44-.11-.11,0-.18,.05-.28,.05,.04,.03,.09,.06,.15,.09,.04,.02,.08,.04,.12,.05,.03,0,.07,0,.1,0,.13,0,.21-.02,.33,.04,.15,.08,.37,.21,.25,.34-.05-.05-.09-.07-.13-.09-.06-.04-.05-.05-.13-.03-.05,.01-.03,.02-.07,0-.03,.17-.08,.28,.1,.23,.13-.07,.19-.17,.29,0,.02,.05,.03,.12,.03,.15,0,.07-.05,.14-.04,.21,0,.05,0,.07,.02,.08,.01,.01,.03,.02,.05,.05,.06,.03,.07,.06,.08,.09,.03,.02,.01,.03,.05,.05,.08,.02,.16-.08,.26-.07,.05,0,.11,.03,.16,.05,.13,.07,.27,.18,.41,.16,.04-.05,.06-.13,.11-.15,.01,0,.08,.04,.1,.05,.04,0,.07,.03,.11,.04,.04,.02,.08,.04,.12,.05,.03,0,.05,0,.08,0-.02-.02-.03-.03-.04-.04-.06-.06,0-.05,.05-.05,.04-.03,.08-.03,.11-.07,.04-.05,.05-.09,.02-.18-.01-.04-.04-.12-.06-.21-.03-.1-.04-.2,.03-.22,.02,0,.06,.02,.1,.05l.07,.05c.11,.03,.12,.04,.12,.04,.03,.03,.04,.05,.04,.05,.04,.15,.03,.32-.01,.4-.02,.04-.04,.06-.08,.05,.02,.03,.01,.05,0,.06,.02,.14,.05,.14,.11,.13,.03,0,.06,0,.1,0,0,.01,.13,.06,.15,.07,.15,.02,.19,.05,.22,.08,.02,.02,.04,.03,.04,.04,.03,.03,.06,.07,.09,.11,.05,.07,.1,.13,.17,.18,.02,.01,.04,.02,.06,.03,.08,.03,.16,.05,.22,.09,.03,.02,.06,.05,.09,.08,.04,.03,.07,.07,.11,.1,.08,.07,.1,.11,.13,.13,.03,.01,.05,.02,.08,.02,.05,0,.08,0,.13,0,0-.03,.02-.06,.05-.08,.03-.02,.06-.03,.09-.01,.01,.04,0,.08-.02,.12,0,.02-.01,.04-.01,.06,.03,.09,.1,.09,.16,.08,.03,0,.04,0,.06,0,.05,0,.09-.03,.16-.03,.05,0,.15,0,.18,.03,.04,.03,.03,.04,.01,.05,0,.02,0,.04-.03,.07-.03,.06-.03,.05-.05,.05-.03,.02-.07,.03-.13,.05-.03,0-.05,.01-.08,.03-.03,.02-.06,.02-.09,.03,0,.04,0,.05-.02,.07,0,.02-.02,.05-.03,.06,0,.04,0,.06-.02,.08-.04,.06-.06,.06-.07,.06-.02,.03-.03,.06-.03,.09-.01,.09,.04,.2,.06,.29,.07,.26,.13,.28,.36,.25,.14-.02,.28-.03,.42-.04,.16-.01,.31-.06,.38-.07,.02,0,.04-.02,.06-.02,.02,0,.07,.01,.12,.03,.11,.05,.18,.08,.19,.1,.02,.04,0,.05-.02,.07,0,.02-.01,.04-.01,.08,0,.17,.03,.33,.08,.47,.02,.05,.04,.09,.06,.13,.05,.09,.15,.2,.12,.3-.04,.09-.07,.08-.09,.08-.01,.01-.02,.03,0,.07-.25,.04-.46,.06-.67,.08,.03,0,.11,0,.18,0,.13-.01,.47-.08,.51-.04,.02,.02,.07,.24,.07,.25-.1,0-.21-.04-.31-.06-.07,0-.13,0-.18,.06-.05,.06-.06,.1-.07,.13-.02,.07-.04,.13-.12,.12-.02,0-.04,0-.06-.01-.09-.03-.12-.09-.22-.11-.09-.02-.2,0-.3,0-.04,0-.08,0-.12-.01-.09-.03-.1-.06-.13-.09-.04-.05-.06-.07-.09-.08,0,0-.04,0-.07,0-.1-.03-.12-.06-.07-.11,0-.01,.03-.02,.06-.02-.1-.03-.13-.05-.17-.08-.04-.03-.11-.04-.12-.1,0,0,.09-.08,.1-.12,0-.12-.14-.16-.19-.24-.08-.11-.08-.14-.2-.19-.08-.03-.15-.06-.21-.1-.11-.06-.12-.05-.14-.15-.02-.07,.03-.13-.01-.2-.05-.07-.12-.09-.19-.08-.14,0-.29,.07-.4,.06-.11,0-.19-.04-.27-.09-.06-.04-.08-.05-.11-.07-.12-.09-.17-.12-.24-.09-.02,.01-.05,.04-.08,.07-.11,.13-.11,.16-.04,.27-.08,.03-.1,.02-.11-.03-.09,.06-.15,.13-.22,.19-.11,.09-.23,.14-.33,.19-.08,.04-.17,.09-.19,.15-.09,0-.26,.11-.35,.23-.04,.07-.06,.14-.03,.2,.05,.11,.09,.08,.22,.12,.16,.05,.17,0,.32,0,.02,0,.06,0,.09,.02,.05,0,.08,.02,.08,.07-.02,.06-.04,.08-.05,.09-.06,.04-.17,.08-.25,.11-.08,.05-.15,.1-.22,.1-.03,0-.06,0-.08-.05-.02-.05-.02-.06-.02-.07,0-.06,.03-.12-.01-.19-.07,.03-.13,.01-.14-.01,0-.02-.03-.04-.04-.06-.02-.02-.1-.13-.11-.15-.03-.02-.04-.02-.05-.05,.04-.11,.07-.12,.09-.13,.02-.04,.03-.05,.04-.07,0-.03,0-.06,0-.09-.02-.04-.09-.04-.15-.02-.05,.04-.09,.08-.11,.09-.02,.02-.04,.04-.08,.02-.1-.05,.08-.2,.11-.22,.14-.07,.36-.1,.41-.19-.13-.1,.09-.09,.14-.09,.05-.01,.09-.03,.13-.05,.04-.02,.07-.05,.1-.08,.02-.02,.04-.04,.07-.06,.14-.13,.3-.26,.34-.42-.01,.04-.03-.14,0-.11,0-.03,0-.03-.05-.06-.08-.05-.13-.01-.17,.04-.05,.06-.08,.14-.12,.09-.02,.04-.06,.06-.08,.07-.02,0-.04,0-.03-.05-.04,.05-.05,.15-.08,.17-.05,.04-.14,.08-.18,.12-.03,.03-.09,.09-.13,.11-.04,.02-.08,.03-.12,.04-.05,0-.1,.02-.15,.03-.15,.04-.29,.12-.34,.24-.03,.16-.05,.28-.15,.39,.04,.07,.02,.08,0,.09-.04,.04-.12,.08-.18,.11-.04,.04-.07,.09-.11,.13-.17-.09-.51,.08-.64,.07h.16c-.09,.06-.16,.1-.16,.1-.04-.02-.01-.07-.01-.07,.04-.06,.05-.08,.07-.1-.02,.01-.05,.03-.08,.04-.05,0-.07,0-.08,0,.09-.1,.11-.11,.13-.12,.04-.03,.06-.04,.08-.05,.08-.06,.19-.15,.26-.23,.04-.05,.06-.1,.06-.15-.1,.06-.15,.05-.19,.02-.1-.05-.18-.16-.32-.16-.03,0-.07,0-.12,.01-.02,.01,0,.02-.04,.04-.11,.05-.09,0-.1,.09,.07,.09,.03,.13,.03,.18,.04,.04,.04,.06,.04,.08,0,.02,0,.04-.06,.04-.03,0-.05,0-.08,0-.06-.03,.02-.1-.04-.15,0,.14-.02,.15,.04,.22,.03,.03,.05,.02,.06,.02,.02,0,.03-.01,.05,.04,.03,.05,.02,.07-.01,.07-.06,0-.12-.03-.11-.03-.01,.04-.04,.05-.08,.05-.03,0-.06,.01-.1,.02,.07,0,.07,0,.09,.02,.02,.07-.02,.1-.09,.07,0,.04,0,.06-.02,.07-.02,.01-.04,.02-.07,.01,.01,.02,.03,.04,.04,.06,.03,.05,.06,.09,.07,.14-.09-.08-.13-.16-.22-.16,0,.03,.05,.04,.08,.07-.02,.02-.05,.02-.08,0-.02,.03,.01,.09,.03,.14,0,.05,0,.06-.02,.06-.03,0-.05,0-.06-.03-.04-.07-.05-.15-.07-.19-.06,.03-.11,.01-.13,0,0,.02,0,.04,0,.05-.02,.06-.06,.08-.1,.09-.02,0-.05,0-.07,0-.14-.04-.07-.1-.15-.18-.01-.01-.03-.02-.05-.03-.12-.04-.32,.13-.45,.13-.04,0-.11-.02-.14-.04-.04-.03-.08-.07-.11-.12-.03-.07-.07-.08-.13-.03-.03,0-.05,0-.08,0l-.04-.05s-.05-.02-.05-.04c-.02,.02-.03,.05-.03,.1,0,.02,0,.03,0,.05,0,.03,0,.08,0,.13,0,.1-.02,.19-.1,.23,.03,.04,.05,.08,.06,.13,.06,.17,.07,.4,.11,.56,.01,.05,.02,.14,.07,.18,.05,.04,.14,.04,.2,.05,.02,0,.04,0,.06,.01,.06,0,.11-.02,.16-.03,.12-.06,.2-.04,.27,0,.06,.02,.12,.06,.17,.1,.03,.02,.1,.08,.15,.1,.08,0,.1-.01,.12-.02,.06,0,.12,0,.18-.01,.12-.02,.21-.04,.31-.05,.06,0,.09,0,.11-.01,0,.01,.09,.01,.11,0,.03-.01,.06-.05,.1-.06,.09-.04,.17-.03,.23-.03,.07,0,.13-.02,.2-.05,.1-.06,.19-.12,.33-.11,.09,0,.18,.03,.29,.14,.02,.02,.03,.04,.04,.07,.02,.04,.04,.09,.05,.15,.01,.08,0,.2,.07,.26,.09,.04,.12,.04,.16,.02,.05-.02,.1-.06,.15-.08,.31-.13,.64-.23,.96-.34,.03,0,.36-.13,.42-.15,.02,0,.05-.01,.07-.03l.07-.02s-.01-.05,0-.07c.11-.05,.14-.03,.16-.02,.14-.1,.02-.16-.04-.26-.07-.13-.05-.16-.02-.19,0-.02,.01-.05,.02-.08,.03-.01,.04-.03,.05-.05,0-.02,0-.04-.01-.06-.01-.02-.03-.05-.05-.07-.04-.06-.06-.09-.04-.12,.05-.02,.08,.04,.12,.03,.06-.01,.03-.03,.1-.05,.03,0,.05,0,.07-.01,.03-.01,.06-.02,.11-.02,.16,0,.31,.06,.45,.08,.04-.01,.08-.04,.1-.05,.03,0,.05,.02,.07,.04,.05,0,.1,.03,.15,.06,.02,0,.04,.01,.07,.06,.01-.03,.03-.05,.06-.06,.1-.03,.12-.03,.14-.03,.04,0,.06,0,.08,0,.19,.01,.38,.04,.55,.08,.08,.02,.15,.04,.22,.07,.06,.03,.08,.06,.11,.08,.11,0,.23,.08,.34,.13,.11,.05,.21,.07,.2-.01,.12,0,.24,.04,.34,.01,.11-.04,.16-.17,.25-.16,.02,0,.04,0,.06,.02,.05,.04,.13,.21,.19,.26,.26,.22,.57,.34,.71,.64,.06,.12,.02,.19,.03,.3,.01,.07,.04,.12,.07,.17,.03,.04,.07,.09,.1,.12,.07,.07,.16,.14,.26,.2,.05,.03,.08,.04,.1,.05,.08,.03,.18,.02,.24,.05,.15,.09,.32,.29,.39,.4,.06,.1,.08,.21,.12,.31,.05,.09,.13,.14,.19,.22,.03,.04,.08,.1,.13,.18,.13,.2,.27,.49,.16,.6l-.03-.05s-.04,.04-.05,.06c-.03,.12-.01,.17,0,.24,.02,.17-.06,.35-.06,.53,0,.02,0,.04,0,.06,0,.04,.01,.08,.02,.11,.04,.14,.13,.23,.18,.36,.03,.08,.03,.09,.01,.11,0,.02,0,.04-.01,.06,0,.04-.02,.08-.04,.11,0,.02,0,.04,0,.07,0,.04,0,.09,0,.13,0,.07,.01,.13-.02,.19,0,0-.13,.12-.14,.13-.01,0-.05,0-.08,0-.02,0-.04,.01-.05,.02,0,.02-.02,.04-.03,.05-.02,.02-.03,.03-.04,.05-.02,.03-.03,.06-.05,.08-.01,.02-.03,.04-.05,.07-.01,.02-.03,.03-.04,.05-.03,.04-.05,.05-.07,.06-.05,.04-.1,.07-.14,.11-.04,.05-.07,.15-.09,.2-.03,.08-.05,.12-.1,.18-.02,.02-.04,.05-.08,.08-.1,.08-.19,.17-.29,.25-.2,.17-.41,.33-.62,.49-.08,.06-.13,.09-.19,.1-.16,.02-.33-.1-.5-.13-.05,0-.07,0-.1,0-.05,0-.11,0-.16,0-.07,0-.13,.02-.19,.03-.1,.04-.22,.11-.31,.1-.02,0-.04-.02-.06-.04-.05,0-.11-.02-.18-.04-.13-.04-.26-.09-.39-.13-.07-.01-.14-.03-.21-.05-.04-.01-.08-.02-.13-.03-.06-.01-.12-.02-.19-.02-.29,0-.35,.07-.5,.26-.03,.05-.06,.09-.1,.13-.07,.06-.13,.06-.19,.05-.05,0-.11,0-.18,0-.12-.01-.24-.07-.34-.02-.04,.05-.06,.09-.1,.11-.03,.01-.06,0-.08-.02-.01,.22-.08,.32,.06,.49,0,.11-.03,.14-.02,.21,.02,.05,.04,.09,.06,.12,.03,.04,.07,.08,.12,.07,0,.03,0,.05-.02,.08-.07,.28-.53,.59-.69,.79,.03,.04,.02,.1-.02,.16-.02,.06-.06,.11-.09,.14,.05,0,.09-.02,.12,0,.02,0,.03,0,.03,.04,0,.04-.05,.14-.09,.2-.08,.07-.07,.09-.07,.11-.03,.09-.09,.16-.11,.2-.01,.14,.1,.25,.18,.35,.01,.02,.03,.03,.04,.05,.08,.11,.17,.26,.22,.41,0,.03,.02,.05,.02,.08,.02,.07,.02,.13,0,.18-.03,.1-.18,.3-.24,.39-.08,.12-.11,.19-.11,.29,0,.03,.01,.07,.01,.09,0,.08,0,.15-.02,.21-.01,.05-.03,.09-.05,.13-.03,.05-.12,.15-.16,.24-.03,.07-.03,.13,.06,.16-.03,.06-.04,.05,0,.09-.03,.03-.08,.04-.15,.04-.06,0-.13-.02-.19-.03-.03,0-.05-.01-.07-.01-.06-.01-.12-.02-.17-.03-.26-.04-.51-.1-.77-.18-.02,0-.05-.01-.07-.02-.19-.07-1.15-.55-1.08-.65-.1-.11-.26-.12-.39-.18-.08-.03-.13-.07-.17-.11-.03-.02-.06-.04-.08-.07-.09-.11-.14-.18-.18-.29-.04-.13-.02-.1-.14-.18-.12-.07-.24-.14-.35-.22-.06-.04-.12-.07-.19-.11-.15-.06-.34-.17-.46-.25-.11-.07-.26-.18-.33-.29-.02-.03-.03-.07-.04-.11-.02-.07-.03-.08-.05-.11-.03,.05-.06,0-.08,.03,0,.01-.02,.02-.04,.03-.03,.07,.03,.19,.06,.28-.08,.01-.17,0-.2,0,.05,.05,.14,.16,.18,.21,.1,.11,.11,.22,.21,.33,.05,.05,.1,.1,.16,.15,.19,.15,.39,.29,.47,.5-.35,.04-.67-.32-.92-.54-.04-.03-.08-.07-.12-.1-.15-.13-.3-.26-.44-.41-.02-.02-.03-.03-.05-.05-.08-.07-.18-.16-.23-.21-.04-.07-.06-.13-.1-.17-.16-.07-.24-.23-.28-.36-.02-.04-.08-.18-.07-.22,.13,.06,.17,.21,.28,.28,.06-.01,.21,.15,.22,.22,.12,.03,.28,.2,.45,.28,.04,.02,.09,.04,.14,.05-.22-.2-.44-.45-.68-.66-.28-.25-.62-.46-.86-.73,.07,.02,.13,.11,.19,.14-.01-.04-.06-.07-.1-.11,.02-.01,.06,.01,.09,.05-.07-.15-.27-.22-.38-.35-.11-.14-.24-.29-.29-.43,.03,0,.06,.05,.09,.09,0-.03-.02-.07-.04-.12-.05-.12-.07-.22-.02-.36,.03-.08,.09-.12,.08-.24,.11-.09,.13-.25,.1-.39,0-.02,0-.04-.02-.06-.03-.07-.06-.11-.08-.15-.02-.03-.03-.06-.04-.09-.01-.04-.02-.1,0-.17,.02,.03,.03,.05,.05,.07,.03,.05,.07,.09,.12,.14,0-.03-.02-.05-.04-.07-.01-.02-.02-.03-.04-.05-.2-.14-.4-.53-.5-.72-.14-.26-.28-.53-.38-.8-.02-.06-.04-.12-.06-.17-.11,.09-.26,.18-.31,.12,.18-.16,.28-.16,.31-.14-.03-.05-.08-.04-.09-.1,0,0,.03-.1,.03-.15-.02-.07-.09-.17,.02-.17,.06,0,.06,.05,.08,.09,.09,.05,.17,.07,.16,.06,.04,0,.06,.01,.07,.02,.02,0,.03,.02,0,.08,.07-.04,.13-.08,.18-.11,.08-.03,.11-.03,.12,0,0,.02,0,.05-.02,.08-.04,.07-.06,.09-.08,.11,.02,0,.04,.02,.06,.03,.14,.03,.33,.19,.44,.22,.21,.06,.17-.05,.28-.11,.08-.04,.05-.01,.16,.01-.07-.1-.17-.15-.15-.25,.08-.14,.17-.2,.22-.25,.01-.02,.03-.03,.04-.04,.02-.01,.03-.03,.05-.04,.1-.07,.17-.1,.28-.16,.23-.12,.14-.3,.22-.5-.09-.09-.13-.21-.21-.27-.04-.02-.08-.03-.11-.03-.08,0-.12,.02-.15,.04-.01,.06-.1,.11-.14,.18,0,.03,0,.06,0,.1,.03,.07,.02,.21-.02,.24-.03,0-.04-.01-.05-.03-.02,.13-.06,.25-.09,.38,0,.05-.02,.09-.02,.14,0,.05,.01,.14,0,.17-.04,.02-.05,.03-.08,.03-.02,0-.04,0-.06,0-.03,0-.06-.02-.08-.04-.04-.03-.06-.05-.09-.07-.04-.04-.07-.07-.1-.1-.22-.16-.42-.22-.55-.34-.11-.11-.18-.19-.31-.27-.05-.03-.1-.07-.15-.11-.06-.05-.11-.1-.14-.15-.02-.04-.03-.07-.04-.11-.04-.06-.08-.1-.12-.16-.03-.02-.06-.03-.07-.04-.03,0-.05,0-.05-.05,0,.05-.05,.1-.08,.14-.01,.03-.01,.06,0,.09,.05,.06,.11,.1,.13,.13,.02,.03,.03,.06,.04,.09,.04,.05,.07,.09,.09,.13,.03,.03,.06,.07,.06,.1,.09,.03,.06,.07,.06,.14,.04,0,.07,.03,.07,.08,.01,.04,.01,.09,0,.11-.07-.02-.1-.05-.12-.05-.02-.06-.04-.13-.03-.19,0,.01-.02,.05-.04,.07-.02,.01-.04,.02-.06,0-.04-.05-.07-.12-.09-.17-.03-.02-.06-.05-.06-.05-.02-.02-.03-.02-.04-.04-.04-.05-.01-.13-.04-.19-.04,.03-.03,.11,0,.21,.04,.11,.12,.23,.13,.31,.08,.03,.12,.05,.13,.07,0,.05-.03,.06-.06,.05-.03,.06-.04,.08-.06,.08-.07,.02-.08-.01-.1-.07-.06-.13-.09-.27-.15-.39-.03,.02-.05,.01-.06-.01-.04-.06-.07-.22-.09-.31v-.06c-.04-.13-.06-.26-.08-.39,0-.02-.01-.06-.03-.11-.01-.07-.03-.14-.01-.18,.06-.03,.06-.08,.09-.11,0-.02,0-.04,0-.06-.08-.1-.08-.29-.1-.44,0-.04-.01-.08-.03-.11-.01,.02-.02,.03-.04,.05-.04-.1-.1-.23-.14-.36-.03-.02-.03-.03-.02-.05-.01-.08-.03-.14-.03-.2,.04,0,.06-.01,.08-.02,.04-.12,.05-.14,.07-.11,.06-.06,.08-.07,.09-.07,.04-.02,.1-.03,.15,0-.07-.04-.03-.15-.03-.2,0,0-.11-.09-.09-.08,0,.02,.01,.04,.02,.07,0,.03,0,.05,0,.07-.07-.01-.07,0-.07,.03-.04-.05-.04-.07-.04-.09-.05,.05,0,.2-.05,.24-.03-.01-.04-.02-.05-.03-.04-.06-.02-.18,.02-.28,.03-.08,.06-.15,.07-.18-.02,0-.04,0-.06-.01-.06,0-.12,0-.16-.02-.04-.01-.1-.05-.16-.08-.06-.03-.11-.06-.16-.09,0,.04-.05,.19-.09,.33-.03,.15-.06,.3-.1,.29-.02-.12,0-.18,0-.26,.02-.1,.05-.2,.07-.25,.02-.1,.03-.14,.03-.16,0-.02-.02-.03-.04-.05-.02-.02-.05-.04-.08-.05-.13-.02-.09,.07-.18,.05-.07,.21-.06,.17-.18,.27-.08,.06-.09,.13-.13,.08-.03-.04-.04-.06-.06-.08,.01,.13,.11,.17,.1,.25-.01,.08-.13,.2-.18,.27-.07-.06-.1-.13-.12-.21,0-.03-.01-.06-.01-.1,0-.03,.03-.1,.03-.15-.03,0-.03,.03-.04,.06,0,.02-.01,.05-.02,.07-.01,.1-.02,.2-.02,.3,0,.09,0,.18-.01,.26-.02,.21-.01,.43-.04,.64-.01,.1-.04,.21-.05,.32,0,.09,0,.17,0,.25,0,.02,0,.05,0,.07,.12,.13,.15,.37,.21,.52,.02,.05,.08,.13,.1,.19,.04,.06,.1,.13,.1,.19,0,.03-.02,.04-.04,.05-.06-.09-.06-.11-.06-.11-.1-.02-.16-.08-.2-.15-.04-.06-.05-.09-.07-.12-.02-.03-.03-.06-.04-.08,0,.14,0,.2,.05,.27,.01,.02,.03,.04,.04,.06,.08-.02,.07,.02,.11,.08,.01-.04,.06,.04,.07,.06,.03,0,.05-.01,.06,.04,.02,0,.03,.02,.03,.04,.03-.02,.07,.15,.08,.18,.04,.08,.1,.14,.16,.22,.02,.03,.03,.04,.04,.05,.02,.03,.04,.06,.05,.09,.05-.03,.05,.02,.09,.04-.03-.11-.14-.11-.14-.24,.03-.02,.04-.02,.06,0,.01,0,.08,.12,.09,.14,.05,.02,.06,.03,.06,.05,.02,.04,.01,.08-.03,.09,.03,.06,.05,.13,.08,.21,.02,.05,.03,.09,.05,.14,.04,.08,.09,.17,.11,.26,0,.02,0,.04,0,.06-.04-.01-.03,.02-.03,.05-.11-.05-.18-.12-.2-.14-.04-.03-.07-.06-.1-.09-.02-.02-.04-.04-.05-.06-.06-.07-.07-.08-.08-.1-.07-.09-.13-.17-.18-.27-.04-.07-.08-.14-.12-.21-.1-.16-.19-.31-.29-.48-.02,.01-.04,0-.04-.02-.03-.04-.05-.09-.07-.16,0-.02-.02-.04-.04-.05,0,.02,0,.04,0,.06-.03-.03-.04-.1-.06-.13,0,.02,0,.04,0,.06,.04,.13,.17,.45,.13,.57-.06-.08-.1-.18-.13-.29-.08-.22-.13-.48-.11-.65,.03-.05,.01-.1,0-.16-.03-.12-.05-.24-.06-.36,0-.05-.02-.1-.03-.15-.13-.28-.13-.68-.18-.97-.07-.36-.13-.75-.18-1.08,0,.08,0,.16,0,.24,0,.06,0,.13,0,.19-.03-.06-.04-.08-.04-.1,0-.05,0-.08-.01-.11,0-.13,0-.28,0-.38,0-.04,0-.12,0-.13,0-.07,0-.13,0-.18,0,.02,0,.04,0,.06,0-.03,0-.07,0-.1,0,0,0,.03,0,.06,0-.02,0-.04,0-.06Z"/><path class="cls-17" d="M25.95,33.95c-.02,.07-.05,.14-.08,.21,.03-.09,.05-.15,.08-.21Z"/><path class="cls-17" d="M32.68,28.47s.04,.05,.04,.07c-.09,.04-.08,.12-.23,.13-.07-.03-.09-.04-.12-.05-.14,0-.26,.04-.31-.02,0-.03,.07-.07,.14-.1,.07-.03,.14-.05,.16-.05,.03,0,0,.05,0,.05,.07,0,.32-.13,.32-.03Z"/><path class="cls-17" d="M31.76,28.47s-.01,0-.04-.03c.03,0,.05,0,.06,.02,0,0,0,.02-.02,.01Z"/><path class="cls-17" d="M31.6,28.49s-.03,.05-.04,.02c0-.01,.02-.03,.04-.02Z"/><path class="cls-17" d="M32.28,29.17s.03-.03,.05-.02c-.05,.02-.06,.02-.05,.02Z"/><path class="cls-17" d="M32.27,29.16s.04-.04,.04-.04c.02,.02-.01,.04-.04,.04Z"/><path class="cls-17" d="M32.16,29.22s.04-.03,.06-.01c-.07,.05-.08,.04-.06,.01Z"/><path class="cls-17" d="M32.23,29.55s0-.04,.02-.03c-.01,.03-.02,.03-.02,.03Z"/><path class="cls-17" d="M31.87,29.31s.06,0,.07,0c-.05,.02-.07,.01-.07,0Z"/><path class="cls-17" d="M32.58,28.98c-.03,.06-.05,.07-.06,.05,.04-.04,.06-.05,.06-.05Z"/><path class="cls-17" d="M33.21,28.89c-.02,.05-.04,.05-.05,.04,0-.05,.03-.04,.05-.04Z"/><path class="cls-17" d="M34.5,29.13c-.05,.04-.12,0-.17-.03-.1,.02-.11,0-.12,0-.01,0-.02-.04-.04-.06-.07-.07-.14-.07-.18-.08,0-.03,.03-.04,.06-.04,.04,0,.1,0,.15,.02,.06,.02,.12,.03,.15,.03,.04,0,.1-.03,.14-.04,.05,0,.09,0,.09,.06,.05,.02,.1,.05,.12,.1,.01,.03,.02,.04,.02,.06,.02,.05-.16,.02-.2,.02-.02-.04-.03-.04-.03-.04Z"/><path class="cls-17" d="M48.49,30.41c-.05-.07-.11-.14-.16-.21,.06,.08,.12,.15,.16,.21Z"/><path class="cls-17" d="M48.33,30.21c-.12-.14-.24-.28-.36-.42,.11,.12,.25,.28,.36,.42Z"/><path class="cls-17" d="M48.59,30.54c.14,.18,.27,.36,.4,.55-.16-.22-.32-.44-.48-.66,.03,.04,.06,.07,.09,.11Z"/><path class="cls-17" d="M49.66,32.19c-.05-.1-.11-.2-.16-.29,.06,.11,.12,.21,.16,.29Z"/><path class="cls-17" d="M49.5,31.9c-.1-.17-.21-.35-.32-.51,.1,.15,.22,.34,.32,.51Z"/><path class="cls-17" d="M49.06,31.21c.04,.06-.08-.12-.08-.12,.03,.04,.05,.08,.08,.12Z"/><path class="cls-17" d="M49.15,31.34s-.04-.06-.07-.11c.03,.04,.05,.08,.07,.11Z"/><path class="cls-17" d="M47.32,29.12c-.13-.13-.27-.26-.41-.39,.1,.09,.2,.18,.29,.27,.04,.04,.08,.08,.12,.12Z"/><path class="cls-12" d="M40.43,27.52c-.41,.09-.82,.18-1.22,.27-.19,.05-.29,.17-.46,.29-.33,.22-.6,.32-.94,.1-.39-.24-.87-.2-1.31-.17-.25,.02-.43-.02-.29,.26,.13,.25,.32,.46,.46,.7,.12,.2,.11,.26-.13,.18-.36-.11-.7-.27-1.04-.42-.16-.07-.41-.13-.52-.26-.12-.13-.22-.45-.27-.62-.07-.27-.08-.54-.21-.8-.21-.43-.65-.44-.94-.79,.46-.18,.94-.33,1.42-.45,.03,0,.06-.02,.1-.02,.16-.04,.32-.08,.48-.11,.1-.02,.2-.04,.3-.06h.08c.76-.15,1.52-.21,2.29-.21,.07,0,.15,0,.22,0,.1,0,.2,0,.3,.01,.08,0,.16,.01,.24,.02,.08,0,.16,0,.24,.01,.03,0,.05,0,.08,0,.06,0,.08,0,.1,.01,.37,.04,.71,.09,1.05,.15h.07c.12,.03,.23,.05,.35,.08,.14,.03,.22,.05,.31,.07,.08,.02,.16,.04,.24,.06,.06,.02,.1,.03,.13,.03,.07,.02,.13,.04,.2,.06-.05-.02-.11-.03-.16-.04,.04,.02,.07,.06,.1,.15,.05,.14,.16,.33,.17,.48,0,.12,.02,.09-.09,.21-.39,.4-.79,.69-1.34,.82Z"/></g><path class="cls-3" d="M31.41,52.09c.3,0,.61-.01,.92-.04,.17-.02,.29-.16,.27-.33-.02-.16-.16-.29-.33-.27-.29,.03-.58,.04-.87,.04h-.12c-.16,0-.31,0-.46-.02-.16-.01-.31,.11-.32,.28-.01,.17,.11,.31,.28,.32,.16,.01,.33,.02,.5,.02h.13Zm2.96-.44s.06,0,.08-.01c.47-.13,.96-.3,1.45-.5,.15-.06,.23-.24,.17-.39-.06-.15-.24-.23-.39-.17-.47,.19-.94,.35-1.39,.48-.16,.05-.25,.21-.21,.37,.04,.13,.16,.22,.29,.22Zm-5.57-.15c.11,0,.21-.06,.26-.15,.08-.15,.03-.33-.12-.41-.41-.23-.76-.53-1.03-.89-.1-.13-.29-.16-.42-.06-.13,.1-.16,.29-.06,.42,.32,.43,.73,.79,1.22,1.06,.05,.03,.1,.04,.15,.04Zm8.91-1.22s.09-.01,.14-.03c.43-.22,.86-.47,1.33-.74,.14-.08,.19-.27,.11-.41-.09-.14-.27-.19-.41-.11-.45,.27-.88,.51-1.3,.73-.15,.08-.2,.26-.13,.41,.05,.1,.16,.16,.27,.16Zm-10.78-1.7c.2-.02,.32-.17,.3-.34-.02-.2-.04-.41-.04-.62,0-.26,.02-.53,.05-.81,.02-.16-.09-.32-.26-.34-.17-.02-.32,.09-.34,.26-.04,.3-.06,.6-.06,.89,0,.24,.01,.47,.04,.69,.02,.15,.15,.26,.3,.26Zm13.87-.15c.06,0,.12-.02,.17-.05l.16-.1c.36-.24,.73-.5,1.09-.75,.13-.1,.17-.28,.07-.42-.1-.13-.28-.17-.42-.07-.35,.25-.71,.5-1.07,.74l-.16,.1c-.14,.09-.18,.28-.08,.42,.06,.09,.15,.13,.25,.13Zm2.91-2.13c.07,0,.13-.02,.19-.07,.39-.32,.78-.65,1.16-.98,.12-.11,.14-.3,.03-.42-.11-.12-.3-.14-.42-.03-.37,.33-.75,.65-1.14,.96-.13,.1-.15,.29-.04,.42,.06,.07,.15,.11,.23,.11Zm2.68-2.41c.08,0,.15-.03,.21-.09,.36-.36,.71-.73,1.05-1.09,.11-.12,.1-.31-.02-.42-.12-.11-.31-.1-.42,.02-.33,.36-.68,.72-1.03,1.08-.12,.12-.12,.31,0,.43,.06,.06,.14,.09,.21,.09Zm2.41-2.68c.09,0,.17-.04,.23-.11,.16-.2,.77-.99,.93-1.2,.1-.13,.07-.32-.06-.42-.13-.1-.32-.07-.42,.06-.15,.21-.76,.99-.91,1.18-.1,.13-.08,.32,.04,.42,.06,.05,.12,.07,.19,.07Zm2.13-2.91c.1,0,.19-.05,.25-.14,.29-.45,.56-.88,.79-1.3,.08-.15,.03-.33-.12-.41-.15-.08-.33-.03-.41,.12-.23,.41-.49,.83-.77,1.27-.09,.14-.05,.33,.09,.42,.05,.03,.11,.05,.16,.05Zm1.68-3.19c.12,0,.24-.07,.28-.19,.19-.51,.34-1,.45-1.48,.04-.16-.07-.32-.23-.36-.16-.03-.32,.07-.36,.23-.1,.45-.24,.92-.42,1.39-.06,.16,.02,.33,.17,.39,.04,.01,.07,.02,.11,.02Zm.6-3.53c.19-.01,.31-.16,.3-.32-.02-.26-.06-.52-.11-.77-.06-.28-.14-.54-.24-.78-.06-.15-.24-.22-.39-.16-.15,.06-.22,.24-.16,.39,.09,.21,.16,.43,.21,.67,.05,.23,.08,.46,.1,.7,.01,.16,.14,.28,.3,.28Zm-1.69-3.02c.1,0,.2-.05,.26-.14,.09-.14,.04-.33-.1-.41-.43-.26-.93-.46-1.48-.59-.16-.04-.32,.06-.36,.22-.04,.16,.06,.32,.22,.36,.49,.11,.93,.29,1.3,.52,.05,.03,.1,.04,.16,.04Zm-4.97-.5s.04,0,.07,0c.47-.11,.95-.18,1.44-.2,.17,0,.29-.15,.28-.32,0-.17-.15-.29-.32-.28-.52,.03-1.03,.1-1.54,.22-.16,.04-.26,.2-.23,.36,.03,.14,.16,.23,.29,.23Z"/><path class="cls-3" d="M46.47,50.35c.24,0,.49,0,.73-.03,.17-.01,.29-.16,.28-.32-.01-.17-.16-.29-.32-.28-.48,.04-.97,.03-1.45,0-.17-.01-.31,.11-.33,.27-.01,.17,.11,.31,.27,.33,.27,.02,.55,.04,.83,.04Zm2.75-.47s.07,0,.11-.02c.53-.2,1-.47,1.39-.78,.13-.1,.15-.29,.04-.42-.1-.13-.29-.15-.42-.04-.34,.28-.75,.51-1.22,.69-.15,.06-.23,.23-.17,.39,.05,.12,.16,.19,.28,.19Zm2.45-2.46c.13,0,.25-.09,.29-.22,.1-.35,.15-.72,.15-1.12v-.1c0-.12,0-.25-.02-.37-.01-.17-.15-.29-.32-.28-.17,.01-.29,.16-.28,.32,0,.11,.01,.23,.02,.34v.09c0,.34-.04,.66-.12,.96-.04,.16,.05,.33,.21,.37,.03,0,.05,.01,.08,.01Zm-.33-3.54s.07,0,.1-.02c.16-.06,.24-.23,.18-.38-.17-.46-.38-.94-.63-1.41-.08-.15-.26-.2-.41-.12-.15,.08-.2,.26-.12,.41,.24,.45,.44,.9,.59,1.33,.04,.12,.16,.2,.28,.2Zm-1.74-3.15c.06,0,.12-.02,.18-.06,.13-.1,.16-.29,.06-.42-.29-.39-.61-.79-.95-1.19-.11-.13-.3-.14-.42-.03-.13,.11-.14,.3-.03,.42,.34,.39,.65,.78,.93,1.16,.06,.08,.15,.12,.24,.12Zm-2.38-2.71c.08,0,.15-.03,.21-.09,.12-.12,.12-.31,0-.43-.33-.33-.69-.68-1.09-1.05-.12-.11-.31-.11-.43,.01-.11,.12-.11,.31,.01,.43,.4,.37,.75,.71,1.08,1.04,.06,.06,.14,.09,.21,.09Zm-22.49-1.51s.1-.01,.14-.04c.15-.08,.2-.26,.12-.41-.1-.18-.19-.36-.28-.55-.07-.15-.25-.21-.4-.14-.15,.07-.21,.25-.14,.4,.1,.2,.2,.39,.3,.57,.05,.1,.16,.16,.26,.16Zm19.83-.93c.09,0,.17-.04,.23-.11,.11-.13,.09-.32-.04-.42-.39-.32-.79-.64-1.19-.94-.13-.1-.32-.07-.42,.06-.1,.13-.07,.32,.06,.42,.39,.3,.79,.61,1.17,.93,.06,.05,.12,.07,.19,.07Zm-20.87-1.6s.05,0,.08-.01c.16-.04,.26-.21,.21-.37-.13-.5-.21-.98-.23-1.42,0-.17-.15-.3-.31-.29-.17,0-.3,.15-.29,.31,.02,.48,.1,1,.24,1.55,.04,.13,.16,.22,.29,.22Zm17.98-.56c.1,0,.19-.05,.25-.13,.09-.14,.06-.32-.08-.42-.42-.28-.85-.56-1.28-.82-.14-.09-.33-.04-.41,.1-.09,.14-.04,.33,.1,.41,.42,.26,.84,.53,1.26,.8,.05,.03,.11,.05,.17,.05Zm-3.09-1.85c.11,0,.21-.06,.27-.16,.08-.15,.02-.33-.12-.41-.44-.24-.9-.47-1.35-.69-.15-.07-.33,0-.4,.14-.07,.15,0,.33,.14,.4,.44,.21,.89,.44,1.33,.67,.05,.02,.09,.04,.14,.04Zm-14.68-1.1c.1,0,.21-.05,.26-.15,.22-.39,.53-.72,.93-.99,.14-.09,.17-.28,.08-.42-.09-.14-.28-.17-.42-.08-.47,.32-.85,.72-1.11,1.19-.08,.14-.03,.33,.11,.41,.05,.03,.1,.04,.15,.04Zm11.42-.44c.12,0,.23-.07,.28-.19,.06-.15,0-.33-.16-.39-.5-.21-.96-.39-1.41-.55-.16-.06-.33,.02-.39,.18-.06,.16,.02,.33,.18,.39,.44,.16,.89,.34,1.39,.54,.04,.02,.08,.02,.12,.02Zm-3.41-1.18c.13,0,.26-.09,.29-.23,.04-.16-.05-.32-.22-.37-.52-.13-1.02-.24-1.5-.32-.16-.03-.32,.09-.34,.25-.03,.16,.09,.32,.25,.34,.46,.07,.94,.18,1.44,.31,.03,0,.05,0,.08,0Zm-5.06-.26s.05,0,.07,0c.45-.1,.93-.17,1.43-.18,.17,0,.3-.15,.29-.31,0-.17-.15-.3-.31-.29-.54,.02-1.06,.09-1.55,.2-.16,.04-.26,.2-.23,.36,.03,.14,.16,.23,.29,.23Z"/><path class="cls-3" d="M39.91,46.52c.51,0,1.02-.02,1.52-.05,.17,0,.29-.15,.28-.32,0-.17-.16-.3-.32-.28-.49,.03-.99,.04-1.49,.04-.17,0-.3,.14-.3,.3,0,.17,.14,.3,.3,.3Zm-2.1-.05c.16,0,.29-.12,.3-.28,0-.17-.12-.31-.28-.32-.49-.03-.99-.07-1.49-.12-.16-.01-.31,.1-.33,.27-.02,.17,.1,.31,.27,.33,.5,.05,1.01,.09,1.51,.12h.02Zm5.7-.18c.55-.07,1.06-.15,1.54-.25,.16-.03,.27-.19,.24-.35-.03-.16-.19-.27-.35-.24-.47,.09-.97,.17-1.47,.24-.16,.02-.28,.17-.26,.34,.02,.15,.15,.26,.3,.26Zm-9.29-.2c.15,0,.27-.11,.3-.25,.03-.16-.09-.32-.25-.34-.49-.08-.98-.17-1.47-.26-.16-.03-.32,.07-.35,.24-.03,.16,.07,.32,.24,.35,.49,.1,.99,.19,1.49,.27,.02,0,.03,0,.05,0Zm12.82-.54s.06,0,.09-.01c.5-.15,.98-.32,1.44-.5,.15-.06,.23-.24,.17-.39-.06-.15-.24-.23-.39-.17-.44,.18-.91,.34-1.4,.49-.16,.05-.25,.22-.2,.37,.04,.13,.16,.21,.29,.21Zm-16.35-.2c.13,0,.25-.09,.29-.22,.04-.16-.05-.33-.21-.37-.31-.08-1.27-.35-1.44-.4-.16-.05-.33,.05-.37,.21-.05,.16,.05,.33,.21,.37,.17,.05,1.14,.32,1.46,.41,.03,0,.05,.01,.08,.01Zm-3.44-1.09c.12,0,.23-.07,.28-.19,.06-.15-.01-.33-.16-.39-.47-.19-.92-.4-1.34-.62-.15-.08-.33-.02-.41,.13-.08,.15-.02,.33,.13,.41,.43,.23,.9,.44,1.39,.64,.04,.02,.08,.02,.11,.02Zm23.11-.11c.05,0,.1-.01,.15-.04,.45-.26,.89-.55,1.29-.85,.13-.1,.16-.29,.06-.42-.1-.13-.29-.16-.42-.06-.38,.29-.79,.56-1.22,.81-.14,.08-.19,.27-.11,.41,.06,.1,.16,.15,.26,.15Zm-26.25-1.65c.09,0,.18-.04,.24-.12,.1-.13,.08-.32-.05-.42-.4-.31-.76-.64-1.06-.99-.11-.12-.3-.14-.42-.03-.12,.11-.14,.3-.03,.42,.33,.37,.71,.73,1.14,1.06,.05,.04,.12,.06,.18,.06Zm29.05-.59c.08,0,.16-.03,.22-.1,.35-.39,.66-.8,.94-1.23,.09-.14,.05-.33-.09-.42-.14-.09-.33-.05-.42,.09-.26,.4-.56,.79-.89,1.15-.11,.12-.1,.31,.02,.42,.06,.05,.13,.08,.2,.08Zm-31.24-2.22s.07,0,.1-.02c.16-.06,.24-.23,.18-.39-.16-.44-.26-.9-.28-1.38,0-.17-.15-.29-.32-.29-.17,0-.29,.15-.29,.32,.03,.53,.13,1.06,.32,1.56,.04,.12,.16,.2,.28,.2Zm33.11-.84c.11,0,.22-.07,.27-.18,.2-.45,.31-.92,.31-1.41,0-.07,0-.13,0-.2,0-.17-.16-.29-.32-.28-.17,0-.29,.15-.28,.32,0,.05,0,.11,0,.16,0,.4-.08,.79-.25,1.16-.07,.15,0,.33,.15,.4,.04,.02,.08,.03,.12,.03Zm-32.96-2.65c.11,0,.22-.06,.27-.17,.2-.4,.46-.81,.78-1.2,.1-.13,.08-.32-.04-.42-.13-.1-.32-.08-.42,.04-.35,.43-.63,.87-.85,1.32-.07,.15,0,.33,.14,.4,.04,.02,.09,.03,.13,.03Zm32.56-.78c.05,0,.11-.01,.16-.05,.14-.09,.18-.27,.1-.41-.26-.42-.59-.83-.97-1.23-.12-.12-.31-.12-.43,0-.12,.12-.12,.31,0,.43,.35,.37,.65,.74,.89,1.13,.06,.09,.16,.14,.26,.14Zm-30.24-1.95c.07,0,.13-.02,.19-.07,.37-.29,.77-.58,1.2-.85,.14-.09,.18-.27,.09-.41-.09-.14-.27-.18-.42-.09-.45,.28-.87,.58-1.25,.89-.13,.1-.15,.29-.05,.42,.06,.07,.15,.11,.24,.11Zm27.68-.56c.1,0,.19-.05,.25-.14,.09-.14,.05-.33-.09-.42-.44-.29-.89-.54-1.35-.75-.15-.07-.33,0-.4,.15-.07,.15,0,.33,.15,.4,.43,.2,.86,.44,1.27,.71,.05,.03,.11,.05,.16,.05Z"/></g><polygon class="cls-14" points="18.19 36.57 8.14 42.37 8.14 45.72 18.19 39.92 18.19 36.57"/><polygon class="cls-14" points="56.88 11.19 42.03 19.77 42.03 24.72 56.88 16.15 56.88 11.19"/></g></g><polygon id="Axo_base" class="cls-4" points="7.27 73.37 7.27 56.55 10.26 54.83 10.26 71.64 7.27 73.37"/><polygon id="Axo_base-2" class="cls-4" points="11.15 60.64 11.15 48.77 14.14 47.05 14.14 58.91 11.15 60.64"/><polygon id="Axo_base-3" class="cls-4" points="16.25 64.45 16.25 52.59 19.24 50.86 19.24 62.72 16.25 64.45"/><polygon id="Axo_base-4" class="cls-4" points="21.22 64.62 21.22 57.12 24.2 55.4 24.2 62.9 21.22 64.62"/></g></g></g></g></svg>