<?xml version="1.0" encoding="utf-8"?>
<!-- Generator: Adobe Illustrator 26.4.1, SVG Export Plug-In . SVG Version: 6.00 Build 0)  -->
<svg version="1.1" id="레이어_1" xmlns="http://www.w3.org/2000/svg" xmlns:xlink="http://www.w3.org/1999/xlink" x="0px"
	 y="0px" viewBox="0 0 700 700" style="enable-background:new 0 0 700 700;" xml:space="preserve">
<path d="M341.1,630c-3.5-0.9-7-1.7-10.5-2.7c-28.4-8.2-47.8-32.3-50.6-62.7c-0.1-1.3-0.2-2.5-0.4-4.6h-5.8h-146
	c-17.7,0-27.1-7.4-30.4-24.8c-3.3-17.6-1.7-35.1,5.7-51.3c3.2-7.1,9.4-12.7,14.2-19h0c0.3-0.4,0.8-0.8,1.2-1.1
	c32.8-20,45.9-52,52.7-87.5c3.8-19.8,5.5-40,9-59.9c5.2-29.4,10.1-58.9,22.5-86.4c18.5-41.3,50-68.2,92.8-82.2
	c1.9-0.6,3.8-1.2,5.7-1.9c0.4-0.3,0.8-0.6,1.1-0.9c-4.9-11-6.6-22.6-3.5-34.4c5.5-20.9,19-33.9,39.8-39.3c1.2-0.3,2.3-0.8,3.5-1.2
	h15.3c0.6,0.4,1.2,0.7,1.9,0.9c33.7,7.6,51,39.6,38.7,71.7c-0.3,0.8-0.6,1.7-0.9,2.7c6.6,2.4,13.3,4.4,19.6,7.1
	c48.6,20.5,77.5,57.5,90.6,107.9c8.4,32.3,13.8,65.1,17.6,98.3c2.4,20.5,8.2,40.3,15.9,59.4c5.7,14.3,15.2,26.8,27.6,36
	c1.9,1.4,3.8,2.9,5.6,4.4c24.9,18.8,35.4,49.2,27.5,79.5c-4.1,15.4-12.7,22.1-28.6,22.1H420.4c-1.1,6.2-1.5,12.3-3.2,17.9
	c-8.5,28.1-27.1,45.4-56.1,51.1v0c-0.8,0.2-1.7,0.6-2.5,1L341.1,630z M130.2,524.6h438.2c0.8-16.2-1.9-29.9-16.9-39.6
	c-18-11.7-32.2-28.5-40.7-48.2c-10.8-24.2-17.8-49.8-20.9-76.1c-3.4-31-8.9-61.7-16.6-91.9C462.9,228.1,440,198,399.7,183
	c-23.1-8.6-47-10.4-71.1-6.8c-46.2,6.8-79.8,30.6-96.7,75c-10,26.2-15.2,54-18.7,81.8c-3.4,27.2-7.3,54.1-15.4,80.3
	c-9.2,29.7-24.7,54.6-50.5,72.5c-2.8,1.8-5.3,3.9-7.6,6.2c-2.4,2.8-5.1,6-5.9,9.5C132,509,131.4,516.6,130.2,524.6L130.2,524.6z
	 M315.2,560.3c-0.5,18.9,15.8,34.9,34.9,34.7c19-0.2,34.8-16.1,34.2-34.7H315.2z M350,105c-4.7-0.1-9.1,1.8-12.4,5
	c-3.3,3.3-5.2,7.7-5.2,12.4c0,4.7,1.8,9.1,5.1,12.4c3.3,3.3,7.7,5.2,12.4,5.2c4.7,0,9.1-1.8,12.4-5.1c3.3-3.3,5.1-7.7,5.1-12.4
	c0-4.6-1.8-9-5.1-12.3C359,106.9,354.6,105.1,350,105L350,105z"/>
</svg>
