<svg xmlns="http://www.w3.org/2000/svg" width="22" height="22" viewBox="0 0 22 22">
  <g id="Pimg3" transform="translate(-343.552 -620.552)">
    <circle id="sunset-6645036_1920" cx="10.776" cy="10.776" r="10.776" transform="translate(344 620.552)"/>
    <g id="그룹_1615" data-name="그룹 1615" transform="translate(343.552 620.552)">
      <g id="그룹_1613" data-name="그룹 1613">
        <path id="패스_2037" data-name="패스 2037" d="M134.2,314.617a11,11,0,1,1,11.011-10.989A11.012,11.012,0,0,1,134.2,314.617Zm.022-21.364a10.364,10.364,0,1,0,10.354,10.375A10.376,10.376,0,0,0,134.223,293.253Z" transform="translate(-123.212 -292.617)" fill="#00b4c9"/>
      </g>
      <g id="그룹_1614" data-name="그룹 1614" transform="translate(1.728 5.336)">
        <path id="패스_2038" data-name="패스 2038" d="M162.895,355.706l-3-3.5-3.111,0h-.622l-2.418,3.854-2.41-3.858h-.61l-3.111,0-3.012,3.5,1.775,2.069-1.78,2.065,3,3.5,3.111,0h.61l.011-10.007v-.127l2.087,3.385.323.524.324-.523,2.094-3.381v.127l-.011,10.008h.622l3.111,0,3.012-3.5-1.775-2.069Zm-17.2-.017,2.464-2.86,2.564,0,0,3.5-3.111,0-.685.794Zm5.022,2.867-2.564,0-.683-.8.684-.794,2.564,0Zm0,4.134-2.564,0-2.458-2.865,1.232-1.43.683.8,3.111,0Zm6.07-9.853,2.564,0,2.458,2.865-1.232,1.43-.683-.8-3.111,0Zm0,4.134,2.564,0,.683.8-.684.794-2.564,0Zm5.022,2.867-2.464,2.86-2.564,0,0-3.5,3.111,0,.685-.794Z" transform="translate(-144.472 -352.1)" fill="#00b4c9"/>
        <path id="패스_2039" data-name="패스 2039" d="M158.642,362.446l-3.872,0,.01-9.892-2.321,3.749-2.313-3.754-.01,9.892-3.86,0-3.083-3.594,1.779-2.065-1.775-2.069,3.091-3.588,3.818,0,2.355,3.772,2.363-3.767,3.83,0,.029.033,3.054,3.561-1.779,2.065,1.775,2.069Zm-3.68-.19,3.59,0,2.93-3.4-1.775-2.069,1.779-2.065-2.923-3.408-3.632,0-2.471,3.94L150,351.307l-3.62,0-2.93,3.4,1.775,2.069-1.779,2.065,2.923,3.408,3.578,0,.011-10.378,2.5,4.064,2.513-4.059Zm3.134-.447-2.7,0,0-3.684,3.16,0,.729-.846,1.353,1.578Zm-2.512-.188,2.422,0,2.383-2.767-1.1-1.287-.639.742-3.059,0Zm-6.057.18-2.7,0-2.537-2.958,1.357-1.575.727.848,3.16,0Zm-2.614-.189,2.422,0,0-3.312-3.058,0-.638-.743-1.107,1.285Zm11.187-3.937-2.7,0,0-1.776,2.7,0,.762.889Zm-2.512-.188,2.422,0,.6-.7-.6-.7-2.422,0Zm-6.057.18-2.7,0-.762-.889.764-.887,2.7,0Zm-2.614-.189,2.422,0v-1.4l-2.422,0-.6.7Zm12.369-1.181-.727-.848-3.16,0,0-3.684,2.7,0,2.537,2.958Zm-3.7-1.037,3.058,0,.638.744,1.107-1.285-2.377-2.771-2.422,0Zm-9.947,1.023-1.353-1.578,2.543-2.953,2.7,0,0,3.684-3.16,0Zm-1.1-1.577,1.1,1.287.639-.742,3.059,0,0-3.312-2.422,0Z" transform="translate(-143.193 -351.117)" fill="#00b4c9"/>
      </g>
    </g>
  </g>
</svg>
