<?xml version="1.0" encoding="UTF-8"?><svg id="_이어_2" xmlns="http://www.w3.org/2000/svg" viewBox="0 0 142.97 167.53"><defs><style>.cls-1{fill:#f86e6d;}.cls-2{fill:#1b334c;}.cls-3{fill:#fa7c7a;}.cls-4{fill:#f98786;}.cls-5{fill:#d7dee3;}.cls-6{fill:#efeded;}.cls-7{fill:#f87a78;}.cls-8{fill:#100e0e;}.cls-9{fill:#10171f;}.cls-10{fill:#f87573;}.cls-11{fill:#0e2239;}.cls-12{fill:#fb908f;}.cls-13{fill:#e5e3e3;}.cls-14{fill:#eceff2;}.cls-15{fill:#2c455c;}.cls-16{fill:#556b7f;}.cls-17{fill:#475f73;}.cls-18{fill:#fa8a88;}.cls-19{fill:#060e15;}.cls-20{fill:#3a5267;}.cls-21{fill:#f43937;}.cls-22{fill:#faccc5;}.cls-23{fill:#00060d;}.cls-24{fill:#22415c;}.cls-25{fill:#f76160;}.cls-26{fill:#f64b48;}.cls-27{fill:#efb4ac;}</style></defs><g id="Layer_1"><g><ellipse id="Axo_base" class="cls-6" cx="20.41" cy="159.24" rx="14.35" ry="8.28"/><path id="Axo_base-2" class="cls-6" d="M113.98,126.26c0,3.6-5.06,6.52-11.3,6.52s-11.29-2.92-11.29-6.52,5.06-6.52,11.29-6.52,11.3,2.92,11.3,6.52Z"/><ellipse id="Axo_base-3" class="cls-6" cx="128.56" cy="88.12" rx="11.3" ry="6.52"/><g><g><g><polygon id="Axo_base-4" class="cls-17" points="3.14 66.02 3.14 61.15 4.35 59.75 4.35 64.61 3.14 66.02"/><polygon id="Axo_base-5" class="cls-10" points="4.77 64.32 4.77 62.24 5.99 60.83 5.99 62.91 4.77 64.32"/><polygon id="Axo_base-6" class="cls-17" points="6.41 63.43 6.41 62.02 7.63 60.61 7.63 62.02 6.41 63.43"/><polygon id="Axo_base-7" class="cls-17" points="8.04 67.41 8.04 60.84 9.26 59.43 9.26 66 8.04 67.41"/><polygon id="Axo_base-8" class="cls-17" points="9.68 63.84 9.68 61.62 10.9 60.21 10.9 62.43 9.68 63.84"/><polygon id="Axo_base-9" class="cls-17" points="11.31 63.64 11.31 61.43 12.53 60.02 12.53 62.23 11.31 63.64"/><polygon id="Axo_base-10" class="cls-17" points="12.95 62.86 12.95 61.76 14.17 60.36 14.17 61.45 12.95 62.86"/><polygon id="Axo_base-11" class="cls-10" points="14.39 61.32 14.39 59.33 15.61 57.92 15.61 59.92 14.39 61.32"/><polygon id="Axo_base-12" class="cls-17" points="16.22 63.57 16.22 58.94 17.44 57.53 17.44 62.16 16.22 63.57"/><polygon id="Axo_base-13" class="cls-17" points="22.39 56.07 22.39 51.97 23.61 50.56 23.61 54.66 22.39 56.07"/><polygon id="Axo_base-14" class="cls-10" points="18.02 61.69 18.02 59.73 19.24 58.32 19.24 60.28 18.02 61.69"/><polygon id="Axo_base-15" class="cls-10" points="20.21 58.24 20.21 56.44 21.43 55.03 21.43 56.83 20.21 58.24"/><polygon id="Axo_base-16" class="cls-10" points="24.54 51.8 24.54 50.03 25.75 48.63 25.75 50.4 24.54 51.8"/><polygon id="Axo_base-17" class="cls-17" points="29.43 47.51 29.43 43.61 30.65 42.21 30.65 46.1 29.43 47.51"/><polygon id="Axo_base-18" class="cls-10" points="27.81 51.39 27.81 46.84 29.03 45.44 29.03 49.98 27.81 51.39"/><polygon id="Axo_base-19" class="cls-10" points="31.36 45.37 31.36 40.69 32.58 39.29 32.58 43.96 31.36 45.37"/><polygon id="Axo_base-20" class="cls-10" points="26.18 51.6 26.18 49.74 27.4 48.33 27.4 50.2 26.18 51.6"/><polygon id="Axo_base-21" class="cls-17" points="33.54 42.38 33.54 40.41 34.76 39 34.76 40.98 33.54 42.38"/><polygon id="Axo_base-22" class="cls-17" points="35.71 41.87 35.71 37.75 36.93 36.34 36.93 40.47 35.71 41.87"/><polygon id="Axo_base-23" class="cls-10" points="37.82 39.83 37.82 36.77 39.04 35.36 39.04 38.42 37.82 39.83"/><polygon id="Axo_base-24" class="cls-10" points="39.32 40.26 39.32 36.59 40.54 35.18 40.54 38.85 39.32 40.26"/><polygon id="Axo_base-25" class="cls-10" points="40.82 39.95 40.82 36.97 42.04 35.56 42.04 38.55 40.82 39.95"/><polygon id="Axo_base-26" class="cls-10" points="42.33 43.8 42.33 36.48 43.54 35.07 43.54 42.39 42.33 43.8"/><polygon id="Axo_base-27" class="cls-10" points="44.1 38.61 44.1 35.33 45.32 33.92 45.32 37.2 44.1 38.61"/><polygon id="Axo_base-28" class="cls-17" points="52.56 25.31 52.56 21.04 53.77 19.63 53.77 23.9 52.56 25.31"/><polygon id="Axo_base-29" class="cls-17" points="48.33 31.41 48.33 28.72 49.55 27.31 49.55 30 48.33 31.41"/><polygon id="Axo_base-30" class="cls-17" points="46.22 34.59 46.22 32.56 47.44 31.15 47.44 33.18 46.22 34.59"/><polygon id="Axo_base-31" class="cls-17" points="50.44 27.62 50.44 25.65 51.66 24.24 51.66 26.21 50.44 27.62"/><polygon id="Axo_base-32" class="cls-17" points="56.72 21.11 56.72 15.18 57.94 13.77 57.94 19.71 56.72 21.11"/><polygon id="Axo_base-33" class="cls-10" points="54.64 22.45 54.64 19.82 55.86 18.42 55.86 21.04 54.64 22.45"/><polygon id="Axo_base-34" class="cls-10" points="58.8 20.85 58.8 16.2 60.02 14.8 60.02 19.44 58.8 20.85"/><polygon id="Axo_base-35" class="cls-10" points="60.62 18.96 60.62 16.57 61.84 15.16 61.84 17.55 60.62 18.96"/><polygon id="Axo_base-36" class="cls-10" points="62.02 19.39 62.02 16.77 63.24 15.37 63.24 17.98 62.02 19.39"/><polygon id="Axo_base-37" class="cls-17" points="66.61 15.65 66.61 10.73 67.83 9.32 67.83 14.25 66.61 15.65"/><polygon id="Axo_base-38" class="cls-10" points="63.43 21.79 63.43 16.57 64.65 15.16 64.65 20.38 63.43 21.79"/><polygon id="Axo_base-39" class="cls-17" points="64.95 18.78 64.95 14.68 66.17 13.27 66.17 17.37 64.95 18.78"/><polygon id="Axo_base-40" class="cls-10" points="68.26 13.86 68.26 9.83 69.47 8.42 69.47 12.45 68.26 13.86"/><polygon id="Axo_base-41" class="cls-10" points="69.9 13.32 69.9 9.83 71.12 8.43 71.12 11.91 69.9 13.32"/><polygon id="Axo_base-42" class="cls-17" points="71.55 12.23 71.55 10.51 72.77 9.1 72.77 10.82 71.55 12.23"/><polygon id="Axo_base-43" class="cls-10" points="73.19 12.97 73.19 9.23 74.41 7.82 74.41 11.56 73.19 12.97"/><polygon id="Axo_base-44" class="cls-10" points="74.84 13.18 74.84 8.61 76.06 7.21 76.06 11.77 74.84 13.18"/><polygon id="Axo_base-45" class="cls-10" points="76.48 12.96 76.48 8.42 77.7 7.01 77.7 11.55 76.48 12.96"/></g><g><polygon id="Axo_base-46" class="cls-13" points="0 87.31 0 36.16 .52 35.86 .52 87.02 0 87.31"/><polygon id="Axo_base-47" class="cls-13" points="0 87.31 0 86.71 84.05 38.18 84.05 38.78 0 87.31"/></g></g><g><g><g><path class="cls-6" d="M53.92,157.69c4.76,2.75,12.49,2.73,17.28-.03,4.79-2.76,4.81-7.23,.05-9.98-4.76-2.75-12.49-2.73-17.28,.03-4.79,2.76-4.81,7.23-.05,9.98Z"/><g><path class="cls-23" d="M60.28,146.55l-.65-.97s-.97,1.67,.32,2.87c1.3,1.21,3.01,1.67,3.94,1.9,.93,.23,1.99,.85,1.99,.85v1.05s2.27,1.9,3.71,1.63c1.44-.28,2.18-1.44,2.18-1.44l.28-1.48-11.78-4.4Z"/><path class="cls-9" d="M65.97,145.5s-1.34,.97-2.74,.07c-.52-.33-2.95-.7-3.6,0-.65,.7,.32,2.74,3.2,3.66,2.87,.93,2.6,1.25,3.66,1.85,1.07,.6,3.01,1.34,3.89,1.11,.88-.23,1.67-1.25,1.67-1.25,0,0-.23-1.11-.28-2.25l-.05-1.14s-1.44,.56-3.2,.28c-1.76-.28-2.56-2.35-2.56-2.35Z"/><path class="cls-20" d="M73.23,113.32c-.46,1.76-.56,2.85-.56,3.05s-1.04,15.51-.63,16.62c.42,1.11,.97,1.88,.97,4.73s-.97,11.47-.97,11.47c0,0-3.67-.06-5.84-1.67-2.17-1.61-1.25-1.61-1.25-1.61,0,0,1.6-3.88,1.11-5.34-.49-1.46-.49-3.06-.49-5.28v-2.23s-.63-.46-1.6-5.17c-.97-4.71-1.04-20.74-.83-21.3,.21-.56,8.62-3.51,8.62-3.51,0,0,2.57,6,1.46,10.23Z"/><g><path class="cls-23" d="M54.55,150.77l-.96-.36s-.54,1.89,0,2.73c.54,.83,3.91,2.29,4.86,2.62l.95,.32,.04,.74s1.1,1.02,3.25,1.16c2.16,.14,2.5-1.69,2.5-1.69l-.22-1.93-6.36-.62-4.06-2.97Z"/><path class="cls-9" d="M64.39,152.8s.48,.23,.55,1.1c.07,.88,.07,1.22,.07,1.22,0,0-.05,1.44-2.57,1.25-2.53-.19-3.06-.86-3.96-1.14-.9-.28-4.2-1.53-4.57-2.18-.37-.65-.79-2.5,.14-3.48,.93-.97,.99-.7,1.69-.53,.7,.16,2.69,1.07,3.51,1.41,.83,.35,3.72,.72,3.72,.72l1.42,1.61Z"/></g><g><g><path class="cls-22" d="M77.09,104.48s1.04,1.03,1.36,2.12c.31,1.08-.68,3.19-.68,3.19,0,0-.25,.37-.68,.5-.43,.14-.83-.21-.83-.21,0,0-.23,.54-.56,.52-.32-.02-.64-.23-.64-.23,0,0-.67,.55-.82-.08-.16-.62,.82-1.62,.82-1.62v-1.96l-.2-2.05,2.23-.17Z"/><path class="cls-27" d="M70.6,81.71s1.21-1.53,3.09-.66c1.88,.87,3.44,2.09,3.72,4,.28,1.91,.45,4.17,.87,5.18,.42,1.01,1.18,3.96,1.25,4.94,.07,.97-.38,4.59-.38,5.74v2.33s.68,4.08,.39,4.54c-.29,.46-.67,1.76-.98,1.81-.31,.05-.87,0-.87,0,0,0-.73-1.77-.45-1.75,.28,.02,.52,.16,.52,.16l.35,.49,.14-.71s-.42-.73-.49-1.17c-.07-.45-.73-.86-.94-1.42-.21-.56-.31,.76-1.11,.73-.8-.03-.97,.67-1.08,.8-.1,.14-.17,.97-.52,1.21-.35,.24-.64,.44-.7,.26-.05-.17-.26-.45,0-.92,.26-.47,.26-.77,.26-1.16s.26-1.06,.26-1.06l2.24-2.73s.37-3.15-.02-4.75c-.38-1.6-.38-3.06-.38-3.06,0,0-1.95-4.52-2.26-5.25-.31-.73-3.5-4.83-2.91-7.54Z"/></g><path class="cls-4" d="M69.87,81.22s3.35-2.29,6.5,.84c3.15,3.12,1.76,5.35,2.45,7.52,.7,2.18,.78,3.15,.78,3.15,0,0,.05,2.4-2.36,1.76-2.41-.64-2.97-1.55-2.97-1.55,0,0-3.23-7.81-3.68-8.6-.45-.79-.73-3.12-.73-3.12Z"/></g><path class="cls-16" d="M68.37,107.34s.7,4.3,0,7.22c-.7,2.92-5.29,17.25-4.31,21.49,.97,4.24,2.11,3.75,1.61,6.54-.5,2.78-.71,7.72-.71,9.04s0,1.51,0,1.51c0,0-.49,1.76-2.72,1.21-2.23-.56-3.76-2.78-4.03-3.69-.28-.9,.07-1.94,.07-1.94,0,0-.14-4.11-.56-7.8-.42-3.69-.49-6.61-1.18-8-.7-1.39-.35-1.53-.7-3.41-.35-1.88-1.88-9.67-1.32-12.52,.56-2.85,1.95-12.1,1.95-12.1l11.89,2.44Z"/><path class="cls-18" d="M55.37,104.9c-.15,1.25,.73,2.44,.73,2.44,0,0,.94,1.16,3.13,1.99,1.02,.39,2.33,.72,3.93,.81,5.01,.31,9.69-3.83,9.69-3.83,0,0-.03-4.76,.03-6.13,.07-1.37,.77-6.07,1.4-7.26,.62-1.18,.91-4.94,.97-6.9,.07-1.96-1.53-4.5-3.76-4.94-2.22-.44-4.38,1.9-4.38,1.9,0,0-6.06,4.02-8.76,4.7-2.04,.5-2.43,.81-2.91,1.52-.17,.25-.33,.53-.57,.87-.97,1.39,1.47,9.04,1.47,9.04,0,0-.29,1.88-.36,2.2-.07,.32-.48,2.31-.62,3.57Z"/><path class="cls-7" d="M55.37,104.9c-.15,1.25,.73,2.44,.73,2.44,0,0,.94,1.16,3.13,1.99,0-.61,.01-1.13,.03-1.47,.07-1.36,.92-.9,1.54-2.08,.63-1.18-1.06-8.64-.99-10.6,.08-1.96-.21-4.67-2.44-5.1-.86-.17-1.21-1.22-1.93-.87-.17,.25-.33,.53-.57,.87-.97,1.39,1.47,9.04,1.47,9.04,0,0-.29,1.88-.36,2.2-.07,.32-.48,2.31-.62,3.57Z"/><path class="cls-27" d="M68.29,80.77s-.08,2.04,.52,2.41c.6,.37,.79,0,1.34,.37,.56,.37,.05,1.44-.42,1.99-.46,.56-2.46,1.76-4.26,1.67-1.81-.09-2.55-.52-3.13-.85-.58-.34-.75-.05-.75-.05,0,0,1.15-.81,1.1-1.28-.05-.46-.16-3.52-.35-3.99-.19-.46,5.95-.28,5.95-.28Z"/><path class="cls-8" d="M68.47,81.05c0-.16,.59-1.41,1.47-2.55,.88-1.14,2-6.31,.58-7.79s-7.22-5.72-10.71-1.33c-1.14,1.43-1.16,3.19-.86,5.71,.3,2.53,1.14,3.82,1.65,4.36s1.9,1.44,2.32,2.16c.86,1.46,2.39,.44,2.39,.44l3.16-1Z"/><path class="cls-22" d="M59.42,74.81l-.48-.42s-.47,1.12-.24,1.83c.24,.72,.39,.81,.33,1.02-.32,1.08,.71,3,.98,3.78,.55,1.6,1.06,1.27,1.69,1.27s.97,.53,1.65,.59c.68,.07,1.73-.71,1.73-.71,0,0-.65,.3-1.32-.07-.67-.37-1.18-.86-1.18-.86,0,0,.6,.05,.97-.21,.37-.26,.86-2.61-.28-2.4-1.14,.2-1.78,.76-1.78,.76,0,0-.6-1.97-1.11-3.04-.51-1.07-.95-1.55-.95-1.55Z"/><g><path class="cls-22" d="M45.37,79.74h-.01c.09-.21,.21-.4,.35-.51,.07,.06,.12,.14,.15,.2,.09,.3-.3,.35-.49,.31Z"/><path class="cls-22" d="M45.57,102.52c-1.79-1.52-3.21-2.78-3.61-5.37-.4-2.57-.84-8.05-1.21-10.22-.03-.16-.06-.32-.09-.47,0,0,0-.01-.01-.04,0-.02-.01-.06-.02-.11-.14-.79-.29-1.49-.41-2.12-.16-.89-.25-1.62-.2-2.16,.1-1.02,.44-.35,.47-.54,.07-.29,.12-.41,.21-.5h0s0-.03,.01-.03c.05-.06,.11-.1,.2-.17,.23-.19,.34-.09,.57-.21,.22-.12,.34-.47,.64-.55,.15-.05,.34-.04,.51,0,.01,0,.04,.01,.05,.01,.14,.02,.26,.05,.39,.07-.07-.37-.29-.97,.01-1.29,.14-.14,.36-.19,.6-.2,.02,.15,.06,.27,.1,.4,.19,.5,.17,2.01,.17,2.01v2.07s.47-.81,.66-.95c.02,.08,.05,.14,.06,.21,.01-.27,.12-.4,.44-.47,.3-.07,.42-.08,.57,.31,.04,.1,.11,.21,.19,.32-.17,.59-.86,2.56-.9,2.66-.02,.09-1.06,.87-1.2,.97h-.01c.2,1.82,.47,3.41,.95,5.24,.46,1.84,1.94,3.71,2.44,5.54,.51,1.84-1.04,3.88-1.59,5.56Z"/></g><path class="cls-22" d="M59.81,92.87s-.1,2.73-1.81,4.64c-1.71,1.91-6.77,4.87-8.58,5.24s-4.03,.23-4.59-.42c-.56-.65,.05-4.45,1.53-5.1,1.48-.65,3.8-1.85,4.73-2.92,.93-1.07,3.47-4.86,4.47-5.26,1-.4,3.83,.44,4.24,3.82Z"/><path class="cls-18" d="M58.93,90.13s1.95,1.82,.88,5.06c-1.07,3.24-4.33,5.13-4.33,5.13,0,0-3.78,.76-4.61-1.75-.83-2.5-.23-4.4-.23-4.4,0,0,2.69-4.86,4.31-5.21,1.62-.35,3.08-.3,3.98,1.18Z"/></g></g><path class="cls-22" d="M45.95,80.35c-.01,.35,.05,1.65-.06,2.11,0,.02-.01,.05-.01,.07-.17,.59-.86,2.56-.9,2.66-.02,.09-1.06,.87-1.2,.97h-.01l-3.11,.29s0-.01-.01-.04c0-.02-.01-.06-.02-.11-.17-.72-.94-3.87-.85-3.92,0,0-.45-2.77-.45-2.8v-1.85c0-.17,.47-.26,.62,.69l.15,.94,.6,1.61h0l.02,.09-.3-2.68s.3-.72,.36-1.17c.05-.45,.05-.58,.19-.64,.12-.05,.31,.59,.31,.59,0,0,.06-.52,.22-.64,.15-.12,.47-.03,.52,.89,.05,.91,0,1.42,0,1.42l.66,1.34s0-.05-.01-.12c-.01-.49-.05-2.16,.12-2.92,.21-.91,.04-1.41,.25-1.46,.22-.04,.62,.49,.57,1.31-.05,.62-.04,1.2,.05,1.66,.02,.15,.06,.27,.1,.4,.19,.5,.17,2.01,.17,2.01v2.07s.47-.81,.66-.95c0-.01,.01-.01,.01-.01,.17-.1,.24-1,.36-1.36,.07-.21,.19-.66,.36-1.05,.09-.21,.21-.4,.35-.51,.05-.05,.09-.07,.14-.1,.49-.22,.51-.06,.41,.16-.1,.24-.29,.72-.3,1.06Z"/></g><g><g><polygon class="cls-5" points="86.14 14.48 96.04 8.21 100.75 16.31 90.87 22.68 86.14 14.48"/><path class="cls-22" d="M95.39,18.23s1.51,2.54,2.73,2.67c1.22,.13,1.61,0,2.23,0s.4-4.07,.4-4.07l-2.2-.78-3.16,2.18Z"/><path class="cls-15" d="M123.45,9.62s-2.88-1.26-4.95,2.53c-2.08,3.79-5.59,10.82-5.59,10.82,0,0-4.93,.03-7.54-2.43-1.73-1.63-2.73-2.9-2.73-2.9,0,0-1.87,2.93-2.87,3.95-1.05,1.06,1.4,1.87,3.3,4.23,2.51,3.12,7.38,5.19,11.25,3.9,3.88-1.29,11.76-18.57,9.12-20.09Z"/><path class="cls-19" d="M135.65,88.65l-.35,.5s-1.02,1.83-2.31,3.29c-1.29,1.46-4.84,2.5-5.45,.26-.11-.4-.07-.87,.08-1.38,.15-.54,.41-1.12,.73-1.7,1.09-1.98,2.79-3.89,2.79-3.89,0,0,.66-.81,1.6-.64,.79,.15,1.28,1.18,1.41,1.5,.02,.06,.04,.09,.04,.09l-.56,1.79s.79-1.07,1.44-1.79c.65-.72,1.44-1.87,1.44-1.87,.26,1.34-.04,2.73-.83,3.84Z"/><path class="cls-19" d="M124.94,81.01s-2.89,2.94-3.8,2.83-2.53,.41-3.83,1.16c-1.3,.75-1.05,2.55-.64,2.75,1.51,.77,3.53,1.02,4.91,.37,1.38-.65,3.31-1.47,4.11-1.47s4.21-.4,4.86-1.22c.65-.82-.77-4.72-.84-5.01-.07-.29-4.76,.58-4.76,.58Z"/><path class="cls-23" d="M130.36,84.01c-.65,.82-4.06,1.22-4.86,1.22s-2.54,1.52-3.92,2.18c-1.38,.65-4.07,.34-4.99-.39-.49-.39-.02-.82,.36-1.56,.23-.46,.6-.88,1.09-1.17,1.3-.75,2.2-1.27,3.11-1.16,.91,.11,3.8-2.83,3.8-2.83,0,0,4.69-.87,4.76-.58,.04,.17,.47,1.31,.7,2.4,.17,.79,.22,1.55-.05,1.9Z"/><path class="cls-22" d="M130.41,82.11s-.03,.05-.05,.07c-.65,.82-4.06,1.22-4.86,1.22s-2.54,1.52-3.92,2.18c-1.38,.65-3.58,.73-4.5,0-.05-.04-.1-.09-.14-.14,.23-.46,.6-.88,1.09-1.17,1.3-.75,2.2-1.27,3.11-1.16,.91,.11,3.8-2.83,3.8-2.83,0,0,4.69-.87,4.76-.58,.04,.17,.47,1.31,.7,2.4Z"/><path class="cls-19" d="M125.17,82.41c.27,.1,.34,.45,.13,.64l-.8,.73c-.87,.5-1.98,1.35-2.92,1.8-1.38,.65-3.58,.73-4.5,0-.05-.04-.1-.09-.14-.14,.23-.46,.63-.83,1.09-1.17,2.46-1.81,2.94-.74,3.84-1.4,.74-.54,1.82-1.4,1.82-1.4,0,0,.71,.66,1.47,.94Z"/><path class="cls-22" d="M130.41,82.11s-.03,.05-.05,.07c-.59,.74-3.47,1.14-4.59,1.21,1.19-.41,3.33-1.4,3.46-2.15,.99-.86,.44-1.64,.47-1.54,.04,.17,.47,1.31,.7,2.4Z"/><path class="cls-22" d="M123.7,72.74s1.41,7.91,1.24,8.27c-.17,.36,.48,1.02,2.01,.94,1.52-.07,2.76-2.25,2.76-2.25,0,0-.51-2.47-.44-3.63,.07-1.16-.29-3.34-.29-3.34h-5.28Z"/><path class="cls-22" d="M125.78,83.39c-.68,.24-1.23,.38-1.27,.39,.4-.23,.75-.38,1-.38,.07,0,.17,0,.27,0Z"/><path class="cls-24" d="M118.83,38.1s-2.27,7.29-2.15,12.01,1.79,11.25,2.73,12.84c.94,1.6,2.39,7.4,2.61,8.63,.22,1.23,2.48,8.07,2.48,8.07,0,0,.85,1.11,2.45,1.02,1.6-.09,3.46-2.12,3.46-2.12,0,0-.99-1.52-.99-3.85s-.07-13.57-.51-14.15c-.44-.58,2.21-17.38,1.5-18.81-.7-1.43-11.59-3.64-11.59-3.64Z"/><path class="cls-22" d="M131.96,79.34s-.22,4.49-.58,5.22c-.36,.73-3.48,4.65-3.85,6.1-.36,1.45,2.32,2.61,4.43,1.74s3.41-4.06,3.7-4.86c.29-.8,.81-1.92,.82-2.18,.02-.8-.67-1.36-.67-1.58v-4.08l-3.85-.35Z"/><path class="cls-23" d="M136.48,84.81s.33,.9-1.1,3.76c-.45,.9-1,1.84-2.29,3.3-1.29,1.46-4.98,2.42-5.6,.17-.11-.4-.07-.87,.08-1.38,.15-.54,.41-1.12,.73-1.7,1.09-1.98,2.79-3.89,2.79-3.89,0,0,.66-.81,1.6-.64,.79,.15,1.28,1.18,1.41,1.5,.02,.06,.04,.09,.04,.09l-.56,1.79s.79-1.07,1.44-1.79c.65-.72,.8-2.24,.8-2.24l.67,1.02Z"/><path class="cls-19" d="M134.09,85.93l-.53,1.88s-2.55,3.79-4.87,3.93c-1.02,.06-1.22-.47-1.12-1.09,.12-.73,.65-1.58,.73-1.7,1.09-1.98,2.79-3.89,2.79-3.89,0,0,.66-.81,1.6-.64,.79,.15,1.28,1.18,1.41,1.5Z"/><path class="cls-2" d="M125.14,43.85s1.09,10.1,1.09,13.72-.64,6.24,.48,8.56c1.12,2.32,5.33,13.74,5.08,15.82-.26,2.09-.55,1.82-.55,1.82,0,0,1.15,1.3,2.86,.65,1.71-.65,2.39-2.04,2.39-2.04,0,0,.78-8.34,.85-10.09,.07-1.74,.23-2.54-.76-4.57-.98-2.03-2.07-4.14-2.07-4.14,0,0,3.56-20.47,2.54-22.21-1.02-1.74-10.81-.82-11.9,2.46Z"/><path class="cls-14" d="M134.43,33.74s-.73,3.23,.87,4.7c1.6,1.47,1.74,2.95,1.74,2.95,0,0-4.5,2.98-9,3.15-4.5,.17-9.54-5.32-9.54-5.32,0,0,.69-11.1,.11-14.9-.58-3.8,1.31-7.66,1.38-8.82,.07-1.16,1.23-3.92,2.76-4.86,1.52-.94,3.34,.73,3.34,.73l-.14-1.74,3.85,.73s1.02,1.89,1.48,2.76c.46,.87,1.28,1.09,3.24,2.47,1.96,1.38,3.34,6.89,3.26,9.45-.07,2.55-3.34,8.73-3.34,8.73Z"/><path class="cls-27" d="M131.26,15.46c-.34,1.27-3.44,2.79-5.61,1.92-2.18-.87-1.38-3.85-1.38-3.85,.13-1.58,1.81-2.18,1.81-2.18l-.14-1.74,3.85,.73s1.02,1.89,1.48,2.76c0,0,.34,1.09,0,2.36Z"/><path class="cls-11" d="M115.38,46.19c1.62,2.37,4.71,2.94,6.68,3.76,.3-4.52,1.05-11.48,1.05-11.51,0-.05-.12-13.78-.12-13.78,0,0,.37-4.18,.21-7.88-.16-3.7,2.89-5.42,2.89-5.42,0,0-1.31-1.31-2.63-1.74-1.33-.44-3.85,3.84-3.85,5.65s-1.39,4.76-1.71,6.59c-1.21,6.8-.36,13.08-.22,15.89,.05,.9-2.44,8.22-2.29,8.44Z"/><path class="cls-2" d="M126.91,52.83c2.51,.12,7.7-1.87,9.76-3.55,1.59-1.29-.3-5.66,.86-7.44-.17-.96-.34-1.63-.49-1.87-.94-1.48-2.03-.97-.94-8.08,1.09-7.11,1.04-13.92,.44-15.07-.6-1.14-5.61-4.37-5.61-4.37,0,0,1.6,1.74-.39,3.58-1.98,1.85-7.1,6.45-7.75,8.75-.65,2.3-1.41,10.51-1.63,14.14-.07,1.24-1.79,6.35-1.55,10.1,1.24,.7,5.28,3.7,7.31,3.8Z"/><path class="cls-22" d="M132.43,23.57l1.85,3.52s1.92,4.8,3.1,6.66l1.18,1.85s-1.18,5.8-1.18,7.33-1.07,5.12-1.65,5.46c-.58,.34-2.8,1.34-2.9,1.54-.1,.2-.29,.54-.73,.89-.44,.34-.99,.47-1.37,.89-.38,.42-.91,.65-.46,1.13,.45,.47,1.02,.13,1.34-.13,.33-.25,1.14-.72,1.53-.95,.39-.22,.6-.1,.6-.1,0,0,.16,.64,.08,1.3-.08,.65-.44,3.08-.51,3.32-.07,.24-.78,1.56-.74,1.74,.04,.18,.06,.35,.36,.37,.18,0,.59-.45,.92-.88,.22-.29,.41-.58,.48-.71,.17-.34,.64-2.03,.64-2.03v1.63l-.51,.78s-.98,.56-.73,.85c.25,.29,1.07-.2,1.51-.47,.44-.27,.76-1.07,.76-1.07,0,0,.58-.18,.75-.43,.17-.26,.28-.53,.28-.53,0,0,.83-.13,.87-.51,.04-.38,.69-4.39,.85-4.79,.16-.4,3.12-6.79,3.45-9.68,.33-2.89,.94-4.72,.71-5.35-.24-.63-.85-.96-1.31-3.77-.45-2.81-3.74-10.34-3.74-10.34,0,0-1.89-6.78-4.21-5.26-2.32,1.52-1.23,7.76-1.23,7.76Z"/><path class="cls-15" d="M132.76,15.06s-2.48,4.77-1.5,8.91c.99,4.15,5.31,9.74,6.12,10.39,.81,.65-.02,.81,0,1.28,.02,.46,.62,.81,.66,.83,.04,.03-.66,1.53-.66,1.53,0,0-.34,2.68-.34,4.67s-1.31,5.71-1.31,5.71c0,0-.22,2.38,2.61,2.23,2.83-.15,3.26-1.09,3.26-1.09,0,0,1.31-12.23,1.31-14.35s-3.5-22.58-10.16-20.12Z"/><path class="cls-15" d="M130.32,11.34c-.14-.2,.35-1.22,.94,.26,.59,1.48,1.13,1.85,1.13,1.85,0,0-.27,2.7-1.37,4.81-1.1,2.1-2.17,2.72-2.17,2.72l-1.11-.64,.38,2.64s-4.55,.71-5.15,1.7c-.6,.99,1.56-4.02,2.87-5.04,1.32-1.02,3.2-2.95,3.71-4.05,.51-1.1,1.7-2.9,.75-4.24Z"/><path class="cls-15" d="M125.14,10.56l.8-.94,.14,1.74s-1.74,.22-2.4,4.22c-.23,1.42-.7,9.09-.7,9.09l-2.29-5.19,1.76-1.44-1.76-.02s.38-6.16,4.44-7.46Z"/><path class="cls-9" d="M122.88,7.73s-.85-1.66-.57-2.1c.28-.44,.57-.87,.57-.87,0,0-1.71-1.79,2-3.55,7.51-3.56,10,1.43,9.25,5.96-.56,3.36-3.47,5.42-3.47,5.42l-.63-1.78-7.15-3.08Z"/><path class="cls-22" d="M122.88,4.76s-1.37,1.89-1.22,2.61l.14,.73s-.36,1.63,0,2.38c.36,.74,.55,2.19,.46,2.7-.1,.51-.11,1.33,1.13,1.68,1.24,.35,2.14-.74,3.5-.95,1.37-.22,3.42-2.56,3.42-2.56,0,0,.15-.09,1.09-.63,.94-.55,.98-2.18,.33-2.11-.65,.07-1.64,.64-1.64,.64,0,0-1.33,1.37-1.51,.87-.18-.5,.39-2.97-.95-3.19-1.34-.22-2.49,.24-3.51,0-2.49-.58-1.25-2.18-1.25-2.18Z"/></g><path class="cls-22" d="M102.93,17.8s-.37-2.31-.86-2.88c-.46-.54-1.68-.8-2.3-1.65-.3-.41-1.91,.04-2.72-.41-.56-.31-.75,1.07,.36,1.64,.95,.49,2.46,.27,2.32,2.22-.08,1.12-1.24,1.22-.67,2.72,.57,1.51,1.29,1.45,1.29,1.45,0,0,2.03-.24,2.59-3.09Z"/></g><g><path class="cls-23" d="M101.77,126.77s.5,.82,.5,1.66-.25,.98-.25,.98c0,0-1.74,1.28-2.53,.99-.78-.28-2.21-1.79-2.21-1.79v-1.27s-1.92,.07-3.42-.57c-1.49-.64-2.78-3.49-2.78-3.49,0,0,.34-.69,1.52-.88,1.18-.19,3.8,.66,4.45,.66s2.57-.35,2.57-.35l2.13,4.06Z"/><path class="cls-21" d="M105.04,73.98s1.71-.93,2.56,4.41c.85,5.34,1.07,6.19,0,10.03-1.07,3.84-3.42,12.81-3.42,14.52v24.55s.72,1.92-3.27,0c-3.99-1.92-3.99-3.42-3.99-3.42,0,0,2.56-18.36,2.35-21.99-.21-3.63,.21-18.57,.43-21.35s2.92-8.16,5.34-6.76Z"/><path class="cls-23" d="M110.66,123.36s1.99,1.64,2.7,2.13c.71,.5,1.28,2.35,1.28,2.35,0,0-.36,.71-1.14,1.07-.78,.36-2.07,1.1-2.07,1.1l-.78-.74s-2.34,1.85-2.34,2.35c0,.5-2.43,1.07-3.92,.43-1.49-.64-1.78-2.49-1.78-2.49l1.07-1.12h1.97l1.44-2.87,3.56-2.21Z"/><g><path class="cls-12" d="M118.07,60.52l1.83,2.18-13.43,8.29s-.84-2.99-.42-3.91c.42-.93,6.33-4.55,6.87-5.34,.53-.78,4.3-2.24,5.16-1.21Z"/><path class="cls-10" d="M107.11,55.47s-.84-2.49,1.78-2.13c2.63,.36,3.91,3.06,5.12,3.49,1.21,.43,6.19,2.49,6.19,4.13s.07,2.04-1.85,2.05c-1.92,.01-9.25-2.83-10.25-4.19-1-1.35-.99-3.34-.99-3.34Z"/></g><path class="cls-26" d="M102.82,80.1s2.63,7.69,1.13,9.72c-1.49,2.03-1.49,13.55-1.49,13.55,0,0,4.27,4.06,5.12,7.04,.85,2.99,4.06,13.02,4.06,13.02,0,0-1.92,5.76-4.59,4.91l-2.67-.85s-1.63-5.55-3.27-9.39c-1.64-3.84-5.48-11.69-5.48-11.69,0,0-5.12-13.08-5.12-17.77s2.99-12.65,2.99-12.65l9.33,4.12Z"/><path class="cls-25" d="M101.63,55.11s5.07-2.28,6.7-.93c1.63,1.35,1.27,5.41,1.27,7.26s-3.31,10.79-3.27,11.96c.03,1.17,2.28,4.63,2.63,7.12,.36,2.49,.6,4.45,.6,4.45,0,0-9.42,7.93-13.98,6.36-4.55-1.57-5.27-5.12-5.27-5.12,0,0,.93-8.64,1.85-10.23,.93-1.59,1.28-1.74,1.35-2.23,.07-.49-1.71-7.68-1.71-8.39s-.36-1.57,1.49-4.2c1.19-1.69,8.33-6.05,8.33-6.05Z"/><path class="cls-1" d="M104.26,57.24s1.57,7.33,.36,11.03c-1.21,3.7-1.57,6.26-1.57,8.33,0,.9,.35,2.52,.76,4.15,.53,2.11,1.16,4.22,1.27,4.74,.18,.93,.18,2.62,.18,2.62l.64-.42s-.21-2.77-.71-4.12c-.12-.32-1.94-3.04-2.02-6.76-.09-4.39,1.95-8.3,1.87-11.1-.19-6.92-.78-8.47-.78-8.47Z"/><path class="cls-22" d="M91.17,70.98c-.21,.21-2.43-.64-3.21,0-.78,.64-1.57,2.27-1.57,2.77,0,.5,.02,.51,.8,.96,.78,.45,2.48,0,2.48,0l-.57-2.52h1.64l.85,.49,1.28,1.07s.33-.36,0-1.1c-.33-.75-1.71-1.67-1.71-1.67Z"/><g><path class="cls-22" d="M95.27,44.81c-.6,.51-.9,1.68-.9,3.04s.24,1.9,0,2.21c-.24,.31-.88,1.23-.69,1.4,.19,.17,.72,.47,.88,.56,.16,.09,.48,.09,.48,.09,0,0-.14,.44-.14,.56s.33,.28,.31,.43c-.02,.14-.31,.4-.02,.55,.28,.14,.45,.19,.4,.59-.05,.4-.33,.72,.43,.94,.76,.22,2.06,.16,2.54,0,.47-.16,.78,0,.88,.14,.09,.15,6-1.37,5.62-1.75s-.53-1.38,.02-2.3c.55-.93,.53-6.19-1.44-7.42-1.97-1.23-6.75-.39-8.35,.97Z"/><path class="cls-23" d="M95.86,43.87s-1.14,.12-1.45,1.16c-.31,1.04-.17,5.1,.95,6.78,1.11,1.68,3.99,2.63,3.99,2.63,0,0-1.21-.93-1.57-1.62-.36-.69-.47-1.11-.47-1.11,0,0,1.19,1.75,1.85,2.04,.66,.29,1.76,.59,1.76,.59,0,0-.75-.64-.95-1.19-.19-.55-.19-.88-.19-.88,0,0,1.21,1.37,1.8,1.37h.59l.8,.82,1.96-.72s-.34-1.42-.19-1.56c.15-.14,.46-.47,.46-.47,0,0-.4,.78-.26,.78s1.57-.88,1.85-1.92c.28-1.04,.74-3.13-.33-5.29-1.07-2.16-3.32-2.92-3.84-3.13-.52-.21-4.84,.28-5.79,.78-.95,.5-.95,.93-.95,.93Z"/></g><path class="cls-10" d="M105.89,53.76s-.56-.85-.99-.93c-.43-.07-4.31,1.35-4.93,1.78-.62,.43-2.08,2.9-2.08,2.9,0,0,6.23-2.83,7.01-3.04,.78-.21,1.64-.71,1.64-.71h-.65Z"/><path class="cls-20" d="M89.7,75.98l-2.93,7.31-.85-.52s2.89-7.07,3.04-7.07,.74,.28,.74,.28Z"/><path class="cls-3" d="M99.97,71.62c-1.12,3.94-3.18,10.32-4.82,10.18-1.64-.14-6.4-4.3-7.54-5.82-1.14-1.52-.43-3.44,.64-3.65,1.07-.21,1.71,.77,2.7,1.42,1,.64,2.63,2.36,2.63,2.36,0,0,1.35-8.83,1.35-10.18s.92-5.84,2.95-6.12c2.03-.28,4.73,2.49,2.08,11.81Z"/><path class="cls-20" d="M90.95,73.33s1.69-.19,3.21,2.37c1.52,2.56,3.21,12.2,3.21,12.2l-1.17-.51s-1.76-9.92-2.56-11.67c-.64-1.39-2.69-2.4-2.69-2.4Z"/><path class="cls-20" d="M84.97,89.98c1.22,2,7.47,5.62,9.3,5.28,1.94-.36,4.36-6.8,4.36-6.8l-14.98-8.39s-.06,7.64,1.32,9.91Z"/><path class="cls-11" d="M90.19,83.29s3.65,2.53,4.65,2.8,3.18,1.14,3.51,1.57c.33,.43,.59,1.27-.46,.97-1.06-.3-7.7-4.75-8.74-5.05-1.04-.3-6.34-3.5-5.49-3.5s2.07,.04,6.54,3.22Z"/><path class="cls-20" d="M90.19,73.17s.9-1.03,2.42,1.53c1.52,2.56,3.12,13.92,3.12,13.92l-1.17-.51s-1.76-11.14-2.56-12.89c-.64-1.39-1.81-2.06-1.81-2.06Z"/><polygon class="cls-20" points="89.08 77.55 86.78 83.29 85.92 82.77 88.39 76.87 89.08 77.55"/></g><g><path class="cls-22" d="M22.4,111.81c.27,.34,1.97,5.9,2.71,11.05,.75,5.15,.2,7.59,1.02,9.89,.81,2.3,1.63,4.81,2.1,7.52,.47,2.71,1.56,11.39,1.56,11.39,0,0-.14,1.22-.14,1.76s.81,2.1,.14,3.19c-.68,1.08-2.24,1.15-2.78,.54s-.54-2.71-.68-3.32c-.14-.61,.14-1.97-.41-3.59-.54-1.63-3.52-6.91-3.46-9.69,.07-2.78-.47-4.47-.88-5.08-.41-.61-1.42-.68-2.24-4.88-.81-4.2-1.69-6.44-2.64-10.71-.95-4.27,5.69-8.06,5.69-8.06Z"/><path class="cls-22" d="M18.68,90.47s-.75-1.49,.88-1.83,3.19,.47,4.2,1.83c1.02,1.36,1.97,2.71,3.46,4.07,1.49,1.36,2.37,3.59,2.78,4.2,.41,.61,2.64,2.85,2.17,3.86-.47,1.02-7.73,7.25-8.81,7.39-1.08,.14-2.24-1.22-2.24-1.22,0,0,3.12-2.85,3.46-3.12,.34-.27,4.13-4.07,4.13-4.07,0,0-3.8-3.25-5.62-5.22-1.83-1.97-4.41-5.9-4.41-5.9Z"/><path class="cls-22" d="M19.29,117.17s-1.02,3.05-1.63,7.05-.95,7.93-1.15,10.91c-.2,2.98-.27,4.34-.07,6.64,.2,2.3,.75,3.32,.27,6.23-.47,2.91-1.69,5.02-1.49,7.52,.2,2.51,1.29,5.69,.27,6.23-1.02,.54-4-.14-6.1-.2s-3.25,1.02-3.93,.41-1.97-.95-1.97-2.24,.34-1.76,.75-1.9c.41-.14,1.15,.75,2.58,.61,1.42-.14,4.27-2.37,4.27-2.37,0,0,.5-7.7-.41-11.11-.81-3.05,.14-5.35-.2-6.17-.34-.81-3.05-13.49-2.24-19.45,.81-5.96-.68-1.9-.61-2.24,.07-.34,11.66,.07,11.66,.07Z"/><path class="cls-10" d="M15.49,87.21s1.08,2.17,2.03,2.17,2.1-1.42,2.51-.14c.41,1.29,2.1,3.8,1.69,8-.41,4.2-.34,6.91-.47,8.61-.14,1.69,2.44,2.78,2.71,7.59,.27,4.81,3.73,22.97,3.73,22.97,0,0-12,8.2-15.32,6.03-3.32-2.17-4.74-3.46-4.74-3.46,0,0-1.83-10.5-.47-18.3,1.36-7.79,1.63-14.23,.88-16.27-.75-2.03-2.44-9.28-.81-10.78,1.63-1.49,1.97,.07,2.98-2.24,1.02-2.3,.14-3.73,.14-3.73l5.15-.47Z"/><g><path class="cls-20" d="M9.78,120.58s1.91-2.91-.64-4.55c-2.55-1.64-3.55-4.55-4.09-3.73-.55,.82-1.18,3-2,4.73-.82,1.73-1.09,3.82-.45,5.28,.64,1.46,3.57,3.58,4.24,3.06,.67-.52,2.94-4.79,2.94-4.79Z"/><path class="cls-11" d="M10.41,119.85s-.45,3.18-.91,4.18c-.45,1-1.8,1.4-2.67,1.34-.88-.06,1.03-5.7,1.49-7.89,.45-2.18,2.27-.64,2.09,2.36Z"/></g><path class="cls-22" d="M6.61,93.45c-.84,.38-2.3,3.32-2.3,5.76s.54,5.42,.14,7.79c-.41,2.37-1.29,5.22-1.15,6.98,.14,1.76-.07,6.3-.07,6.3,0,0-1.3,1.39-1.27,1.91,.03,.53,.24,.75,.34,.92,.1,.17-.07,.63,.1,.88,.17,.25,.37,.49,.46,.51,.08,.02,0,.25,.22,.47,.22,.22,.8,.27,.86,.27s-.02-.36,.19,.19c.2,.54,1.37,1.07,1.37,1.07,0,0,.69-.15,.76-.19,.07-.03,.71-.59,.71-.59,0,0,.14-.25-.14-.36s-.53,.24-.64,.27c-.12,.03-.51-.46-.64-.54-.14-.08-.12-.69-.1-1.47,.02-.78-.47-2.76-.53-2.86-.05-.1,2.17-5.56,2.17-7.59s.88-2.74,.93-4.29c.05-1.54,1.03-6.35,1.37-8.73,.34-2.37,.78-8.32-2.78-6.71Z"/><path class="cls-22" d="M9.66,78.86c-.1,.09-1.27,1.17-1.1,1.88,.17,.71,.14,1.19-.05,1.47-.19,.29-.78,.63-.44,1.76,.34,1.14,.78,2.34,.81,2.61,.03,.27,.36,.59,.97,.85,.61,.25,8.05,1.08,8.73-2.98,.68-4.07-1.12-5.39-2.13-6.27-1.02-.88-3.9-2.08-6.78,.68Z"/><path class="cls-23" d="M10.22,77.86s-1.29-.54-1.15,1.03c.14,1.58,1.37,2.47,1.07,3.69-.3,1.22-1.19,3.66-.63,4.61s.19,1.47-.14,2.39-.98,2.22,.22,3.46c1.2,1.24,.02,1.12,1.91,2.51,1.9,1.39,5.25,.47,5.96,1.75,.71,1.27,3.03-.24,2.73-2.2-.3-1.97,3.15-3.86,1.54-6.62-1.61-2.76-.88-3.47-1.07-4.68-.19-1.2-.97-1.69-1.46-2.47-.49-.78-.49-2.59-1.25-3.39-.76-.8-1.66-.32-2.44-.95-.78-.63-1.07-1.07-2.74-1-2.18,.09-2.56,1.88-2.56,1.88Z"/><path class="cls-9" d="M29.68,156.91c.18-.09,1.22-.5,1.22-.5l-.54,3.75s-.54,.95-1.49,1.22-2.48-.81-2.48-.81l-.45-3.16,3.75-.5Z"/><path class="cls-10" d="M30.26,154.15s.99,1.45,.45,2.89c-.54,1.45-.99,1.36-2.03,1.58-1.04,.23-2.67-.41-2.8-1.45-.14-1.04,.45-3.34,.45-3.34,0,0,.72,.5,1.85,.36,1.13-.14,1.45-1.13,1.45-1.13l.63,1.08Z"/><g><path class="cls-9" d="M15.22,160.2l1.08,1.31s-.18,3.16-.72,3.75c-.54,.59-2.82,1.29-4,.61-1.17-.68-1.02-1.54-1.02-1.54l-.18-1.24s-1.13-.63-2.98-.59c-1.85,.05-3.5-.93-4.18-2.37-.68-1.45-.02-1.9,.11-1.94,.14-.05,1.94,2.42,1.94,2.42l9.94-.41Z"/><path class="cls-10" d="M15.65,158.19s-1.06,1.08-3.03,1.04c-3.38-.08-6.62,.16-7.25-.38-.63-.54,1.85-.41,1.22-.5-.63-.09-2.35-.99-2.98-.63-.63,.36-.66,1.42-.2,2.28,0,0,.7,1.06,1.83,1.6,1.13,.54,2.26,.05,7,1.58,1.03,.33,4.29,.09,4.07-1.9s-.65-3.09-.65-3.09Z"/></g></g></g></g></g></g></svg>