<?xml version="1.0" encoding="UTF-8"?><svg xmlns="http://www.w3.org/2000/svg" xmlns:xlink="http://www.w3.org/1999/xlink" viewBox="0 0 106.31 113.55"><defs><style>.cls-1{fill:#edebec;mix-blend-mode:multiply;}.cls-2{fill:#e3e0e0;}.cls-3{fill:#fff;}.cls-4{fill:#1b334c;}.cls-5{fill:#faeae3;}.cls-6{fill:#fff8f6;}.cls-7{isolation:isolate;}.cls-8{fill:#547087;}.cls-9{opacity:.86;}.cls-10{fill:#fcad7f;}.cls-11{fill:#f1f4f6;}.cls-12{fill:#eaaf8b;}.cls-13{fill:#fb9d68;}.cls-14{fill:#a7b8c4;}.cls-15{fill:#eceff2;}.cls-16{fill:#556b7f;}.cls-17{fill:#475f73;}.cls-18{clip-path:url(#clippath);}.cls-19{fill:#feb28b;}.cls-20{fill:#060e15;}.cls-21{fill:#fb9c66;}.cls-22{fill:#3a5267;}.cls-23{fill:#dae2e6;}.cls-24{fill:#00060d;}.cls-25{fill:#fef5f2;}</style><clipPath id="clippath"><polygon class="cls-2" points="43.09 31.12 43.09 56.84 65.97 70.05 65.97 44.33 43.09 31.12"/></clipPath></defs><g class="cls-7"><g id="_이어_2"><g id="Layer_1"><g><g><polygon class="cls-14" points="69.83 84 33.32 62.92 33.32 21.02 69.83 42.1 69.83 84"/><polygon class="cls-15" points="65.97 44.33 65.97 77.31 37.18 60.69 37.18 27.71 65.97 44.33"/><polygon class="cls-20" points="65.97 44.33 65.97 74.23 40.44 59.49 40.44 29.59 65.97 44.33"/><g><polygon class="cls-2" points="43.09 31.12 43.09 56.84 65.97 70.05 65.97 44.33 43.09 31.12"/><g class="cls-18"><polygon class="cls-24" points="43.09 31.12 43.09 56.84 65.97 70.05 65.97 44.33 43.09 31.12"/><polygon class="cls-16" points="59.9 46.94 43.09 56.84 65.97 70.05 65.97 44.33 59.9 46.94"/><g><path class="cls-6" d="M66.45,54.1l-12.35,7.13c-.18-.1-7.5-7.83-7.44-7.98l12.13-7.09c.04-.08,.13-.1,.23-.04l6.18,3.57c.1,.06,.18,.17,.22,.29l1.25,3.84c.08,.23-.04,.38-.22,.27Z"/><path class="cls-13" d="M66.17,54.5c-4,2.41-11.89,6.73-11.89,6.73-.18-.1-1.44-4.41-1.44-4.41,.04-.08,12.35-7.13,12.35-7.13,.1,.06,.18,.17,.22,.29l1.25,3.84c.19,.47-.14,.45-.5,.67Z"/><path class="cls-21" d="M66.17,54.5c-4,2.41-11.89,6.73-11.89,6.73-.18-.1-1.44-4.41-1.44-4.41,.04-.08,6.27-2.59,8.22-3.16,3.52-1.03,5.61,.17,5.61,.17,.19,.47-.14,.45-.5,.67Z"/><path class="cls-25" d="M54.09,61.23l-8.55-4.94c-.18-.1-.29-.37-.23-.52l1.14-2.2,.08-.21c.12-.2,.17-.08,.27-.02l6.04,3.49c.1,.06,.18,.17,.22,.29l1.25,3.84c.08,.23-.04,.38-.22,.27Z"/><path class="cls-12" d="M54.09,61.23l-8.55-4.94c-.18-.1-.29-.37-.23-.52l1.22-2.42,5.46,3.4c.52,.3,.75,.93,.79,1.05l1.31,3.43Z"/><path class="cls-5" d="M51.92,55.82l-3.9-2.25c-.32-.19-.32-.66,0-.84l10.27-5.79c.5-.29,1.11-.29,1.61,0l3.9,2.25c.32,.19,.32,.66,0,.84l-10.27,5.79c-.5,.29-1.11,.29-1.61,0Z"/><path class="cls-5" d="M45.47,55.87s.8-1.81,1.18-1.87c.38-.06,.64,.09,.64,.09,0,0-.39,.1-.77,.55s-1.05,1.24-1.05,1.24Z"/><path class="cls-13" d="M45.6,56.04c.14-.01,1.39-1.5,1.84-1.54,.44-.03,2.37,1.08,2.37,1.08,0,0-1.72-.9-2.52-.45-.8,.45-1.69,.9-1.69,.9Z"/><g class="cls-9"><polygon class="cls-3" points="56.67 54.6 47.29 52.89 49.09 51.84 58.56 53.51 56.67 54.6"/></g><g class="cls-9"><polygon class="cls-3" points="59.2 53.09 49.81 51.39 50.72 50.87 60.18 52.55 59.2 53.09"/></g></g><g><path class="cls-6" d="M77.13,60.29l-12.35,7.13c-.18-.1-7.5-7.83-7.44-7.98l12.13-7.09c.04-.08,.13-.1,.23-.04l6.18,3.57c.1,.06,.18,.17,.22,.29l1.25,3.84c.08,.23-.04,.38-.22,.27Z"/><path class="cls-13" d="M76.85,60.69c-3.99,2.41-11.89,6.73-11.89,6.73-.18-.1-1.44-4.41-1.44-4.41,.04-.08,12.35-7.13,12.35-7.13,.1,.06,.18,.17,.22,.29l1.25,3.84c.19,.47-.14,.45-.5,.67Z"/><path class="cls-21" d="M76.85,60.69c-3.99,2.41-11.89,6.73-11.89,6.73-.18-.1-1.44-4.41-1.44-4.41,.04-.08,6.27-2.59,8.22-3.16,3.52-1.03,5.61,.17,5.61,.17,.19,.47-.14,.45-.5,.67Z"/><path class="cls-25" d="M64.78,67.42l-8.55-4.94c-.18-.1-.29-.37-.23-.52l1.14-2.2,.08-.21c.12-.2,.17-.08,.27-.02l6.04,3.49c.1,.06,.18,.17,.22,.29l1.25,3.84c.08,.23-.04,.38-.22,.27Z"/><path class="cls-12" d="M64.78,67.42l-8.55-4.94c-.18-.1-.29-.37-.23-.52l1.22-2.42,5.46,3.4c.52,.3,.75,.93,.79,1.05l1.31,3.43Z"/><path class="cls-5" d="M62.6,62.01l-3.9-2.25c-.32-.19-.32-.66,0-.84l10.27-5.79c.5-.29,1.11-.29,1.61,0l3.9,2.25c.32,.19,.32,.66,0,.84l-10.27,5.79c-.5,.29-1.11,.29-1.61,0Z"/><path class="cls-5" d="M56.16,62.06s.8-1.81,1.18-1.87c.38-.06,.64,.09,.64,.09,0,0-.39,.1-.77,.55-.38,.44-1.05,1.24-1.05,1.24Z"/><path class="cls-13" d="M56.29,62.23c.14-.01,1.39-1.5,1.84-1.54,.44-.03,2.37,1.08,2.37,1.08,0,0-1.72-.9-2.52-.45-.8,.45-1.69,.9-1.69,.9Z"/><g class="cls-9"><polygon class="cls-3" points="67.36 60.79 57.98 59.08 59.78 58.03 69.24 59.7 67.36 60.79"/></g><g class="cls-9"><polygon class="cls-3" points="69.88 59.28 60.5 57.58 61.4 57.06 70.86 58.74 69.88 59.28"/></g></g><g><path class="cls-6" d="M87.79,66.09l-12.35,7.13c-.18-.1-7.5-7.83-7.44-7.98l12.13-7.09c.04-.08,.13-.1,.23-.04l6.18,3.57c.1,.06,.18,.17,.22,.29l1.25,3.84c.08,.23-.04,.38-.22,.27Z"/><path class="cls-13" d="M87.51,66.49c-4,2.41-11.89,6.73-11.89,6.73-.18-.1-1.44-4.41-1.44-4.41,.04-.08,12.35-7.13,12.35-7.13,.1,.06,.18,.17,.22,.29l1.25,3.84c.19,.47-.14,.45-.5,.67Z"/><path class="cls-21" d="M87.51,66.49c-4,2.41-11.89,6.73-11.89,6.73-.18-.1-1.44-4.41-1.44-4.41,.04-.08,6.27-2.59,8.22-3.16,3.52-1.03,5.61,.17,5.61,.17,.19,.47-.14,.45-.5,.67Z"/><path class="cls-25" d="M75.44,73.22l-8.55-4.94c-.18-.1-.29-.37-.23-.52l1.14-2.2,.08-.21c.12-.2,.17-.08,.27-.02l6.04,3.49c.1,.06,.18,.17,.22,.29l1.25,3.84c.08,.23-.04,.38-.22,.27Z"/><path class="cls-12" d="M75.44,73.22l-8.55-4.94c-.18-.1-.29-.37-.23-.52l1.22-2.42,5.46,3.4c.52,.3,.75,.93,.79,1.05l1.31,3.43Z"/><path class="cls-5" d="M73.26,67.81l-3.9-2.25c-.32-.19-.32-.66,0-.84l10.27-5.79c.5-.29,1.11-.29,1.61,0l3.9,2.25c.32,.19,.32,.66,0,.84l-10.27,5.79c-.5,.29-1.11,.29-1.61,0Z"/><path class="cls-5" d="M66.82,67.85s.8-1.81,1.18-1.87c.38-.06,.64,.09,.64,.09,0,0-.39,.1-.77,.55-.38,.44-1.05,1.24-1.05,1.24Z"/><path class="cls-13" d="M66.95,68.02c.14-.01,1.39-1.5,1.84-1.54,.44-.03,2.37,1.08,2.37,1.08,0,0-1.72-.9-2.52-.45-.8,.45-1.69,.9-1.69,.9Z"/><g class="cls-9"><polygon class="cls-3" points="78.02 66.58 68.64 64.88 70.44 63.83 79.9 65.5 78.02 66.58"/></g><g class="cls-9"><polygon class="cls-3" points="80.54 65.08 71.16 63.37 72.06 62.86 81.52 64.53 80.54 65.08"/></g></g><g><path class="cls-6" d="M72.04,52.32l-12.35,7.13c-.18-.1-7.5-7.83-7.44-7.98l12.13-7.09c.04-.08,.13-.1,.23-.04l6.18,3.57c.1,.06,.18,.17,.22,.29l1.25,3.84c.08,.23-.04,.38-.22,.27Z"/><path class="cls-13" d="M71.76,52.72c-4,2.41-11.89,6.73-11.89,6.73-.18-.1-1.44-4.41-1.44-4.41,.04-.08,12.35-7.13,12.35-7.13,.1,.06,.18,.17,.22,.29l1.25,3.84c.19,.47-.14,.45-.5,.67Z"/><path class="cls-21" d="M71.76,52.72c-4,2.41-11.89,6.73-11.89,6.73-.18-.1-1.44-4.41-1.44-4.41,.04-.08,6.27-2.59,8.22-3.16,3.52-1.03,5.61,.17,5.61,.17,.19,.47-.14,.45-.5,.67Z"/><path class="cls-25" d="M59.69,59.45l-8.55-4.94c-.18-.1-.29-.37-.23-.52l1.14-2.2,.08-.21c.12-.2,.17-.08,.27-.02l6.04,3.49c.1,.06,.18,.17,.22,.29l1.25,3.84c.08,.23-.04,.38-.22,.27Z"/><path class="cls-12" d="M59.69,59.45l-8.55-4.94c-.18-.1-.29-.37-.23-.52l1.22-2.42,5.46,3.4c.52,.3,.75,.93,.79,1.05l1.31,3.43Z"/><path class="cls-5" d="M57.51,54.04l-3.9-2.25c-.32-.19-.32-.66,0-.84l10.27-5.79c.5-.29,1.11-.29,1.61,0l3.9,2.25c.32,.19,.32,.66,0,.84l-10.27,5.79c-.5,.29-1.11,.29-1.61,0Z"/><path class="cls-5" d="M51.07,54.09s.8-1.81,1.18-1.87c.38-.06,.64,.09,.64,.09,0,0-.39,.1-.77,.55s-1.05,1.24-1.05,1.24Z"/><path class="cls-13" d="M51.2,54.26c.14-.01,1.39-1.5,1.84-1.54,.44-.03,2.37,1.08,2.37,1.08,0,0-1.72-.9-2.52-.45s-1.69,.9-1.69,.9Z"/><g class="cls-9"><polygon class="cls-3" points="62.27 52.82 52.89 51.11 54.69 50.06 64.15 51.73 62.27 52.82"/></g><g class="cls-9"><polygon class="cls-3" points="64.79 51.31 55.41 49.61 56.31 49.09 65.77 50.77 64.79 51.31"/></g></g><g><path class="cls-6" d="M82.73,58.51l-12.35,7.13c-.18-.1-7.5-7.83-7.44-7.98l12.13-7.09c.04-.08,.13-.1,.23-.04l6.18,3.57c.1,.06,.18,.17,.22,.29l1.25,3.84c.08,.23-.04,.38-.22,.27Z"/><path class="cls-13" d="M82.45,58.91c-4,2.41-11.89,6.73-11.89,6.73-.18-.1-1.44-4.41-1.44-4.41,.04-.08,12.35-7.13,12.35-7.13,.1,.06,.18,.17,.22,.29l1.25,3.84c.19,.47-.14,.45-.5,.67Z"/><path class="cls-21" d="M82.45,58.91c-4,2.41-11.89,6.73-11.89,6.73-.18-.1-1.44-4.41-1.44-4.41,.04-.08,6.27-2.59,8.22-3.16,3.52-1.03,5.61,.17,5.61,.17,.19,.47-.14,.45-.5,.67Z"/><path class="cls-25" d="M70.37,65.64l-8.55-4.94c-.18-.1-.29-.37-.23-.52l1.14-2.2,.08-.21c.12-.2,.17-.08,.27-.02l6.04,3.49c.1,.06,.18,.17,.22,.29l1.25,3.84c.08,.23-.04,.38-.22,.27Z"/><path class="cls-12" d="M70.37,65.64l-8.55-4.94c-.18-.1-.29-.37-.23-.52l1.22-2.42,5.46,3.4c.52,.3,.75,.93,.79,1.05l1.31,3.43Z"/><path class="cls-5" d="M68.2,60.23l-3.9-2.25c-.32-.19-.32-.66,0-.84l10.27-5.79c.5-.29,1.11-.29,1.61,0l3.9,2.25c.32,.19,.32,.66,0,.84l-10.27,5.79c-.5,.29-1.11,.29-1.61,0Z"/><path class="cls-5" d="M61.75,60.28s.8-1.81,1.18-1.87c.38-.06,.64,.09,.64,.09,0,0-.39,.1-.77,.55-.38,.44-1.05,1.24-1.05,1.24Z"/><path class="cls-13" d="M61.88,60.44c.14-.01,1.39-1.5,1.84-1.54,.44-.03,2.37,1.08,2.37,1.08,0,0-1.72-.9-2.52-.45-.8,.45-1.69,.9-1.69,.9Z"/><g class="cls-9"><polygon class="cls-3" points="72.95 59.01 63.57 57.3 65.38 56.25 74.84 57.92 72.95 59.01"/></g><g class="cls-9"><polygon class="cls-3" points="75.48 57.5 66.1 55.79 67 55.28 76.46 56.96 75.48 57.5"/></g></g><g><path class="cls-6" d="M93.39,64.31l-12.35,7.13c-.18-.1-7.5-7.83-7.44-7.98l12.13-7.09c.04-.08,.13-.1,.23-.04l6.18,3.57c.1,.06,.18,.17,.22,.29l1.25,3.84c.08,.23-.04,.38-.22,.27Z"/><path class="cls-13" d="M93.11,64.71c-4,2.41-11.89,6.73-11.89,6.73-.18-.1-1.44-4.41-1.44-4.41,.04-.08,12.35-7.13,12.35-7.13,.1,.06,.18,.17,.22,.29l1.25,3.84c.19,.47-.14,.45-.5,.67Z"/><path class="cls-21" d="M93.11,64.71c-4,2.41-11.89,6.73-11.89,6.73-.18-.1-1.44-4.41-1.44-4.41,.04-.08,6.27-2.59,8.22-3.16,3.52-1.03,5.61,.17,5.61,.17,.19,.47-.14,.45-.5,.67Z"/><path class="cls-25" d="M81.03,71.44l-8.55-4.94c-.18-.1-.29-.37-.23-.52l1.14-2.2,.08-.21c.12-.2,.17-.08,.27-.02l6.04,3.49c.1,.06,.18,.17,.22,.29l1.25,3.84c.08,.23-.04,.38-.22,.27Z"/><path class="cls-12" d="M81.03,71.44l-8.55-4.94c-.18-.1-.29-.37-.23-.52l1.22-2.42,5.46,3.4c.52,.3,.75,.93,.79,1.05l1.31,3.43Z"/><path class="cls-5" d="M78.86,66.03l-3.9-2.25c-.32-.19-.32-.66,0-.84l10.27-5.79c.5-.29,1.11-.29,1.61,0l3.9,2.25c.32,.19,.32,.66,0,.84l-10.27,5.79c-.5,.29-1.11,.29-1.61,0Z"/><path class="cls-5" d="M72.41,66.07s.8-1.81,1.18-1.87c.38-.06,.64,.09,.64,.09,0,0-.39,.1-.77,.55-.38,.44-1.05,1.24-1.05,1.24Z"/><path class="cls-13" d="M72.54,66.24c.14-.01,1.39-1.5,1.84-1.54,.44-.03,2.37,1.08,2.37,1.08,0,0-1.72-.9-2.52-.45-.8,.45-1.69,.9-1.69,.9Z"/><g class="cls-9"><polygon class="cls-3" points="83.61 64.8 74.23 63.1 76.04 62.04 85.5 63.72 83.61 64.8"/></g><g class="cls-9"><polygon class="cls-3" points="86.14 63.3 76.76 61.59 77.66 61.08 87.12 62.75 86.14 63.3"/></g></g><g><path class="cls-6" d="M78.69,51.21l-12.35,7.13c-.18-.1-7.5-7.83-7.44-7.98l12.13-7.09c.04-.08,.13-.1,.23-.04l6.18,3.57c.1,.06,.18,.17,.22,.29l1.25,3.84c.08,.23-.04,.38-.22,.27Z"/><path class="cls-13" d="M78.41,51.61c-4,2.41-11.89,6.73-11.89,6.73-.18-.1-1.44-4.41-1.44-4.41,.04-.08,12.35-7.13,12.35-7.13,.1,.06,.18,.17,.22,.29l1.25,3.84c.19,.47-.14,.45-.5,.67Z"/><path class="cls-21" d="M78.41,51.61c-4,2.41-11.89,6.73-11.89,6.73-.18-.1-1.44-4.41-1.44-4.41,.04-.08,6.27-2.59,8.22-3.16,3.52-1.03,5.61,.17,5.61,.17,.19,.47-.14,.45-.5,.67Z"/><path class="cls-25" d="M66.34,58.34l-8.55-4.94c-.18-.1-.29-.37-.23-.52l1.14-2.2,.08-.21c.12-.2,.17-.08,.27-.02l6.04,3.49c.1,.06,.18,.17,.22,.29l1.25,3.84c.08,.23-.04,.38-.22,.27Z"/><path class="cls-12" d="M66.34,58.34l-8.55-4.94c-.18-.1-.29-.37-.23-.52l1.22-2.42,5.46,3.4c.52,.3,.75,.93,.79,1.05l1.31,3.43Z"/><path class="cls-5" d="M64.16,52.93l-3.9-2.25c-.32-.19-.32-.66,0-.84l10.27-5.79c.5-.29,1.11-.29,1.61,0l3.9,2.25c.32,.19,.32,.66,0,.84l-10.27,5.79c-.5,.29-1.11,.29-1.61,0Z"/><path class="cls-5" d="M57.72,52.98s.8-1.81,1.18-1.87c.38-.06,.64,.09,.64,.09,0,0-.39,.1-.77,.55s-1.05,1.24-1.05,1.24Z"/><path class="cls-13" d="M57.85,53.14c.14-.01,1.39-1.5,1.84-1.54,.44-.03,2.37,1.08,2.37,1.08,0,0-1.72-.9-2.52-.45-.8,.45-1.69,.9-1.69,.9Z"/><g class="cls-9"><polygon class="cls-3" points="68.92 51.71 59.53 50 61.34 48.95 70.8 50.62 68.92 51.71"/></g><g class="cls-9"><polygon class="cls-3" points="71.44 50.2 62.06 48.49 62.96 47.98 72.42 49.66 71.44 50.2"/></g></g><g><path class="cls-6" d="M89.37,57.4l-12.35,7.13c-.18-.1-7.5-7.83-7.44-7.98l12.13-7.09c.04-.08,.13-.1,.23-.04l6.18,3.57c.1,.06,.18,.17,.22,.29l1.25,3.84c.08,.23-.04,.38-.22,.27Z"/><path class="cls-13" d="M89.1,57.8c-4,2.41-11.89,6.73-11.89,6.73-.18-.1-1.44-4.41-1.44-4.41,.04-.08,12.35-7.13,12.35-7.13,.1,.06,.18,.17,.22,.29l1.25,3.84c.19,.47-.14,.45-.5,.67Z"/><path class="cls-21" d="M89.1,57.8c-4,2.41-11.89,6.73-11.89,6.73-.18-.1-1.44-4.41-1.44-4.41,.04-.08,6.27-2.59,8.22-3.16,3.52-1.03,5.61,.17,5.61,.17,.19,.47-.14,.45-.5,.67Z"/><path class="cls-25" d="M77.02,64.53l-8.55-4.94c-.18-.1-.29-.37-.23-.52l1.14-2.2,.08-.21c.12-.2,.17-.08,.27-.02l6.04,3.49c.1,.06,.18,.17,.22,.29l1.25,3.84c.08,.23-.04,.38-.22,.27Z"/><path class="cls-12" d="M77.02,64.53l-8.55-4.94c-.18-.1-.29-.37-.23-.52l1.22-2.42,5.46,3.4c.52,.3,.75,.93,.79,1.05l1.31,3.43Z"/><path class="cls-5" d="M74.85,59.12l-3.9-2.25c-.32-.19-.32-.66,0-.84l10.27-5.79c.5-.29,1.11-.29,1.61,0l3.9,2.25c.32,.19,.32,.66,0,.84l-10.27,5.79c-.5,.29-1.11,.29-1.61,0Z"/><path class="cls-5" d="M68.4,59.16s.8-1.81,1.18-1.87c.38-.06,.64,.09,.64,.09,0,0-.39,.1-.77,.55s-1.05,1.24-1.05,1.24Z"/><path class="cls-13" d="M68.53,59.33c.14-.01,1.39-1.5,1.84-1.54,.44-.03,2.37,1.08,2.37,1.08,0,0-1.72-.9-2.52-.45-.8,.45-1.69,.9-1.69,.9Z"/><g class="cls-9"><polygon class="cls-3" points="79.6 57.9 70.22 56.19 72.02 55.14 81.49 56.81 79.6 57.9"/></g><g class="cls-9"><polygon class="cls-3" points="82.13 56.39 72.74 54.68 73.65 54.17 83.11 55.85 82.13 56.39"/></g></g></g></g><polygon class="cls-15" points="11.65 46.56 8.39 44.33 37.18 27.71 40.74 29.77 11.65 46.56"/><polygon class="cls-14" points="8.39 77.31 8.39 44.33 11.65 46.56 11.65 79.54 8.39 77.31"/><polygon class="cls-4" points="11.65 79.54 11.65 46.56 40.74 29.77 40.74 62.75 11.65 79.54"/><polygon class="cls-16" points="19.64 49.36 17.43 47.85 36.92 36.59 39.13 38.1 19.64 49.36"/><polygon class="cls-17" points="17.43 70.18 17.43 47.85 19.64 49.36 19.64 71.69 17.43 70.18"/><polygon class="cls-22" points="19.64 71.69 19.64 49.36 39.13 38.1 39.13 60.43 19.64 71.69"/><polygon class="cls-8" points="106.31 62.92 69.79 84 69.79 42.1 106.31 21.02 106.31 62.92"/><polygon class="cls-15" points="69.91 42.03 33.39 20.95 69.68 0 106.2 21.08 69.91 42.03"/><g><path class="cls-23" d="M19.02,53.41c0,.22-.08,.38-.21,.45l-2.46,1.42-1.05-1.69,2.46-1.42c.13-.11,.33-.12,.55,.01,.39,.22,.71,.77,.71,1.22Z"/><path class="cls-11" d="M16.56,54.83c0,.45-.32,.63-.71,.4-.39-.23-.71-.77-.71-1.22s.32-.63,.71-.4c.39,.23,.71,.77,.71,1.22Z"/></g><g><path class="cls-23" d="M19.02,57.94c0,.22-.08,.38-.21,.45l-2.46,1.42-1.05-1.69,2.46-1.42c.13-.11,.33-.12,.55,.01,.39,.22,.71,.77,.71,1.22Z"/><path class="cls-11" d="M16.56,59.36c0,.45-.32,.63-.71,.4-.39-.23-.71-.77-.71-1.22s.32-.63,.71-.4c.39,.23,.71,.77,.71,1.22Z"/></g><g><path class="cls-23" d="M19.02,62.48c0,.22-.08,.38-.21,.45l-2.46,1.42-1.05-1.69,2.46-1.42c.13-.11,.33-.12,.55,.01,.39,.22,.71,.77,.71,1.22Z"/><path class="cls-11" d="M16.56,63.9c0,.45-.32,.63-.71,.4-.39-.23-.71-.77-.71-1.22s.32-.63,.71-.4c.39,.23,.71,.77,.71,1.22Z"/></g><g><path class="cls-23" d="M19.02,67.02c0,.22-.08,.38-.21,.45l-2.46,1.42-1.05-1.69,2.46-1.42c.13-.11,.33-.12,.55,.01,.39,.22,.71,.77,.71,1.22Z"/><path class="cls-11" d="M16.56,68.44c0,.45-.32,.63-.71,.4-.39-.23-.71-.77-.71-1.22s.32-.63,.71-.4c.39,.23,.71,.77,.71,1.22Z"/></g></g><g><g><path class="cls-6" d="M66.2,97.79l-27.18,15.69c-.39-.22-16.51-17.23-16.36-17.55l26.67-15.59c.08-.19,.28-.22,.5-.1l13.6,7.85c.21,.12,.4,.37,.49,.65l2.76,8.46c.17,.51-.1,.83-.49,.6Z"/><path class="cls-10" d="M65.59,98.67c-8.79,5.31-26.15,14.81-26.15,14.81-.39-.22-3.17-9.7-3.17-9.7,.08-.19,27.18-15.69,27.18-15.69,.21,.12,.4,.37,.49,.65l2.76,8.46c.41,1.03-.31,1-1.1,1.48Z"/><path class="cls-21" d="M65.59,98.67c-8.79,5.31-26.15,14.81-26.15,14.81-.39-.22-3.17-9.7-3.17-9.7,.08-.19,13.79-5.7,18.08-6.96,7.73-2.26,12.35,.37,12.35,.37,.41,1.03-.31,1-1.1,1.48Z"/><path class="cls-25" d="M39.02,113.48l-18.82-10.86c-.39-.22-.65-.82-.5-1.15l2.5-4.84,.18-.47c.27-.44,.37-.17,.59-.05l13.29,7.67c.21,.12,.4,.37,.49,.65l2.76,8.46c.17,.51-.1,.83-.49,.6Z"/><path class="cls-12" d="M39.02,113.48l-18.82-10.86c-.39-.22-.65-.82-.5-1.15l2.68-5.32,12.02,7.48c1.15,.66,1.66,2.04,1.75,2.31l2.87,7.54Z"/><path class="cls-19" d="M34.24,101.57l-8.58-4.95c-.71-.41-.71-1.44,0-1.85l22.59-12.74c1.1-.63,2.45-.63,3.54,0l8.58,4.95c.71,.41,.71,1.44,0,1.85l-22.59,12.74c-1.1,.63-2.45,.63-3.54,0Z"/><path class="cls-5" d="M20.07,101.67s1.77-3.98,2.59-4.12c.83-.14,1.4,.19,1.4,.19,0,0-.86,.22-1.69,1.2-.84,.98-2.3,2.73-2.3,2.73Z"/><path class="cls-13" d="M20.35,102.05c.32-.03,3.07-3.31,4.04-3.38,.98-.07,5.22,2.38,5.22,2.38,0,0-3.79-1.97-5.55-.99-1.76,.99-3.72,1.98-3.72,1.98Z"/><g class="cls-9"><polygon class="cls-3" points="60.86 89.44 40.22 85.69 42.21 84.56 63.02 88.25 60.86 89.44"/></g></g><g><path class="cls-6" d="M38,86.46l-18.01,25.87c-.39-.11-19.24-12.74-19.22-13.13l17.62-25.6c.01-.23,.17-.33,.39-.27l13.89,3.75c.22,.06,.46,.26,.61,.52l4.95,8.06c.3,.48,.18,.91-.23,.8Z"/><path class="cls-10" d="M37.76,87.6c-5.75,8.61-17.42,24.59-17.42,24.59-.39-.11-5.68-9.24-5.68-9.24,.01-.23,18.01-25.87,18.01-25.87,.22,.06,.46,.26,.61,.52l4.95,8.06c.67,.95,.05,1.16-.47,1.95Z"/><path class="cls-21" d="M37.76,87.6c-5.75,8.61-17.42,24.59-17.42,24.59-.39-.11-5.68-9.24-5.68-9.24,.01-.23,10.16-7.35,13.38-10.13,5.81-5.02,10.2-7.16,10.2-7.16,.67,.95,.05,1.16-.47,1.95Z"/><path class="cls-25" d="M19.99,112.33L.78,107.14c-.39-.11-.8-.66-.78-1.05l.6-6v-.57c.1-.56,.26-.31,.49-.25l13.57,3.66c.22,.06,.46,.26,.61,.52l4.95,8.06c.3,.48,.18,.91-.23,.8Z"/><path class="cls-12" d="M19.99,112.33L.78,107.14c-.39-.11-.8-.66-.78-1.05l.61-6.56,12.43,3.89c1.17,.32,2.03,1.61,2.19,1.87l4.76,7.05Z"/><path class="cls-19" d="M12.27,101.29l-8.76-2.37c-.73-.2-1.05-1.29-.57-1.97l15.07-21.18c.73-1.04,1.86-1.5,2.98-1.2l8.76,2.37c.73,.2,1.05,1.29,.57,1.97l-15.07,21.18c-.73,1.04-1.86,1.5-2.98,1.2Z"/><path class="cls-5" d="M.37,106.19s.26-4.83,.91-5.26c.65-.43,1.24-.27,1.24-.27,0,0-.65,.53-1.05,1.85-.4,1.32-1.1,3.68-1.1,3.68Z"/><path class="cls-13" d="M.72,106.49c.26-.13,1.56-4.55,2.36-4.96,.8-.4,5.14,.77,5.14,.77,0,0-3.8-.82-4.98,.83-1.18,1.65-2.51,3.36-2.51,3.36Z"/><g class="cls-9"><polygon class="cls-3" points="20.24 94.89 1.71 97.88 4.33 94.08 22.99 90.95 20.24 94.89"/></g><g class="cls-9"><polygon class="cls-3" points="23.89 89.49 5.35 92.48 6.67 90.61 25.34 87.49 23.89 89.49"/></g></g><path class="cls-1" d="M19.99,112.33l9.63-4.28v-7l1.34-1.37s8.08-5.73,9.01-7.51c.93-1.78-1.97-5.72-1.97-5.72l-18.01,25.87Z"/><g class="cls-9"><path class="cls-3" d="M29.62,97.52s-7.63,7.63-8.11,8.24c-1.16,1.46-3.08,.73-3.08,.73,0,0,.86,3.38,2.25,2.97,1.39-.41,8.94-11.94,8.94-11.94Z"/></g></g></g></g></g></g></svg>