<svg xmlns="http://www.w3.org/2000/svg" width="33" height="32" viewBox="0 0 33 32">
  <g id="telegram" transform="translate(-0.454 -1.287)">
    <g id="그룹_1684" data-name="그룹 1684" transform="translate(0.454 1.287)">
      <ellipse id="타원_112" data-name="타원 112" cx="16.5" cy="16" rx="16.5" ry="16" transform="translate(0 0)" fill="#0099d7"/>
    </g>
    <g id="그룹_1686" data-name="그룹 1686" transform="translate(6.252 9.51)">
      <g id="그룹_1688" data-name="그룹 1688">
        <path id="패스_2333" data-name="패스 2333" d="M113.766,144.857l-2.912,14.684a1.078,1.078,0,0,1-1.527.529l-6.721-5.153-2.444-1.181-4.114-1.385s-.631-.224-.692-.713.713-.754.713-.754l16.354-6.415s1.344-.591,1.344.387" transform="translate(-95.352 -144.293)" fill="#fff"/>
        <path id="패스_2334" data-name="패스 2334" d="M176,205.736s-.2-.018-.441-.792-1.487-4.847-1.487-4.847l9.877-6.273s.57-.346.55,0c0,0,.1.061-.2.346s-7.759,6.985-7.759,6.985" transform="translate(-169.264 -190.653)" fill="#c8e0ef"/>
        <path id="패스_2335" data-name="패스 2335" d="M208.712,319.489l-2.658,2.424a.466.466,0,0,1-.435.059l.509-4.5" transform="translate(-198.882 -306.889)" fill="#a5c7df"/>
      </g>
    </g>
  </g>
</svg>
